<?xml version="1.0" encoding="utf-8"?>
<!-- Generator: Adobe Illustrator 21.1.0, SVG Export Plug-In . SVG Version: 6.00 Build 0)  -->
<svg version="1.1" id="Layer_1" xmlns="http://www.w3.org/2000/svg" xmlns:xlink="http://www.w3.org/1999/xlink" x="0px" y="0px"
	 viewBox="60 50 350 350" style="enable-background:new 0 0 1200 1200;" xml:space="preserve">
<style type="text/css">
	.st0{fill:#FFFFFF;}
	.st1{fill:#FFFF00;}
	.st2{fill:none;}
</style>
<g>
	<g>
		<path d="M305.8,354c-25.6,8-54.2,8.9-80.8,7c-24.7-1.8-49.9-7.3-71.6-19.7c-23.2-13.2-42.1-34.6-47.5-61.1
			c-6.2-30.7-5.3-63.5,0.5-94.2c6.6-34.9,20.1-68.1,39.8-97.7c-1.4,0-2.9,0-4.3,0c4.3,7.5,8.5,15.1,12.8,22.6
			c3.7,6.5,6.9,13.5,11.4,19.5c3.9,5.2,8.8,7.2,15.2,7.7c8.7,0.8,17.5,1.1,26.3,1.7c17.4,1.1,34.8,2.2,52.2,3.4
			c8.9,0.6,17.7,1.1,26.6,1.7c6.9,0.4,14.7,2,21.5,0.1c7.1-2.1,9.9-8.8,13.1-14.9c4.5-8.7,9.1-17.4,13.6-26
			c-1.3,0.2-2.6,0.3-3.9,0.5c25.8,33.2,41.5,73.8,45.2,115.7c3.1,35.7-0.7,76.5-25,104.8C338.8,338.9,323.1,348.4,305.8,354
			c-3,1-1.7,5.8,1.3,4.8c33.1-10.8,57.5-35.2,67.6-68.6c12.1-39.9,7.8-85.7-5.7-124.6c-8.1-23.3-19.9-45.1-35.1-64.6
			c-1-1.3-3.2-0.8-3.9,0.5c-4.4,8.4-8.8,16.8-13.2,25.2c-2,3.7-3.8,8.8-7.1,11.6c-3.5,3-8.4,2.5-12.7,2.3c-20-1.1-40-2.6-60-3.9
			c-9.8-0.6-19.7-1.3-29.5-1.9c-4.9-0.3-9.8-0.6-14.8-1c-4.9-0.3-10.2-0.1-15-1.2c-8.9-2.1-12.8-13.8-16.9-20.9
			c-4.9-8.7-9.8-17.3-14.7-26c-1-1.7-3.3-1.5-4.3,0c-36.1,54.1-51.5,121.1-42.5,185.6c2.2,15.8,6.7,29.9,16.1,42.9
			c7.2,9.9,16,18.5,26.1,25.5c20.9,14.7,46.2,21.9,71.3,25c14.5,1.8,29.1,2.2,43.6,1.6c17.1-0.7,34.2-2.5,50.6-7.6
			C310.2,357.9,308.9,353,305.8,354z"/>
		<path d="M331.4,130.3c-1.4,5.1-2.3,10.2-2.7,15.4c-0.1,1.2,0.9,2,1.8,2.4c4.4,1.8,8.8,2.1,13.4,1.5c1.3-0.2,2.2-1.9,1.7-3.1
			c-2.1-5.7-4.8-11.1-8.3-16.1c-1.1-1.5-4.2-1.7-4.6,0.6c-0.9,5.8-0.6,11.3,1.1,16.9c0.5,1.5,2.2,2.3,3.7,1.5
			c2.1-1.2,4.2-3.1,3.7-5.8c-0.4-2.1-2.7-3.9-4.9-3.2c-4.6,1.5-1,9,3.3,5.7c2.5-2-1-5.5-3.5-3.5c-0.1,0.1-0.2,0.2-0.3,0.3
			c0.8-0.2,1.6-0.4,2.4-0.6c0.3,0.3,0.6,0.7,0.9,1c-0.2,0.6-0.5,1.2-0.7,1.8c0.1-0.1,0.2-0.2,0.3-0.3c-0.6,0.2-1.2,0.5-1.8,0.7
			c-0.7-0.8-1.3-0.8-2-0.2c1.2,0.5,2.4,1,3.7,1.5c-1.4-4.7-1.8-9.4-1.1-14.3c-1.5,0.2-3,0.4-4.6,0.6c3.2,4.6,5.9,9.6,7.8,14.9
			c0.6-1,1.2-2.1,1.7-3.1c-3.7,0.5-7.3-0.1-10.7-1.5c0.6,0.8,1.2,1.6,1.8,2.4c0.4-4.8,1.3-9.5,2.5-14.1
			C337.1,128.5,332.3,127.2,331.4,130.3L331.4,130.3z"/>
		<path d="M138.5,117.7c-2.5,3.9-5,7.8-7.5,11.6c-0.7,1-0.3,2.9,0.9,3.4c5,2.2,10.1,2.8,15.5,1.8c1.3-0.2,2.1-1.9,1.7-3.1
			c-1.2-4.5-2.9-8.7-5.2-12.8c-0.8-1.4-2.8-1.6-3.9-0.5c-1.9,1.8-3.8,4-3.2,6.8c0.5,2.3,2.6,4.3,5,4c3.2-0.4,3.2-4.6,0-5
			c-3.4-0.4-6.5,1.4-8.3,4.3c-0.6,1-0.4,2.2,0.4,3c1.4,1.5,3.1,2.2,5.1,2.1c3.2-0.2,3.2-5.2,0-5c-0.7,0.2-1.2,0-1.6-0.6
			c0.1,1,0.3,2,0.4,3c0.9-1.5,2.2-2,4-1.8c0-1.7,0-3.3,0-5c-0.2,0,1.5-2.1,1.7-2.3c-1.3-0.2-2.6-0.3-3.9-0.5
			c2.1,3.7,3.6,7.5,4.7,11.6c0.6-1,1.2-2.1,1.7-3.1c-3.9,0.7-8,0.3-11.6-1.3c0.3,1.1,0.6,2.3,0.9,3.4c2.5-3.9,5-7.8,7.5-11.6
			C144.5,117.6,140.2,115,138.5,117.7L138.5,117.7z"/>
		<path d="M309.9,207.5c-1.7,5.2,0.2,10.2,4.8,13.3c0.9,0.6,2.3,0.4,3-0.4c6-6.6,6-16.3,0.2-23c-1.2-1.3-3-0.7-3.9,0.5
			c-6.6,8.6-7.1,20.3-1.7,29.7c0.8,1.5,2.7,1.6,3.9,0.5c7.4-6.6,7.4-18.7,0-25.4c-1.2-1-3.1-1-3.9,0.5c-3.6,6.4-2.6,13.8,2.4,19.2
			c0.9,0.9,2.7,1,3.5,0c3-3.4,3.5-7.6,1.1-11.5c-0.9-1.4-2.7-1.6-3.9-0.5c-4,3.5-4.8,8.6-2.5,13.3c1.1,2.1,3.8,1.2,4.6-0.6
			c1.4-3.3,1.6-6.3,1.1-9.8c-0.4-2.8-5-2.1-4.9,0.7c0,1.4,0,2.8,0.1,4.2c0,3.2,5,3.2,5,0c0-1.4,0-2.8-0.1-4.2
			c-1.6,0.2-3.3,0.4-4.9,0.7c0.4,2.6-0.1,4.8-1.1,7.2c1.5-0.2,3-0.4,4.6-0.6c-1.4-2.8-0.6-5.3,1.7-7.2c-1.3-0.2-2.6-0.3-3.9-0.5
			c1.4,1.8,1.3,3.6-0.3,5.4c1.2,0,2.4,0,3.5,0c-3.4-3.7-4-8.7-1.6-13.1c-1.3,0.2-2.6,0.3-3.9,0.5c5.5,4.9,5.4,13.4,0,18.3
			c1.3,0.2,2.6,0.3,3.9,0.5c-4.6-8-3.8-17.4,1.7-24.6c-1.3,0.2-2.6,0.3-3.9,0.5c4,4.6,3.9,11.4-0.2,15.9c1-0.1,2-0.3,3-0.4
			c-2.8-1.8-3.5-4.6-2.5-7.6C315.7,205.8,310.9,204.5,309.9,207.5L309.9,207.5z"/>
		<path d="M160.5,207.5c-1.7,5.2,0.2,10.2,4.8,13.3c0.9,0.6,2.3,0.4,3-0.4c6-6.6,6-16.3,0.2-23c-1.2-1.3-3-0.7-3.9,0.5
			c-6.6,8.6-7.1,20.3-1.7,29.7c0.8,1.5,2.7,1.6,3.9,0.5c7.4-6.6,7.4-18.7,0-25.4c-1.2-1-3.1-1-3.9,0.5c-3.6,6.4-2.6,13.8,2.4,19.2
			c0.9,0.9,2.7,1,3.5,0c3-3.4,3.5-7.6,1.1-11.5c-0.9-1.4-2.7-1.6-3.9-0.5c-4,3.5-4.8,8.6-2.5,13.3c1.1,2.1,3.8,1.2,4.6-0.6
			c1.4-3.3,1.6-6.3,1.1-9.8c-0.4-2.8-5-2.1-4.9,0.7c0,1.4,0,2.8,0.1,4.2c0,3.2,5,3.2,5,0c0-1.4,0-2.8-0.1-4.2
			c-1.6,0.2-3.3,0.4-4.9,0.7c0.4,2.6-0.1,4.8-1.1,7.2c1.5-0.2,3-0.4,4.6-0.6c-1.4-2.8-0.6-5.3,1.7-7.2c-1.3-0.2-2.6-0.3-3.9-0.5
			c1.4,1.8,1.3,3.6-0.3,5.4c1.2,0,2.4,0,3.5,0c-3.4-3.7-4-8.7-1.6-13.1c-1.3,0.2-2.6,0.3-3.9,0.5c5.5,4.9,5.4,13.4,0,18.3
			c1.3,0.2,2.6,0.3,3.9,0.5c-4.6-8-3.8-17.4,1.7-24.6c-1.3,0.2-2.6,0.3-3.9,0.5c4,4.6,3.9,11.4-0.2,15.9c1-0.1,2-0.3,3-0.4
			c-2.8-1.8-3.5-4.6-2.5-7.6C166.3,205.8,161.5,204.5,160.5,207.5L160.5,207.5z"/>
		<path d="M238.3,236.7c-5.3-4.3-11.1,3.2-6.6,8c5,5.3,14.4,2.7,18.4-2.5c4.5-5.8-4-11-9.4-10.5c-6.2,0.7-9.3,7.1-6.9,12.7
			c2.4,5.6,9.4,6.8,13.2,1.9c3.9-4.9,1.3-13.4-5.9-12.4c-5.9,0.8-6.5,10.4-0.1,10.5c5.6,0.1,6.1-8.5,1.2-10.2
			c-7.8-2.8-12.2,10.5-4.6,13.5c6.4,2.5,9.7-8,3.3-9.3c-1.2-0.2-2.1,0.2-2.8,1.1c-1.6,2.2-1.6,4.8-0.1,7c0.7,1,1.7,1.3,2.8,1.1
			c8.4-1.3,3.3-16.1-5.2-10.2c-3.8,2.7-4,7.7-1.6,11.3c2.8,4,8,5.8,12.7,5.1c9-1.3,14.3-13.9,5.7-19.6c-7.3-4.8-19,0.6-20.9,8.8
			c-1.2,5.1,2.9,9.1,7.9,8.8c5.7-0.3,8.6-5.7,10-10.5c0.4-1.4-0.5-2.6-1.7-3.1c-4.6-1.8-12.6,2.4-9.4,7.9c1.1,1.9,3.8,4.5,6.3,4
			c3.2-0.6,6-5,7.3-7.6c1.4-2.9-2.9-5.4-4.3-2.5c-1.2,2.4-2.7,4.1-5,5.5c0.8,0,1.7,0,2.5,0c-1.1-0.5-2.9-1.1-2.1-2.2
			c0.6-0.9,2.5-0.6,3.3-0.3c-0.6-1-1.2-2.1-1.7-3.1c-0.6,2.1-1.5,5-3.6,6.2c-1.5,0.9-2.7,1-3.9-0.4c-1.3-1.5-0.6-2.6,0.4-4
			c2.1-3.1,6.8-5.1,10.4-4.1c5.4,1.5,4.4,8.5,0,10.6c-2.4,1.2-5.4,0.9-7.7-0.4c-1-0.6-2.2-1.5-2.7-2.6c-0.1-0.8-0.2-1.6-0.4-2.3
			c2.9-1.4,3.6-1.5,2-0.2c0.9,0.4,1.9,0.8,2.8,1.1c0-0.7,0.1-1.3,0.1-2c-0.9,0.4-1.9,0.8-2.8,1.1c-2.3-0.5-0.5-3.9,1.3-4.2
			c2-0.3,3.1,0.7,2.9,2.6c-0.3,3.1-4,3.9-5.4,1.2c-3.2-6.1,6-7.9,8.6-2.4c0-0.8,0-1.7,0-2.5c-1.2,2.1-3.1,3.7-5.5,4.4
			c-0.9,0.2-1.8,0.4-2.7,0.3c-2.5-0.1-2.4-0.8-4.2-2.3C237.2,242.2,240.8,238.7,238.3,236.7L238.3,236.7z"/>
		<path d="M207.4,260.3c-3.7,14.8,8.8,28.5,23.9,25.3c15.8-3.4,18.2-21.6,18.7-34.9c0.1-3.3-4.6-3.1-5,0c-1.7,12.5-2,36.3,12.6,42.1
			c6.2,2.5,13.2-0.1,17.7-4.8c5.5-5.7,6.8-13.8,7.7-21.4c0.4-3.2-4.6-3.2-5,0c-0.7,6.2-1.8,13.1-6.3,17.8c-4.4,4.6-11.3,6-16,1.1
			c-7.9-8.3-7.1-24.4-5.7-34.8c-1.7,0-3.3,0-5,0c-0.4,9.6-1.1,22.6-10.3,28.3c-12,7.3-25.8-4.3-22.5-17.3
			C213,258.5,208.2,257.2,207.4,260.3L207.4,260.3z"/>
		<path d="M201.7,141c-2.3,10.4-2.6,21.2-0.4,31.7c1.3,6.2,5,14.3,12.6,13.5c7.5-0.8,10.3-9.7,11.6-15.9c2.4-10.9,2.4-22.1,0.4-33.1
			c-0.3-1.5-2.4-2.4-3.7-1.5c-4.9,3.5-10.2,6.1-16,7.8c0.8,1.4,1.6,2.8,2.4,4.2c1.8-1.7,3.8-2.3,6.2-2.1c-0.6-1.4-1.2-2.8-1.8-4.3
			c-4.6,5-7.7,10.8-9.3,17.4c-0.6,2.3,2.4,4.3,4.2,2.4c5-5.3,10-10.7,15-16c-1.2-1.2-2.4-2.4-3.5-3.5c-6.6,7.7-10.8,16.7-12.1,26.7
			c-0.3,2.6,3.1,4.6,4.6,1.9c3.6-6.4,7.2-12.8,10.8-19.3c-1.5-0.6-3-1.3-4.6-1.9c-3.2,8.4-6.5,16.8-9.7,25.2c-1,2.6,3.3,4.4,4.6,1.9
			c3.4-6.9,6.9-13.7,10.3-20.6c-1.6-0.4-3.1-0.8-4.7-1.3c-0.7,10-3.7,19.4-9,28c1.3-0.2,2.6-0.3,3.9-0.5c-9.3-12-5.9-28.6-2.8-42.2
			c-1.6-0.2-3.3-0.4-4.9-0.7c0,5.3-0.5,10.7,0,16c0.2,2.9,1.4,5.8,4.5,6.6c8,1.9,11.8-13.9,13.3-19c-1.6-0.2-3.3-0.4-4.9-0.7
			c1.4,11.6-0.7,23-6.2,33.4c1.1-0.3,2.3-0.6,3.4-0.9c-1.4-0.8-2.1-2-2.1-3.5c-0.5-3.2-5.3-1.8-4.8,1.3c0.5,2.9,2,4.9,4.4,6.5
			c1.1,0.7,2.8,0.3,3.4-0.9c5.9-11.1,8.3-23.4,6.8-35.9c-0.3-2.7-4.1-3.6-4.9-0.7c-0.6,2-5.3,16.6-7.8,14.4
			c-0.9-0.8-0.1-6.3-0.1-7.5c0-3.1,0-6.1,0.1-9.2c0-2.8-4.3-3.5-4.9-0.7c-3.5,15.7-6.5,33.4,4.1,47c1,1.3,3.2,0.7,3.9-0.5
			c5.8-9.3,9-19.6,9.7-30.5c0.2-2.4-3.6-3.4-4.7-1.3c-3.4,6.9-6.9,13.7-10.3,20.6c1.5,0.6,3,1.3,4.6,1.9c3.2-8.4,6.5-16.8,9.7-25.2
			c1-2.7-3.2-4.4-4.6-1.9c-3.6,6.4-7.2,12.8-10.8,19.3c1.5,0.6,3,1.3,4.6,1.9c1.2-9.1,4.8-17.5,10.8-24.5c2.1-2.4-1.3-5.9-3.5-3.5
			c-5,5.3-10,10.7-15,16c1.4,0.8,2.8,1.6,4.2,2.4c1.4-5.8,4-10.8,8-15.2c1.5-1.7,0.4-4.1-1.8-4.3c-3.8-0.2-6.9,1-9.7,3.6
			c-1.8,1.7,0.1,4.9,2.4,4.2c6.2-1.8,11.9-4.6,17.2-8.3c-1.2-0.5-2.4-1-3.7-1.5c1.4,7.7,1.7,15.6,0.8,23.4
			c-0.6,5.2-1.6,16.1-7.1,18.9c-7.4,3.7-9.2-11.2-9.7-15.1c-0.9-7.8-0.3-15.6,1.3-23.3C207.2,139.2,202.4,137.8,201.7,141L201.7,141
			z"/>
		<path d="M242.7,142.6c-3.3,10.4-4.6,22.4-1.6,33c1.8,6.5,6.8,13.8,14.5,12.3c8-1.6,10.7-11.2,12.5-18c2.6-9.8,4.2-19.8-0.3-29.3
			c-0.9-2-4-1.4-4.6,0.6c-3,11.3-6.8,22.4-11.4,33.2c1.5,0.6,3,1.3,4.6,1.9c2.2-10.4,4.3-20.8,6.5-31.2c0.6-2.8-3-4.4-4.6-1.9
			c-4.2,6.5-8.4,13.1-12.5,19.6c1.4,0.8,2.9,1.7,4.3,2.5c2.7-5.2,4.3-10.5,4.7-16.3c0.1-1.5-1.2-2.3-2.5-2.5
			c-2.8-0.4-4.7,0.5-6.7,2.4c1.3,1,2.6,2,3.9,3c1.6-3.5,2-6.7,1.3-10.5c-0.5-2.6-4.1-2.1-4.8,0c-4.9,13.4-9.2,32.3,6,40.9
			c1.3,0.7,3.4,0.1,3.7-1.5c2.1-11.9,3.3-23.9,3.8-36c0.1-2.3-2.7-3.2-4.3-1.8c-8.8,8.2-9.8,20.6-10.2,31.9
			c-0.1,2.1,2.9,3.4,4.3,1.8c6.7-8,9.5-17.9,7.9-28.3c-0.3-1.8-3.1-2.5-4.2-1.1c-4.4,5.5-7.3,11.5-8.6,18.4c1.6,0,3.2,0,4.8,0
			c-1.7-7.2,0-14.4,4.8-20c-1.4-0.6-2.8-1.2-4.3-1.8c0.2,5.6-0.1,11.1-0.8,16.7c-0.4,2.9,4.1,3.3,4.9,0.7c1.3-4.4,3.4-7.9,6.4-11.3
			c-1.4-0.4-2.8-0.7-4.2-1.1c4.4,11.1,3.6,23.2-2.5,33.5c-1.4,2.4,2,5.2,3.9,3c9.1-10,12.6-23.5,9.5-36.7c-0.7-2.9-4.6-2-4.9,0.7
			c-1.2,11.4-4.8,22.2-10.7,32.1c1.4,0,2.9,0,4.3,0c-6.6-11.2-0.3-24.5,5.1-34.8c-0.9,0.4-1.9,0.8-2.8,1.1c1.1,0.4,2.1,0.8,3.2,1.2
			c0.4-1.6,0.9-3.2,1.3-4.8c-1.4-0.3-2.8-0.5-4.2-0.8c-3.1-0.6-4.5,4.3-1.3,4.8c1.4,0.3,2.8,0.5,4.2,0.8c3.2,0.6,4.3-3.6,1.3-4.8
			c-1.1-0.4-2.1-0.8-3.2-1.2c-1-0.4-2.4,0.2-2.8,1.1c-6.3,12.1-12.8,26.9-5.1,39.9c1,1.6,3.4,1.6,4.3,0
			c6.4-10.7,10.1-22.3,11.4-34.6c-1.6,0.2-3.3,0.4-4.9,0.7c2.7,11.4-0.4,23.1-8.2,31.8c1.3,1,2.6,2,3.9,3c6.7-11.4,7.9-25,3-37.3
			c-0.7-1.6-2.8-2.6-4.2-1.1c-3.6,3.9-6.2,8.4-7.7,13.5c1.6,0.2,3.3,0.4,4.9,0.7c0.7-5.6,1-11.1,0.8-16.7c-0.1-2-2.8-3.5-4.3-1.8
			c-6,7-8.3,15.8-6.1,24.8c0.5,2.3,4.4,2.4,4.8,0c1.1-6,3.5-11.4,7.3-16.2c-1.4-0.4-2.8-0.7-4.2-1.1c1.3,8.5-1.1,16.9-6.6,23.4
			c1.4,0.6,2.8,1.2,4.3,1.8c0.4-10,1-21.1,8.8-28.4c-1.4-0.6-2.8-1.2-4.3-1.8c-0.4,11.6-1.6,23.2-3.6,34.7c1.2-0.5,2.4-1,3.7-1.5
			c-13.1-7.3-7.8-24.2-3.7-35.3c-1.6,0-3.2,0-4.8,0c0.5,2.4,0.2,4.4-0.8,6.6c-1.1,2.5,1.8,5.1,3.9,3c1.1-0.3,2.1-0.6,3.2-0.9
			c-0.8-0.8-1.7-1.7-2.5-2.5c-0.4,5-1.7,9.4-4,13.8c-1.5,2.8,2.6,5.2,4.3,2.5c4.2-6.5,8.4-13.1,12.5-19.6c-1.5-0.6-3-1.3-4.6-1.9
			c-2.2,10.4-4.3,20.8-6.5,31.2c-0.5,2.6,3.4,4.7,4.6,1.9c4.8-11.2,8.8-22.6,11.9-34.4c-1.5,0.2-3,0.4-4.6,0.6
			c3.3,7.1,2.4,14.8,0.6,22.2c-1.3,5.3-2.9,15.6-9,17.4c-7.6,2.2-9.8-9.8-10.3-14.9c-0.8-8.1,0.2-16.2,2.7-23.9
			C248.5,140.9,243.6,139.6,242.7,142.6L242.7,142.6z"/>
		<path d="M282.5,145.4c-3.3,10.5-4.4,21.4-3,32.3c1,7.5,3.8,16.9,13.3,15.7c8.5-1.1,12.2-9.8,13.9-17.1c2.6-10.6,2.3-21.6-0.5-32.1
			c-0.7-2.8-4.7-2.1-4.9,0.7c-0.9,13.8-4.2,27.1-9.5,39.8c1.6,0.2,3.3,0.4,4.9,0.7c-0.7-11.7,1.3-23.1,5.7-33.9
			c-1.6-0.4-3.2-0.9-4.8-1.3c-2.6,7.9-5.3,15.8-7.9,23.7c1.6,0.4,3.2,0.9,4.8,1.3c2.4-9.5,4.9-18.9,7.3-28.4
			c0.6-2.5-2.3-4.1-4.2-2.4c-6.4,5.8-10.7,13.3-12.4,21.8c-0.5,2.7,3.1,4.5,4.6,1.9c3.6-6.4,6.2-13.1,7.7-20.3
			c0.4-1.8-1.2-3.7-3.1-3.1c-5,1.6-8.4,5.2-9.4,10.4c-0.5,2.7,3.1,4.5,4.6,1.9c2.3-3.9,2.3-7.9,0-11.8c-1.1-2-3.9-1.4-4.6,0.6
			c-4.8,13.9-3.8,28.8,2.4,42.1c0.9,1.9,4.2,1.5,4.6-0.6c1.5-8.5,1.9-16.9,0.9-25.5c-0.3-2.7-4.1-3.6-4.9-0.7
			c-2.6,9-1.9,17.9,1.8,26.4c1,2.4,4.6,1,4.7-1.3c0-4,0.9-7.6,2.7-11.2c-1.5-0.6-3-1.3-4.6-1.9c-1.4,4.4-2.8,8.8-4.2,13.2
			c-0.7,2.1,1.8,3.9,3.7,2.8c11.7-7.2,17.1-21.8,12.6-34.8c-1-3-5.9-1.7-4.8,1.3c3.7,10.9-0.5,23.1-10.3,29.1
			c1.2,0.9,2.4,1.9,3.7,2.8c1.4-4.4,2.8-8.8,4.2-13.2c0.8-2.7-3.3-4.5-4.6-1.9c-2.2,4.4-3.3,8.8-3.4,13.8c1.6-0.4,3.1-0.8,4.7-1.3
			c-3.1-7.3-3.5-15-1.3-22.6c-1.6-0.2-3.3-0.4-4.9-0.7c0.9,8.1,0.7,16.1-0.7,24.1c1.5-0.2,3-0.4,4.6-0.6
			c-5.7-12.1-6.2-25.6-1.9-38.2c-1.5,0.2-3,0.4-4.6,0.6c1.3,2.3,1.3,4.5,0,6.8c1.5,0.6,3,1.3,4.6,1.9c0.7-3.4,2.6-5.8,5.9-6.9
			c-1-1-2.1-2.1-3.1-3.1c-1.4,6.8-3.8,13.1-7.2,19.1c1.5,0.6,3,1.3,4.6,1.9c1.6-7.7,5.3-14.3,11.1-19.6c-1.4-0.8-2.8-1.6-4.2-2.4
			c-2.4,9.5-4.9,18.9-7.3,28.4c-0.8,3.1,3.8,4.4,4.8,1.3c2.6-7.9,5.3-15.8,7.9-23.7c1-3.1-3.6-4.2-4.8-1.3
			c-4.6,11.2-6.6,23.1-5.9,35.2c0.2,3,3.8,3.2,4.9,0.7c5.5-13.1,8.7-26.9,9.6-41.1c-1.6,0.2-3.3,0.4-4.9,0.7
			c1.9,7.3,2.6,14.8,1.8,22.3c-0.7,6.5-2.4,18-9.7,20.4c-9.4,3.1-9.6-13-9.7-18.5c-0.2-7.8,1.1-15.5,3.4-23
			C288.3,143.7,283.5,142.4,282.5,145.4L282.5,145.4z"/>
		<path d="M362,262.3c9.3-3.3,18.9-3,28,0.6c3,1.2,4.3-3.6,1.3-4.8c-9.9-4-20.6-4.2-30.7-0.6C357.7,258.5,359,263.4,362,262.3
			L362,262.3z"/>
		<path d="M361.3,281c9.7,0.2,18.7,3.8,25.9,10.4c2.4,2.2,5.9-1.4,3.5-3.5c-8.1-7.5-18.3-11.6-29.4-11.9
			C358.1,275.9,358.1,280.9,361.3,281L361.3,281z"/>
		<path d="M357.9,297.5c7.2,2.6,13,7.7,16.6,14.4c1.5,2.8,5.8,0.3,4.3-2.5c-4.3-7.9-11.2-13.7-19.6-16.7
			C356.2,291.5,354.8,296.4,357.9,297.5L357.9,297.5z"/>
		<path d="M80.7,253.1c10.9-4.4,22.9-4.6,33.8,0.1c2.9,1.2,5.5-3.1,2.5-4.3c-12.1-5.2-25.4-5.6-37.7-0.6
			C76.5,249.5,77.7,254.3,80.7,253.1L80.7,253.1z"/>
		<path d="M93.3,270.8c6.8-4,14.1-5.9,22-5.7c3.2,0.1,3.2-4.9,0-5c-8.7-0.2-17.1,2-24.6,6.4C88,268.1,90.5,272.4,93.3,270.8
			L93.3,270.8z"/>
		<path d="M95.7,291.5c8-6.4,17.1-10.7,27.1-13c3.1-0.7,1.8-5.5-1.3-4.8c-10.8,2.5-20.6,7.3-29.3,14.3
			C89.6,290,93.2,293.5,95.7,291.5L95.7,291.5z"/>
	</g>
	
</g>

</svg>
