<?xml version="1.0" encoding="utf-8"?>
<!-- Generator: Adobe Illustrator 21.1.0, SVG Export Plug-In . SVG Version: 6.00 Build 0)  -->
<svg version="1.1" id="Layer_1" xmlns="http://www.w3.org/2000/svg" xmlns:xlink="http://www.w3.org/1999/xlink" x="0px" y="0px"
	 viewBox="0 0 1200 1200" style="enable-background:new 0 0 1200 1200;" xml:space="preserve">
<style type="text/css">
	.st0{fill:#FFFFFF;}
	.st1{fill:#FFFF00;}
</style>
<g>
	<g>
		<path d="M305.8,354c-25.6,8-54.2,8.9-80.8,7c-24.7-1.8-49.9-7.3-71.6-19.7c-23.2-13.2-42.1-34.6-47.5-61.1
			c-6.2-30.7-5.3-63.5,0.5-94.2c6.6-34.9,20.1-68.1,39.8-97.7c-1.4,0-2.9,0-4.3,0c4.3,7.5,8.5,15.1,12.8,22.6
			c3.7,6.5,6.9,13.5,11.4,19.5c3.9,5.2,8.8,7.2,15.2,7.7c8.7,0.8,17.5,1.1,26.3,1.7c17.4,1.1,34.8,2.2,52.2,3.4
			c8.9,0.6,17.7,1.1,26.6,1.7c6.9,0.4,14.7,2,21.5,0.1c7.1-2.1,9.9-8.8,13.1-14.9c4.5-8.7,9.1-17.4,13.6-26
			c-1.3,0.2-2.6,0.3-3.9,0.5c25.8,33.2,41.5,73.8,45.2,115.7c3.1,35.7-0.7,76.5-25,104.8C338.8,338.9,323.1,348.4,305.8,354
			c-3,1-1.7,5.8,1.3,4.8c33.1-10.8,57.5-35.2,67.6-68.6c12.1-39.9,7.8-85.7-5.7-124.6c-8.1-23.3-19.9-45.1-35.1-64.6
			c-1-1.3-3.2-0.8-3.9,0.5c-4.4,8.4-8.8,16.8-13.2,25.2c-2,3.7-3.8,8.8-7.1,11.6c-3.5,3-8.4,2.5-12.7,2.3c-20-1.1-40-2.6-60-3.9
			c-9.8-0.6-19.7-1.3-29.5-1.9c-4.9-0.3-9.8-0.6-14.8-1c-4.9-0.3-10.2-0.1-15-1.2c-8.9-2.1-12.8-13.8-16.9-20.9
			c-4.9-8.7-9.8-17.3-14.7-26c-1-1.7-3.3-1.5-4.3,0c-36.1,54.1-51.5,121.1-42.5,185.6c2.2,15.8,6.7,29.9,16.1,42.9
			c7.2,9.9,16,18.5,26.1,25.5c20.9,14.7,46.2,21.9,71.3,25c14.5,1.8,29.1,2.2,43.6,1.6c17.1-0.7,34.2-2.5,50.6-7.6
			C310.2,357.9,308.9,353,305.8,354z"/>
		<path d="M331.4,130.3c-1.4,5.1-2.3,10.2-2.7,15.4c-0.1,1.2,0.9,2,1.8,2.4c4.4,1.8,8.8,2.1,13.4,1.5c1.3-0.2,2.2-1.9,1.7-3.1
			c-2.1-5.7-4.8-11.1-8.3-16.1c-1.1-1.5-4.2-1.7-4.6,0.6c-0.9,5.8-0.6,11.3,1.1,16.9c0.5,1.5,2.2,2.3,3.7,1.5
			c2.1-1.2,4.2-3.1,3.7-5.8c-0.4-2.1-2.7-3.9-4.9-3.2c-4.6,1.5-1,9,3.3,5.7c2.5-2-1-5.5-3.5-3.5c-0.1,0.1-0.2,0.2-0.3,0.3
			c0.8-0.2,1.6-0.4,2.4-0.6c0.3,0.3,0.6,0.7,0.9,1c-0.2,0.6-0.5,1.2-0.7,1.8c0.1-0.1,0.2-0.2,0.3-0.3c-0.6,0.2-1.2,0.5-1.8,0.7
			c-0.7-0.8-1.3-0.8-2-0.2c1.2,0.5,2.4,1,3.7,1.5c-1.4-4.7-1.8-9.4-1.1-14.3c-1.5,0.2-3,0.4-4.6,0.6c3.2,4.6,5.9,9.6,7.8,14.9
			c0.6-1,1.2-2.1,1.7-3.1c-3.7,0.5-7.3-0.1-10.7-1.5c0.6,0.8,1.2,1.6,1.8,2.4c0.4-4.8,1.3-9.5,2.5-14.1
			C337.1,128.5,332.3,127.2,331.4,130.3L331.4,130.3z"/>
		<path d="M138.5,117.7c-2.5,3.9-5,7.8-7.5,11.6c-0.7,1-0.3,2.9,0.9,3.4c5,2.2,10.1,2.8,15.5,1.8c1.3-0.2,2.1-1.9,1.7-3.1
			c-1.2-4.5-2.9-8.7-5.2-12.8c-0.8-1.4-2.8-1.6-3.9-0.5c-1.9,1.8-3.8,4-3.2,6.8c0.5,2.3,2.6,4.3,5,4c3.2-0.4,3.2-4.6,0-5
			c-3.4-0.4-6.5,1.4-8.3,4.3c-0.6,1-0.4,2.2,0.4,3c1.4,1.5,3.1,2.2,5.1,2.1c3.2-0.2,3.2-5.2,0-5c-0.7,0.2-1.2,0-1.6-0.6
			c0.1,1,0.3,2,0.4,3c0.9-1.5,2.2-2,4-1.8c0-1.7,0-3.3,0-5c-0.2,0,1.5-2.1,1.7-2.3c-1.3-0.2-2.6-0.3-3.9-0.5
			c2.1,3.7,3.6,7.5,4.7,11.6c0.6-1,1.2-2.1,1.7-3.1c-3.9,0.7-8,0.3-11.6-1.3c0.3,1.1,0.6,2.3,0.9,3.4c2.5-3.9,5-7.8,7.5-11.6
			C144.5,117.6,140.2,115,138.5,117.7L138.5,117.7z"/>
		<path d="M309.9,207.5c-1.7,5.2,0.2,10.2,4.8,13.3c0.9,0.6,2.3,0.4,3-0.4c6-6.6,6-16.3,0.2-23c-1.2-1.3-3-0.7-3.9,0.5
			c-6.6,8.6-7.1,20.3-1.7,29.7c0.8,1.5,2.7,1.6,3.9,0.5c7.4-6.6,7.4-18.7,0-25.4c-1.2-1-3.1-1-3.9,0.5c-3.6,6.4-2.6,13.8,2.4,19.2
			c0.9,0.9,2.7,1,3.5,0c3-3.4,3.5-7.6,1.1-11.5c-0.9-1.4-2.7-1.6-3.9-0.5c-4,3.5-4.8,8.6-2.5,13.3c1.1,2.1,3.8,1.2,4.6-0.6
			c1.4-3.3,1.6-6.3,1.1-9.8c-0.4-2.8-5-2.1-4.9,0.7c0,1.4,0,2.8,0.1,4.2c0,3.2,5,3.2,5,0c0-1.4,0-2.8-0.1-4.2
			c-1.6,0.2-3.3,0.4-4.9,0.7c0.4,2.6-0.1,4.8-1.1,7.2c1.5-0.2,3-0.4,4.6-0.6c-1.4-2.8-0.6-5.3,1.7-7.2c-1.3-0.2-2.6-0.3-3.9-0.5
			c1.4,1.8,1.3,3.6-0.3,5.4c1.2,0,2.4,0,3.5,0c-3.4-3.7-4-8.7-1.6-13.1c-1.3,0.2-2.6,0.3-3.9,0.5c5.5,4.9,5.4,13.4,0,18.3
			c1.3,0.2,2.6,0.3,3.9,0.5c-4.6-8-3.8-17.4,1.7-24.6c-1.3,0.2-2.6,0.3-3.9,0.5c4,4.6,3.9,11.4-0.2,15.9c1-0.1,2-0.3,3-0.4
			c-2.8-1.8-3.5-4.6-2.5-7.6C315.7,205.8,310.9,204.5,309.9,207.5L309.9,207.5z"/>
		<path d="M160.5,207.5c-1.7,5.2,0.2,10.2,4.8,13.3c0.9,0.6,2.3,0.4,3-0.4c6-6.6,6-16.3,0.2-23c-1.2-1.3-3-0.7-3.9,0.5
			c-6.6,8.6-7.1,20.3-1.7,29.7c0.8,1.5,2.7,1.6,3.9,0.5c7.4-6.6,7.4-18.7,0-25.4c-1.2-1-3.1-1-3.9,0.5c-3.6,6.4-2.6,13.8,2.4,19.2
			c0.9,0.9,2.7,1,3.5,0c3-3.4,3.5-7.6,1.1-11.5c-0.9-1.4-2.7-1.6-3.9-0.5c-4,3.5-4.8,8.6-2.5,13.3c1.1,2.1,3.8,1.2,4.6-0.6
			c1.4-3.3,1.6-6.3,1.1-9.8c-0.4-2.8-5-2.1-4.9,0.7c0,1.4,0,2.8,0.1,4.2c0,3.2,5,3.2,5,0c0-1.4,0-2.8-0.1-4.2
			c-1.6,0.2-3.3,0.4-4.9,0.7c0.4,2.6-0.1,4.8-1.1,7.2c1.5-0.2,3-0.4,4.6-0.6c-1.4-2.8-0.6-5.3,1.7-7.2c-1.3-0.2-2.6-0.3-3.9-0.5
			c1.4,1.8,1.3,3.6-0.3,5.4c1.2,0,2.4,0,3.5,0c-3.4-3.7-4-8.7-1.6-13.1c-1.3,0.2-2.6,0.3-3.9,0.5c5.5,4.9,5.4,13.4,0,18.3
			c1.3,0.2,2.6,0.3,3.9,0.5c-4.6-8-3.8-17.4,1.7-24.6c-1.3,0.2-2.6,0.3-3.9,0.5c4,4.6,3.9,11.4-0.2,15.9c1-0.1,2-0.3,3-0.4
			c-2.8-1.8-3.5-4.6-2.5-7.6C166.3,205.8,161.5,204.5,160.5,207.5L160.5,207.5z"/>
		<path d="M238.3,236.7c-5.3-4.3-11.1,3.2-6.6,8c5,5.3,14.4,2.7,18.4-2.5c4.5-5.8-4-11-9.4-10.5c-6.2,0.7-9.3,7.1-6.9,12.7
			c2.4,5.6,9.4,6.8,13.2,1.9c3.9-4.9,1.3-13.4-5.9-12.4c-5.9,0.8-6.5,10.4-0.1,10.5c5.6,0.1,6.1-8.5,1.2-10.2
			c-7.8-2.8-12.2,10.5-4.6,13.5c6.4,2.5,9.7-8,3.3-9.3c-1.2-0.2-2.1,0.2-2.8,1.1c-1.6,2.2-1.6,4.8-0.1,7c0.7,1,1.7,1.3,2.8,1.1
			c8.4-1.3,3.3-16.1-5.2-10.2c-3.8,2.7-4,7.7-1.6,11.3c2.8,4,8,5.8,12.7,5.1c9-1.3,14.3-13.9,5.7-19.6c-7.3-4.8-19,0.6-20.9,8.8
			c-1.2,5.1,2.9,9.1,7.9,8.8c5.7-0.3,8.6-5.7,10-10.5c0.4-1.4-0.5-2.6-1.7-3.1c-4.6-1.8-12.6,2.4-9.4,7.9c1.1,1.9,3.8,4.5,6.3,4
			c3.2-0.6,6-5,7.3-7.6c1.4-2.9-2.9-5.4-4.3-2.5c-1.2,2.4-2.7,4.1-5,5.5c0.8,0,1.7,0,2.5,0c-1.1-0.5-2.9-1.1-2.1-2.2
			c0.6-0.9,2.5-0.6,3.3-0.3c-0.6-1-1.2-2.1-1.7-3.1c-0.6,2.1-1.5,5-3.6,6.2c-1.5,0.9-2.7,1-3.9-0.4c-1.3-1.5-0.6-2.6,0.4-4
			c2.1-3.1,6.8-5.1,10.4-4.1c5.4,1.5,4.4,8.5,0,10.6c-2.4,1.2-5.4,0.9-7.7-0.4c-1-0.6-2.2-1.5-2.7-2.6c-0.1-0.8-0.2-1.6-0.4-2.3
			c2.9-1.4,3.6-1.5,2-0.2c0.9,0.4,1.9,0.8,2.8,1.1c0-0.7,0.1-1.3,0.1-2c-0.9,0.4-1.9,0.8-2.8,1.1c-2.3-0.5-0.5-3.9,1.3-4.2
			c2-0.3,3.1,0.7,2.9,2.6c-0.3,3.1-4,3.9-5.4,1.2c-3.2-6.1,6-7.9,8.6-2.4c0-0.8,0-1.7,0-2.5c-1.2,2.1-3.1,3.7-5.5,4.4
			c-0.9,0.2-1.8,0.4-2.7,0.3c-2.5-0.1-2.4-0.8-4.2-2.3C237.2,242.2,240.8,238.7,238.3,236.7L238.3,236.7z"/>
		<path d="M207.4,260.3c-3.7,14.8,8.8,28.5,23.9,25.3c15.8-3.4,18.2-21.6,18.7-34.9c0.1-3.3-4.6-3.1-5,0c-1.7,12.5-2,36.3,12.6,42.1
			c6.2,2.5,13.2-0.1,17.7-4.8c5.5-5.7,6.8-13.8,7.7-21.4c0.4-3.2-4.6-3.2-5,0c-0.7,6.2-1.8,13.1-6.3,17.8c-4.4,4.6-11.3,6-16,1.1
			c-7.9-8.3-7.1-24.4-5.7-34.8c-1.7,0-3.3,0-5,0c-0.4,9.6-1.1,22.6-10.3,28.3c-12,7.3-25.8-4.3-22.5-17.3
			C213,258.5,208.2,257.2,207.4,260.3L207.4,260.3z"/>
		<path d="M201.7,141c-2.3,10.4-2.6,21.2-0.4,31.7c1.3,6.2,5,14.3,12.6,13.5c7.5-0.8,10.3-9.7,11.6-15.9c2.4-10.9,2.4-22.1,0.4-33.1
			c-0.3-1.5-2.4-2.4-3.7-1.5c-4.9,3.5-10.2,6.1-16,7.8c0.8,1.4,1.6,2.8,2.4,4.2c1.8-1.7,3.8-2.3,6.2-2.1c-0.6-1.4-1.2-2.8-1.8-4.3
			c-4.6,5-7.7,10.8-9.3,17.4c-0.6,2.3,2.4,4.3,4.2,2.4c5-5.3,10-10.7,15-16c-1.2-1.2-2.4-2.4-3.5-3.5c-6.6,7.7-10.8,16.7-12.1,26.7
			c-0.3,2.6,3.1,4.6,4.6,1.9c3.6-6.4,7.2-12.8,10.8-19.3c-1.5-0.6-3-1.3-4.6-1.9c-3.2,8.4-6.5,16.8-9.7,25.2c-1,2.6,3.3,4.4,4.6,1.9
			c3.4-6.9,6.9-13.7,10.3-20.6c-1.6-0.4-3.1-0.8-4.7-1.3c-0.7,10-3.7,19.4-9,28c1.3-0.2,2.6-0.3,3.9-0.5c-9.3-12-5.9-28.6-2.8-42.2
			c-1.6-0.2-3.3-0.4-4.9-0.7c0,5.3-0.5,10.7,0,16c0.2,2.9,1.4,5.8,4.5,6.6c8,1.9,11.8-13.9,13.3-19c-1.6-0.2-3.3-0.4-4.9-0.7
			c1.4,11.6-0.7,23-6.2,33.4c1.1-0.3,2.3-0.6,3.4-0.9c-1.4-0.8-2.1-2-2.1-3.5c-0.5-3.2-5.3-1.8-4.8,1.3c0.5,2.9,2,4.9,4.4,6.5
			c1.1,0.7,2.8,0.3,3.4-0.9c5.9-11.1,8.3-23.4,6.8-35.9c-0.3-2.7-4.1-3.6-4.9-0.7c-0.6,2-5.3,16.6-7.8,14.4
			c-0.9-0.8-0.1-6.3-0.1-7.5c0-3.1,0-6.1,0.1-9.2c0-2.8-4.3-3.5-4.9-0.7c-3.5,15.7-6.5,33.4,4.1,47c1,1.3,3.2,0.7,3.9-0.5
			c5.8-9.3,9-19.6,9.7-30.5c0.2-2.4-3.6-3.4-4.7-1.3c-3.4,6.9-6.9,13.7-10.3,20.6c1.5,0.6,3,1.3,4.6,1.9c3.2-8.4,6.5-16.8,9.7-25.2
			c1-2.7-3.2-4.4-4.6-1.9c-3.6,6.4-7.2,12.8-10.8,19.3c1.5,0.6,3,1.3,4.6,1.9c1.2-9.1,4.8-17.5,10.8-24.5c2.1-2.4-1.3-5.9-3.5-3.5
			c-5,5.3-10,10.7-15,16c1.4,0.8,2.8,1.6,4.2,2.4c1.4-5.8,4-10.8,8-15.2c1.5-1.7,0.4-4.1-1.8-4.3c-3.8-0.2-6.9,1-9.7,3.6
			c-1.8,1.7,0.1,4.9,2.4,4.2c6.2-1.8,11.9-4.6,17.2-8.3c-1.2-0.5-2.4-1-3.7-1.5c1.4,7.7,1.7,15.6,0.8,23.4
			c-0.6,5.2-1.6,16.1-7.1,18.9c-7.4,3.7-9.2-11.2-9.7-15.1c-0.9-7.8-0.3-15.6,1.3-23.3C207.2,139.2,202.4,137.8,201.7,141L201.7,141
			z"/>
		<path d="M242.7,142.6c-3.3,10.4-4.6,22.4-1.6,33c1.8,6.5,6.8,13.8,14.5,12.3c8-1.6,10.7-11.2,12.5-18c2.6-9.8,4.2-19.8-0.3-29.3
			c-0.9-2-4-1.4-4.6,0.6c-3,11.3-6.8,22.4-11.4,33.2c1.5,0.6,3,1.3,4.6,1.9c2.2-10.4,4.3-20.8,6.5-31.2c0.6-2.8-3-4.4-4.6-1.9
			c-4.2,6.5-8.4,13.1-12.5,19.6c1.4,0.8,2.9,1.7,4.3,2.5c2.7-5.2,4.3-10.5,4.7-16.3c0.1-1.5-1.2-2.3-2.5-2.5
			c-2.8-0.4-4.7,0.5-6.7,2.4c1.3,1,2.6,2,3.9,3c1.6-3.5,2-6.7,1.3-10.5c-0.5-2.6-4.1-2.1-4.8,0c-4.9,13.4-9.2,32.3,6,40.9
			c1.3,0.7,3.4,0.1,3.7-1.5c2.1-11.9,3.3-23.9,3.8-36c0.1-2.3-2.7-3.2-4.3-1.8c-8.8,8.2-9.8,20.6-10.2,31.9
			c-0.1,2.1,2.9,3.4,4.3,1.8c6.7-8,9.5-17.9,7.9-28.3c-0.3-1.8-3.1-2.5-4.2-1.1c-4.4,5.5-7.3,11.5-8.6,18.4c1.6,0,3.2,0,4.8,0
			c-1.7-7.2,0-14.4,4.8-20c-1.4-0.6-2.8-1.2-4.3-1.8c0.2,5.6-0.1,11.1-0.8,16.7c-0.4,2.9,4.1,3.3,4.9,0.7c1.3-4.4,3.4-7.9,6.4-11.3
			c-1.4-0.4-2.8-0.7-4.2-1.1c4.4,11.1,3.6,23.2-2.5,33.5c-1.4,2.4,2,5.2,3.9,3c9.1-10,12.6-23.5,9.5-36.7c-0.7-2.9-4.6-2-4.9,0.7
			c-1.2,11.4-4.8,22.2-10.7,32.1c1.4,0,2.9,0,4.3,0c-6.6-11.2-0.3-24.5,5.1-34.8c-0.9,0.4-1.9,0.8-2.8,1.1c1.1,0.4,2.1,0.8,3.2,1.2
			c0.4-1.6,0.9-3.2,1.3-4.8c-1.4-0.3-2.8-0.5-4.2-0.8c-3.1-0.6-4.5,4.3-1.3,4.8c1.4,0.3,2.8,0.5,4.2,0.8c3.2,0.6,4.3-3.6,1.3-4.8
			c-1.1-0.4-2.1-0.8-3.2-1.2c-1-0.4-2.4,0.2-2.8,1.1c-6.3,12.1-12.8,26.9-5.1,39.9c1,1.6,3.4,1.6,4.3,0
			c6.4-10.7,10.1-22.3,11.4-34.6c-1.6,0.2-3.3,0.4-4.9,0.7c2.7,11.4-0.4,23.1-8.2,31.8c1.3,1,2.6,2,3.9,3c6.7-11.4,7.9-25,3-37.3
			c-0.7-1.6-2.8-2.6-4.2-1.1c-3.6,3.9-6.2,8.4-7.7,13.5c1.6,0.2,3.3,0.4,4.9,0.7c0.7-5.6,1-11.1,0.8-16.7c-0.1-2-2.8-3.5-4.3-1.8
			c-6,7-8.3,15.8-6.1,24.8c0.5,2.3,4.4,2.4,4.8,0c1.1-6,3.5-11.4,7.3-16.2c-1.4-0.4-2.8-0.7-4.2-1.1c1.3,8.5-1.1,16.9-6.6,23.4
			c1.4,0.6,2.8,1.2,4.3,1.8c0.4-10,1-21.1,8.8-28.4c-1.4-0.6-2.8-1.2-4.3-1.8c-0.4,11.6-1.6,23.2-3.6,34.7c1.2-0.5,2.4-1,3.7-1.5
			c-13.1-7.3-7.8-24.2-3.7-35.3c-1.6,0-3.2,0-4.8,0c0.5,2.4,0.2,4.4-0.8,6.6c-1.1,2.5,1.8,5.1,3.9,3c1.1-0.3,2.1-0.6,3.2-0.9
			c-0.8-0.8-1.7-1.7-2.5-2.5c-0.4,5-1.7,9.4-4,13.8c-1.5,2.8,2.6,5.2,4.3,2.5c4.2-6.5,8.4-13.1,12.5-19.6c-1.5-0.6-3-1.3-4.6-1.9
			c-2.2,10.4-4.3,20.8-6.5,31.2c-0.5,2.6,3.4,4.7,4.6,1.9c4.8-11.2,8.8-22.6,11.9-34.4c-1.5,0.2-3,0.4-4.6,0.6
			c3.3,7.1,2.4,14.8,0.6,22.2c-1.3,5.3-2.9,15.6-9,17.4c-7.6,2.2-9.8-9.8-10.3-14.9c-0.8-8.1,0.2-16.2,2.7-23.9
			C248.5,140.9,243.6,139.6,242.7,142.6L242.7,142.6z"/>
		<path d="M282.5,145.4c-3.3,10.5-4.4,21.4-3,32.3c1,7.5,3.8,16.9,13.3,15.7c8.5-1.1,12.2-9.8,13.9-17.1c2.6-10.6,2.3-21.6-0.5-32.1
			c-0.7-2.8-4.7-2.1-4.9,0.7c-0.9,13.8-4.2,27.1-9.5,39.8c1.6,0.2,3.3,0.4,4.9,0.7c-0.7-11.7,1.3-23.1,5.7-33.9
			c-1.6-0.4-3.2-0.9-4.8-1.3c-2.6,7.9-5.3,15.8-7.9,23.7c1.6,0.4,3.2,0.9,4.8,1.3c2.4-9.5,4.9-18.9,7.3-28.4
			c0.6-2.5-2.3-4.1-4.2-2.4c-6.4,5.8-10.7,13.3-12.4,21.8c-0.5,2.7,3.1,4.5,4.6,1.9c3.6-6.4,6.2-13.1,7.7-20.3
			c0.4-1.8-1.2-3.7-3.1-3.1c-5,1.6-8.4,5.2-9.4,10.4c-0.5,2.7,3.1,4.5,4.6,1.9c2.3-3.9,2.3-7.9,0-11.8c-1.1-2-3.9-1.4-4.6,0.6
			c-4.8,13.9-3.8,28.8,2.4,42.1c0.9,1.9,4.2,1.5,4.6-0.6c1.5-8.5,1.9-16.9,0.9-25.5c-0.3-2.7-4.1-3.6-4.9-0.7
			c-2.6,9-1.9,17.9,1.8,26.4c1,2.4,4.6,1,4.7-1.3c0-4,0.9-7.6,2.7-11.2c-1.5-0.6-3-1.3-4.6-1.9c-1.4,4.4-2.8,8.8-4.2,13.2
			c-0.7,2.1,1.8,3.9,3.7,2.8c11.7-7.2,17.1-21.8,12.6-34.8c-1-3-5.9-1.7-4.8,1.3c3.7,10.9-0.5,23.1-10.3,29.1
			c1.2,0.9,2.4,1.9,3.7,2.8c1.4-4.4,2.8-8.8,4.2-13.2c0.8-2.7-3.3-4.5-4.6-1.9c-2.2,4.4-3.3,8.8-3.4,13.8c1.6-0.4,3.1-0.8,4.7-1.3
			c-3.1-7.3-3.5-15-1.3-22.6c-1.6-0.2-3.3-0.4-4.9-0.7c0.9,8.1,0.7,16.1-0.7,24.1c1.5-0.2,3-0.4,4.6-0.6
			c-5.7-12.1-6.2-25.6-1.9-38.2c-1.5,0.2-3,0.4-4.6,0.6c1.3,2.3,1.3,4.5,0,6.8c1.5,0.6,3,1.3,4.6,1.9c0.7-3.4,2.6-5.8,5.9-6.9
			c-1-1-2.1-2.1-3.1-3.1c-1.4,6.8-3.8,13.1-7.2,19.1c1.5,0.6,3,1.3,4.6,1.9c1.6-7.7,5.3-14.3,11.1-19.6c-1.4-0.8-2.8-1.6-4.2-2.4
			c-2.4,9.5-4.9,18.9-7.3,28.4c-0.8,3.1,3.8,4.4,4.8,1.3c2.6-7.9,5.3-15.8,7.9-23.7c1-3.1-3.6-4.2-4.8-1.3
			c-4.6,11.2-6.6,23.1-5.9,35.2c0.2,3,3.8,3.2,4.9,0.7c5.5-13.1,8.7-26.9,9.6-41.1c-1.6,0.2-3.3,0.4-4.9,0.7
			c1.9,7.3,2.6,14.8,1.8,22.3c-0.7,6.5-2.4,18-9.7,20.4c-9.4,3.1-9.6-13-9.7-18.5c-0.2-7.8,1.1-15.5,3.4-23
			C288.3,143.7,283.5,142.4,282.5,145.4L282.5,145.4z"/>
		<path d="M362,262.3c9.3-3.3,18.9-3,28,0.6c3,1.2,4.3-3.6,1.3-4.8c-9.9-4-20.6-4.2-30.7-0.6C357.7,258.5,359,263.4,362,262.3
			L362,262.3z"/>
		<path d="M361.3,281c9.7,0.2,18.7,3.8,25.9,10.4c2.4,2.2,5.9-1.4,3.5-3.5c-8.1-7.5-18.3-11.6-29.4-11.9
			C358.1,275.9,358.1,280.9,361.3,281L361.3,281z"/>
		<path d="M357.9,297.5c7.2,2.6,13,7.7,16.6,14.4c1.5,2.8,5.8,0.3,4.3-2.5c-4.3-7.9-11.2-13.7-19.6-16.7
			C356.2,291.5,354.8,296.4,357.9,297.5L357.9,297.5z"/>
		<path d="M80.7,253.1c10.9-4.4,22.9-4.6,33.8,0.1c2.9,1.2,5.5-3.1,2.5-4.3c-12.1-5.2-25.4-5.6-37.7-0.6
			C76.5,249.5,77.7,254.3,80.7,253.1L80.7,253.1z"/>
		<path d="M93.3,270.8c6.8-4,14.1-5.9,22-5.7c3.2,0.1,3.2-4.9,0-5c-8.7-0.2-17.1,2-24.6,6.4C88,268.1,90.5,272.4,93.3,270.8
			L93.3,270.8z"/>
		<path d="M95.7,291.5c8-6.4,17.1-10.7,27.1-13c3.1-0.7,1.8-5.5-1.3-4.8c-10.8,2.5-20.6,7.3-29.3,14.3
			C89.6,290,93.2,293.5,95.7,291.5L95.7,291.5z"/>
	</g>
	<g>
		<g>
			<path d="M701.2,356.4c-8.8,2.8-18.3,4.7-28.4,5.8c-60.3,6.5-134.5-1.7-167-59.7c-5.3-9.4-7.6-20.3-9.1-31
				c-9.2-63.9,6.1-130.9,42.1-184.5c7,12.3,13.9,24.6,20.9,36.9c2.1,3.8,4.5,7.8,8.3,9.8c2.9,1.6,6.3,1.8,9.7,2
				c38.1,2.5,76.1,4.9,114.2,7.4c4.6,0.3,9.6,0.5,13.4-2.1c2.8-1.9,4.4-5,6-8c5.3-10.1,10.5-20.2,15.8-30.2
				c35.6,45.5,52.2,105.4,45.1,162.7C766.2,313,741.4,343.6,701.2,356.4z"/>
		</g>
		<path class="st0" d="M698.7,206c-2.5,6.2,1,12.8,6.9,15.3c0.8,0.3,1.9-0.1,2.4-0.6c3.8-3.9,7-9,5.7-14.6c-1.1-5-5.7-8.7-10.9-7.5
			c-4.7,1.1-8.2,5.6-8.1,10.4c0.1,5.7,4.6,10,9.6,11.9c0.8,0.3,1.9-0.1,2.4-0.6c4.7-4.7,4.7-12.5-0.1-17.2c-1.3-1.3-3.8-0.8-4.2,1.1
			c-0.7,3.2-0.7,6.3,0.2,9.5c0.9,3.1,5.7,1.8,4.8-1.3c-0.6-2.3-0.7-4.5-0.2-6.9c-1.4,0.4-2.8,0.7-4.2,1.1c2.9,2.8,2.9,7.3,0.1,10.1
			c0.8-0.2,1.6-0.4,2.4-0.6c-2.9-1.1-5.8-3.8-5.9-7.1c-0.1-2.6,1.8-5.2,4.5-5.6c3.2-0.5,4.9,2.9,4.8,5.7c-0.2,3.2-2.4,5.9-4.5,8.1
			c0.8-0.2,1.6-0.4,2.4-0.6c-3.6-1.5-4.8-5.8-3.4-9.2C704.7,204.3,699.9,203,698.7,206L698.7,206z"/>
		<path class="st0" d="M562.4,193.4c-7.9,2.7-3.8,14.8,4,13.8c8.6-1.1,13.2-15.2,5.3-20.1c-8.8-5.5-17.6,10-13.4,17.1
			c5.4,9.3,18,0.9,15.9-8.1c-1.1-4.6-6.2-6.8-10.1-4c-4.7,3.4-2.6,9.7,2.2,11.5c3,1.2,4.3-3.7,1.3-4.8c-3.1-1.2,0.1-4,1.5-2.4
			c0.5,0.6,0.4,1.5,0.4,2.2c-0.2,2-1.7,4.2-3.7,4.6c-3.4,0.7-4-3.5-3.4-5.7c0.6-2.1,2.5-5.2,4.6-6.1c5.2-2.1,3.7,6.8,1.9,8.9
			c-1.2,1.4-3.4,2.9-5,1.3c-0.6-0.6-1.5-3-0.2-3.4C566.8,197.2,565.5,192.3,562.4,193.4L562.4,193.4z"/>
		<path class="st0" d="M626.1,249.9c-0.4,1.4-0.8,2.8-1.3,4.2c-0.3,0.8,0,1.8,0.6,2.4c1.1,1,2.1,2.1,3.2,3.1c0.6,0.6,1.6,1,2.4,0.6
			c4.3-1.7,7.7-4.4,10.2-8.2c0.7-1,0.3-2.2-0.4-3c-2.9-3.8-9.3-3.8-12.3-0.1c-3.1,3.8-1.4,9.9,2.9,12c5,2.4,9.4-6.3,5.6-9.9
			c-4.1-3.9-9.7,2.9-5.1,6.2c2.6,1.9,5.1-2.5,2.5-4.3c1.1,1.4,0.8,2-0.9,1.9c0,0.3-0.1,0.5-0.3,0.7c-0.6,0.6-1.2,1.2-1.9,1.7
			c0.8-0.2,1.6-0.4,2.4-0.6c-1.7-0.6-2.6-3.1-1.4-4.5c1.4-1.6,3.8-0.8,4.9,0.6c-0.1-1-0.3-2-0.4-3c-1.7,2.7-4.2,4.8-7.2,5.9
			c0.8,0.2,1.6,0.4,2.4,0.6c-1.1-1-2.1-2.1-3.2-3.1c0.2,0.8,0.4,1.6,0.6,2.4c0.4-1.4,0.8-2.8,1.3-4.2
			C631.9,248.2,627,246.8,626.1,249.9L626.1,249.9z"/>
		<path class="st0" d="M593.3,283.4c6.1,8,17,8.8,25.6,4.4c11.2-5.7,15.6-19.1,19.1-30.2c-1.6-0.4-3.2-0.9-4.8-1.3
			c-3.3,12.7-1.7,28.4,9.4,36.9c9.3,7.1,24.1,7,31.7-2.6c2-2.5-1.5-6.1-3.5-3.5c-6.3,8-18.6,7.8-26,1.4c-8.7-7.5-9.4-20.5-6.7-30.9
			c0.8-3.1-3.9-4.4-4.8-1.3c-2.7,8.8-5.7,18.8-13.1,24.9c-6.1,5-17.1,6.7-22.5-0.3C595.7,278.4,591.4,280.8,593.3,283.4L593.3,283.4
			z"/>
		<path class="st0" d="M704.3,260.7c9-2.1,18-4.1,27-6.2c3.1-0.7,1.8-5.5-1.3-4.8c-9,2.1-18,4.1-27,6.2
			C699.8,256.6,701.2,261.5,704.3,260.7L704.3,260.7z"/>
		<path class="st0" d="M710.3,278.6c7-1.4,14-2.9,21-4.3c3.1-0.6,1.8-5.5-1.3-4.8c-7,1.4-14,2.9-21,4.3
			C705.8,274.4,707.1,279.2,710.3,278.6L710.3,278.6z"/>
		<path class="st0" d="M563.2,246.8c-8.7-3.6-17.6-6.2-26.9-7.9c-3.1-0.6-4.5,4.2-1.3,4.8c9.3,1.7,18.2,4.3,26.9,7.9
			C564.9,252.8,566.2,248,563.2,246.8L563.2,246.8z"/>
		<path class="st0" d="M526.6,275.5c10.3,0.7,20.5,0.2,30.7-1.4c3.2-0.5,1.8-5.3-1.3-4.8c-9.7,1.5-19.5,1.9-29.3,1.3
			C523.4,270.3,523.4,275.3,526.6,275.5L526.6,275.5z"/>
	</g>
	<g>
		<path d="M122,692.6c-33.7-30.3-50.6-73.5-26-125c1.9-4,27-35.9,27.3-35.2c-6.3-16.7-10.8-34.1-13.6-51.8c21,2.6,36.6,21.8,57.3,26
			c8.7,1.8,17.7,0.7,26.5,0c34.6-2.9,69.5-1.5,103.7,4.3c9.8,1.7,19.6,3.7,29.6,3.5c23.7-0.4,45.3-12.9,65.7-25
			c-0.8,17-7.4,33.6-18.4,46.5c3.5-4.1,31.4,67.7,31.4,77.7C405.5,753.7,204.7,767,122,692.6z"/>
	</g>
	<path d="M516.4,671.7c0.6,15.1,2,31.1,10,44.3c9.1,15.1,25.3,21.9,42,25.1c20.4,3.9,41.5,5.3,62.2,6.1c22.1,0.9,44.2,0.4,66.2-1.3
		c18.2-1.4,39.3-2,54.4-13.6c11.6-8.9,16.5-22.8,17.9-36.9c1.9-18.7-0.7-37.9-1.7-56.6c-1.3-22.6-2.5-45.2-3.8-67.8
		c-2.9-51.2-5.8-102.4-8.7-153.5c-0.1-2-2.7-3.5-4.3-1.8c-11.7,13.2-23.4,26.4-35.1,39.6c-5.9,6.6-11.7,13.2-17.6,19.8
		c-2.3,2.6-4.6,5.4-7.7,7.1c-4,2.2-8.9,2.2-13.3,2.5c-35.5,2.4-70.9,4.8-106.4,7.2c0.8,0.6,1.6,1.2,2.4,1.8
		c-8.8-29.9-26.9-56.1-50.3-76.6c-2.4-2.1-5.8,1.2-3.5,3.5c1.4,1.4,0.7,6.9,0.7,8.9c-0.2,5.6-0.8,11.2-1.5,16.8
		c-1.4,11.6-3.3,23.1-4.3,34.7c-0.5,5.2,0,10.1,0.4,15.4c0.8,11.1,1.3,22.2,1.6,33.3c0.6,22.3,0.3,44.6,0,66.9
		C515.7,621.8,515.5,646.8,516.4,671.7c0.1,3.2,5.1,3.2,5,0c-1.7-45.9,0.6-91.8-0.3-137.8c-0.2-11.1-0.7-22.3-1.4-33.4
		c-0.4-6.4-1.2-12.6-0.7-18.9c1-11.9,3-23.7,4.4-35.6c0.7-6.2,1.5-12.4,1.5-18.7c0-3.2,0.2-7.6-2.2-10c-1.2,1.2-2.4,2.4-3.5,3.5
		c22.8,19.9,40.4,45.2,49,74.4c0.3,1,1.3,1.9,2.4,1.8c19-1.3,38.1-2.6,57.1-3.9c18.2-1.2,36.4-1.9,54.5-3.7c6.7-0.7,12-2.9,16.7-7.8
		c6.1-6.3,11.7-13.2,17.5-19.7c12.6-14.2,25.1-28.4,37.7-42.6c-1.4-0.6-2.8-1.2-4.3-1.8c4.8,84.4,9.5,168.8,14.3,253.2
		c0.8,14.5,1.4,30.2-5,43.7c-8,17-25.4,22.3-42.8,24.5c-40.6,5.1-82.1,4.9-122.7,0.6c-19.5-2.1-43-3.8-57.4-18.8
		c-12.4-13-14.2-32.1-14.8-49.1C521.3,668.5,516.3,668.5,516.4,671.7z"/>
	<g>
		<path d="M634.3,866.8c-15.2-1.6-29.6-4.3-37.5-6c-19.6-4.1-29.2-30.5-40.4-44.5c-26.5,66.7-93,130.1-80.4,207
			c19,116.3,192.2,125.8,267.2,60.7c26.7-23.3,40.5-56.2,39.2-91.5c-1.3-36.6-17.2-68.1-36.2-98.5c-2.2-3.6-4.5-7.2-6.5-10.9
			c-3.3-6-6.2-12.5-8.9-19.1c-2.7-6.4-5.1-12.8-7.5-19c-1.4-3.7-7.7-22.2-4.2-25.4c-12.2,11.5-21.6,33.5-34.3,42.8
			C675.6,869.1,654.4,868.9,634.3,866.8z"/>
	</g>
	<path d="M140.6,831.6c-2.3,16.1,1.8,32.5,13,44.7c12.3,13.4,30.8,18.3,48.2,20.6c20.9,2.8,42.1,4.1,63.2,6.1
		c18.4,1.7,38.7,4.3,54.5-7.5c6.6-5,11.3-11.9,13.2-19.9c1.9-8.1,0.8-20.2,8.2-25.7c-1.2-0.5-2.4-1-3.7-1.5
		c8.2,27.6,16.4,55.1,24.5,82.7c4,13.4,8.2,26.8,11.8,40.3c3.6,13.6,6.5,27.7,4.7,41.8c-3,24.2-19.9,43.9-39.4,57.2
		c-18.7,12.7-40.5,19.9-62.8,22.9c-22.8,3.1-46,2.2-68.8-0.4c-21.3-2.4-43.3-5.5-63.5-12.8c-21-7.6-38.8-21.5-46.1-43.3
		c-7.5-22.6-4.2-47.4-0.4-70.4c3.9-23.3,9-46.4,16.1-68.9c7.1-22.3,16.3-45.1,31.4-63.3c2-2.5-1.5-6-3.5-3.5
		c-13.8,16.6-22.7,36.7-29.8,56.9c-7.6,21.7-12.9,44.2-17.1,66.8c-4.2,22.8-8.3,46.5-4.8,69.6c3.4,22.6,15.7,41.6,35.6,53
		c19,11,41.2,15,62.6,18.3c24.3,3.7,48.9,6,73.5,4.5c44.5-2.9,95.9-21.5,116-64.9c13.5-29.2,2.8-60-5.8-88.9
		c-9.8-33-19.6-65.9-29.3-98.9c-0.4-1.4-2.3-2.5-3.7-1.5c-11.3,8.6-7.1,24.5-13.1,36c-8.8,16.7-29.1,18.9-46,17.8
		c-19.8-1.3-39.7-3.6-59.5-5.4c-17.6-1.6-36.3-3-51.8-12.3c-16.9-10-25.3-29.2-22.6-48.5C145.9,829.8,141.1,828.4,140.6,831.6z"/>
	<path d="M880.3,88.5c-1.1,27-2.2,54.1-3.3,81.1c-1,23.8-2.6,47.8-2.5,71.6c0.1,19.6,1.8,39.8,9.4,58.1c7.4,18,20.7,32.1,38.5,40.2
		c20.5,9.4,43.9,12.6,66,15.8c23.4,3.4,47.5,4.7,70.7-1.1c20.2-5,39.2-15.4,52.1-31.9c12.9-16.5,19.2-37.3,21-58
		c2.4-28.2-3.5-56.4-8.7-84.1c-5.7-30.1-11.3-60.1-17-90.2c-0.4-2.3-3.5-2.3-4.6-0.6c-8.1,12.4-16.8,25.7-29.8,33.4
		c-15.7,9.4-36.4,6.4-53.9,6.4c-19-0.1-38-0.2-57-0.5c-9.1-0.1-18.4,0.1-27.5-0.6c-8.4-0.6-15.4-3.5-20.8-10
		c-8.9-10.7-12.8-24.7-24.5-33.1c-2.6-1.9-5.1,2.5-2.5,4.3c11.3,8.1,15,22.6,23.9,32.8c11.4,13,28.8,11.3,44.6,11.5
		c20.7,0.4,41.3,0.6,62,0.6c10.3,0,20.7,0.2,31,0c8.1-0.2,16.1-1.4,23.5-4.9c15.8-7.6,26.2-23.1,35.5-37.3c-1.5-0.2-3-0.4-4.6-0.6
		c4.7,24.8,9.3,49.7,14,74.5c4.6,24.6,10.2,49.3,11.7,74.4c1.2,21.8-1.1,44.4-10.9,64.2c-9.5,19.2-25.8,33.2-45.8,40.8
		c-21.2,8.1-44,9-66.4,6.9c-22.4-2.1-45.8-5.6-67.3-12.4c-19.5-6.2-36-17.6-45.6-36c-8.7-16.9-11.1-36.3-11.7-55
		c-0.8-25,1.1-50.2,2.2-75.2c1.1-28.4,2.3-56.7,3.4-85.1C885.4,85.3,880.4,85.3,880.3,88.5L880.3,88.5z"/>
	<path d="M908.9,1059.9c14.5,21.6,32.1,43.1,59.3,47.2c13.9,2.1,28,0.3,41.9-2c13.7-2.3,26.5-4.7,36.7-14.9
		c9.9-10,17.1-22.7,23.8-34.9c7.3-13.4,14.4-26.8,21.8-40.1c13.8-25,27.5-51.3,31.6-79.9c4-27.5-0.7-56.9-19.4-78.4
		c-0.8-1-2.7-1-3.5,0c-7,8.4-14,16.8-21.1,25.1c-5.8,6.9-12.2,17.9-21.6,19.9c-4.6,1-9.6,0.6-14.3,0.6c-5.6,0.1-11.3,0.2-16.9,0.2
		c-10.6,0.2-21.2,0.3-31.8,0.5c-21.9,0.3-43.8,0.6-65.7,0.9c-9.5,0.1-20.2,1.2-28.9-3.1c-6.6-3.3-10.9-9.5-15-15.4
		c-3.6-5-7.1-10.3-12-14.2c-2.8-2.2-8.6-6.3-12.4-4.4c-2.2,1.1-3.2,4.2-3.9,6.4c-1.5,4.4-2.3,9-3.1,13.6
		c-3.9,21.7-6.6,43.4-1.7,65.2C861.5,992.2,886.6,1026.5,908.9,1059.9c1.8,2.7,6.1,0.2,4.3-2.5c-19.6-29.4-41-59-52.1-93
		c-4.4-13.5-7.4-28.1-6.3-42.4c0.7-9.2,1.9-18.5,3.3-27.7c0.8-4.9,1.6-9.7,2.7-14.5c0.4-1.7,1.2-7.7,3.1-8.5
		c-1.3,0.6,2.2,1.4,2.4,1.5c1.3,0.6,2.5,1.3,3.6,2.2c2.9,2.1,5.3,4.9,7.4,7.8c3.8,4.9,7,10.2,11.1,14.9
		c11.4,12.8,27.3,11.8,43.1,11.6c21.2-0.3,42.5-0.6,63.7-0.9c11.6-0.2,23.2-0.3,34.8-0.5c5.6-0.1,11.3-0.2,16.9-0.2
		c4.7-0.1,9.6,0.2,14.2-1.1c9-2.7,14.7-11.8,20.4-18.5c7.7-9.1,15.3-18.3,23-27.4c-1.2,0-2.4,0-3.5,0c16.2,18.6,21,44,18.7,68
		c-2.5,26.4-13.8,50.9-26.2,74c-6.5,12.1-13.3,24-19.7,36.1c-6.2,11.6-12.1,23.3-19.5,34.2c-8,11.8-16.8,21.5-31.1,24.9
		c-13.3,3.2-27.5,5.4-41.2,5.5c-15.3,0.1-29.5-4-41.5-13.6c-11.1-8.8-19.5-20.4-27.3-32.1C911.4,1054.7,907.1,1057.2,908.9,1059.9z"
		/>
	<g>
		<path d="M1086.1,683.4c-53.2,64.7-164.4,67.8-211.4-8.6c-7.3-11.8-12.4-25.3-19.9-36.9c-7.5-11.6-18.5-21.5-30.9-21.5
			c4.3-7,10.3-12.5,17-15.7c-9.3-7.2-21.1-10-32.1-7.5c14-32.2,38-58.2,66.5-72c3.6-1.8,7.6-3.5,9.8-7.3c2-3.4,2.3-7.9,2.7-12
			c1.7-19.8,7.3-39.1,16.1-56c11.5,17.5,19.3,38.3,22.6,60.1c42.1-2.4,69.4-0.1,111.2,6.9c5.2-16.5,25.4-33,30.5-49.5
			c5.8,19.7,8.7,40.6,8.5,61.4c31.9,6.8,60,34.4,71.4,70.1c-6.2,0.9-12.2,3.4-17.5,7.2c7.6,9.7,13.2,21.6,16.2,34.4
			c-12.5-2.5-25.2,4.6-34.8,14.4C1102.4,660.4,1094.9,672.7,1086.1,683.4z"/>
	</g>
	<path class="st0" d="M1046.8,563.2c-6,7.7-8.6,17.6-6,27.1c2.2,8,10,13.4,17,6.5c3.4-3.4,4.7-8.7,5.7-13.2c1.1-4.7,1.7-10-0.5-14.5
		c-3.1-6.4-12.1-9.5-17.4-3.9c-2.2,2.3,1.3,5.9,3.5,3.5c5-5.3,10.3,3,10.3,7.6c0,4.9-1.6,13.3-5.3,16.8c-6.6,6.3-9.4-5.5-9.4-10.3
		c0-5.8,1.9-11.5,5.5-16.1C1052.3,564.2,1048.8,560.6,1046.8,563.2L1046.8,563.2z"/>
	<path class="st0" d="M911.4,563.2c-6,7.7-8.6,17.6-6,27.1c2.2,8,10,13.4,17,6.5c3.4-3.4,4.7-8.7,5.7-13.2c1.1-4.7,1.7-10-0.5-14.5
		c-3.1-6.4-12.1-9.5-17.4-3.9c-2.2,2.3,1.3,5.9,3.5,3.5c5-5.3,10.3,3,10.3,7.6c0,4.9-1.6,13.3-5.3,16.8c-6.6,6.3-9.4-5.5-9.4-10.3
		c0-5.8,1.9-11.5,5.5-16.1C916.9,564.2,913.4,560.6,911.4,563.2L911.4,563.2z"/>
	<path class="st0" d="M942.1,623.9c0.2,10.7,8.1,22.4,19.7,22.4c12.2,0,18.4-12.5,22.3-22.2c-1.6-0.2-3.3-0.4-4.9-0.7
		c1.4,11.9,5.4,24.3,19.4,25.3c12.6,0.8,21.6-10,22.3-21.9c0.2-3.2-4.8-3.2-5,0c-0.6,9.3-7.7,17.9-17.6,16.8
		c-10.7-1.1-13-11.2-14.1-20.2c-0.3-2.9-3.8-3.3-4.9-0.7c-2.9,7.1-7,16.8-15.5,18.4c-9.7,1.8-16.6-8.7-16.8-17.2
		C947,620.7,942,620.6,942.1,623.9L942.1,623.9z"/>
	<path class="st0" d="M984.3,610.3c-4.9-5.2-13.7-1-13,6c0.7,7,9.3,11.6,15.5,7.8c5.4-3.3,5.7-12.4-0.1-15.5
		c-5.6-2.9-13.5,2.7-11.6,9.1c1.9,6.4,12,6.2,14.1,0.1c0.4-1.1-0.3-2.2-1.1-2.8c-2.6-2-7.8-3.4-8.9,1c-0.7,2.8,1.5,6.1,4.6,5.1
		c3-1,1.7-5.9-1.3-4.8c1.2,0.3,1.8,0.9,1.8,2c0.5,0.3,1,0.6,1.4,1c-0.4-0.9-0.8-1.9-1.1-2.8c-0.7,2-5,1.1-4.5-1.2
		c0.3-1.4,2.2-2.5,3.6-2.4c1.7,0.1,2.5,1.8,2.5,3.4c0,4.2-4.6,5.3-7.6,3c-1.5-1.1-3-3.8-1.6-5.5c1-1.2,3-1,4,0
		C983,616.1,986.5,612.6,984.3,610.3L984.3,610.3z"/>
	<path class="st0" d="M1069.1,625.9c10.2,3.6,19.8,8.4,28.7,14.5c2.7,1.8,5.2-2.5,2.5-4.3c-9.3-6.3-19.3-11.3-29.9-15
		C1067.4,620,1066.1,624.9,1069.1,625.9L1069.1,625.9z"/>
	<path class="st0" d="M1068.3,641.3c5.6,2.9,10.4,6.8,14.5,11.6c2.1,2.5,5.6-1.1,3.5-3.5c-4.3-5.2-9.5-9.3-15.5-12.4
		C1068,635.5,1065.4,639.8,1068.3,641.3L1068.3,641.3z"/>
	<path class="st0" d="M1061.6,652.3c2.5,4.5,5,9,7.4,13.5c1.6,2.8,5.9,0.3,4.3-2.5c-2.5-4.5-5-9-7.4-13.5
		C1064.3,646.9,1060,649.4,1061.6,652.3L1061.6,652.3z"/>
	<path class="st0" d="M899.4,613.6c-9.6-2.1-19-0.8-27.7,3.6c-2.9,1.5-0.3,5.8,2.5,4.3c7.5-3.8,15.6-4.9,23.9-3.1
		C901.2,619.1,902.5,614.2,899.4,613.6L899.4,613.6z"/>
	<path class="st0" d="M896.3,625.8c-7.2,1.6-13.6,5.1-18.9,10.1c-2.3,2.2,1.2,5.7,3.5,3.5c4.7-4.5,10.4-7.4,16.7-8.9
		C900.8,629.9,899.5,625.1,896.3,625.8L896.3,625.8z"/>
	<path class="st0" d="M898.3,641.8c-4,3.5-8,6.9-12.1,10.4c-2.4,2.1,1.1,5.6,3.5,3.5c4-3.5,8-6.9,12.1-10.4
		C904.3,643.2,900.7,639.7,898.3,641.8L898.3,641.8z"/>
	<path d="M646.8,600.2c-6.7-2-16.1,0.7-18,8.3c-2,8.4,8.6,10.3,14.6,9.1c6.1-1.2,15.6-7.9,11.2-15.2c-3.9-6.5-14-4.4-18.9-0.5
		c-4.9,3.9-8.5,13.5,0.4,15c5.2,0.8,15.2-5.1,13.2-11.3c-2.1-6.4-12.4-3.9-14,1.5c-1.8,6.1,5.8,11.6,10.2,6.1
		c5-6.2-5.7-11.7-8.4-5.1c-1.2,3,1.1,5.9,4.1,6.4c3.8,0.7,6.4-2.3,8.4-5.1c0.7-1,0.3-2.2-0.4-3c-2.3-2.9-6.6-2.9-8.9-0.1
		c-0.7,0.8-1,2-0.4,3c1.2,1.9,2.6,2.4,4.8,2.1c3.2-0.5,1.8-5.3-1.3-4.8c0.3,0.1,0.6,0.2,0.9,0.2c-0.1,1-0.3,2-0.4,3
		c0.6,0,1.2,0.1,1.9,0.1c-0.1-1-0.3-2-0.4-3c-0.8,1.1-3.2,3.8-4.9,3.1c-1.5-0.6,1.7-3.9,3-3.2c2.7,1.3-3.8,4.8-5.1,5
		c-3,0.6-2.8-2.5-1.3-4.3c0.8-1,1.8-1.8,2.8-2.4c2.4-1.5,5.8-2.5,8.5-1.5c4.1,1.5,1,5.8-1.5,7.4c-2.5,1.5-5.5,2.2-8.4,1.9
		c-2-0.2-5.4-0.8-4.3-4.2c0.4-1.3,2.2-2.5,3.3-3.1c2.6-1.4,5.4-1.5,8.2-0.7C648.5,605.9,649.9,601.1,646.8,600.2L646.8,600.2z"/>
	<path d="M634.5,615.7c2.4,6.9,1.8,15.5-5.2,19.5c-6.7,3.8-16.3-0.9-14-9.3c0.8-3.1-4-4.4-4.8-1.3c-2.8,10.3,6.9,19.2,17,16.7
		c12-2.9,15.5-16.4,11.9-26.9C638.3,611.4,633.4,612.7,634.5,615.7L634.5,615.7z"/>
	<path d="M636.7,620.6c1.3,8.4,4.3,18.1,13.6,20.4c8.9,2.2,14.3-5.9,17.5-12.8c1.3-2.9-3-5.4-4.3-2.5c-2.5,5.3-6.6,13.3-13.8,9.8
		c-6-2.9-7.2-10.3-8.2-16.2C641.1,616.1,636.2,617.5,636.7,620.6L636.7,620.6z"/>
	<path d="M691.9,541.4c-1.7,8.2-0.4,16.3,4,23.4c1,1.7,3.3,1.6,4.3,0c6.9-10.1,6.9-23.4,0.2-33.5c-0.8-1.2-2.9-1.8-3.9-0.5
		c-7.4,9.3-8.3,22.2-1.6,32.1c1,1.4,3.5,1.8,4.3,0c3.1-6.8,9.1-24-1.3-27.6c-1.2-0.4-2.9,0.5-3.1,1.7c-0.8,5.7-0.5,11,1,16.6
		c0.5,1.7,3,2.6,4.2,1.1c2.9-3.7,3.4-8,0.9-12.1c-0.9-1.4-3.5-1.8-4.3,0c-1.6,3.7-2,7.1-0.9,10.9c0.9,3.1,5.7,1.8,4.8-1.3
		c-0.7-2.6-0.7-4.6,0.4-7.1c-1.4,0-2.9,0-4.3,0c1.2,1.9,1.4,4.1-0.1,6c1.4,0.4,2.8,0.7,4.2,1.1c-1.3-4.6-1.7-9.1-1-13.9
		c-1,0.6-2.1,1.2-3.1,1.7c5.6,2-0.2,17.2-1.7,20.3c1.4,0,2.9,0,4.3,0c-5.4-7.9-5.3-18.5,0.8-26.1c-1.3-0.2-2.6-0.3-3.9-0.5
		c5.8,8.8,5.7,19.8-0.2,28.5c1.4,0,2.9,0,4.3,0c-3.7-6-5-12.6-3.5-19.6C697.4,539.6,692.6,538.3,691.9,541.4L691.9,541.4z"/>
	<path d="M575.6,540.6c-3.2,4.9-4.7,10.6-3.7,16.4c0.7,3.8,2.8,10.3,7.9,9.3c4.5-0.8,5.5-7.9,6-11.5c0.8-6.1-0.5-12-3.2-17.5
		c-0.9-1.8-3.3-1.4-4.3,0c-5.8,8.2-7.6,18.1-5.5,27.9c0.3,1.5,2.4,2.3,3.7,1.5c7.3-4.7,9.6-14.5,4.9-21.9c-0.9-1.5-2.7-1.5-3.9-0.5
		c-3.4,2.8-4.6,7.1-3.1,11.3c0.8,2.2,3.3,2.3,4.6,0.6c1.6-2.1,2.2-4,2.3-6.6c0.1-2-2.9-3.5-4.3-1.8c-2.6,3.3-3.5,7.1-1.9,11.1
		c1.2,3,6,1.7,4.8-1.3c-0.8-2.2-0.9-4.3,0.6-6.2c-1.4-0.6-2.8-1.2-4.3-1.8c0,1.6-0.5,3-1.6,4c1.5,0.2,3,0.4,4.6,0.6
		c-0.9-2.6-0.3-4.7,1.9-6.5c-1.3-0.2-2.6-0.3-3.9-0.5c3.2,5.1,2,11.8-3.1,15.1c1.2,0.5,2.4,1,3.7,1.5c-1.9-8.6-0.1-16.9,5-24
		c-1.4,0-2.9,0-4.3,0c1.5,3,2.4,6.2,2.7,9.5c0.2,2.4,0.5,7.8-1.2,9.6c-2.5,2.7-3.2-4.4-3.1-6.2c0.1-3.6,1.3-6.7,3.3-9.7
		C581.7,540.4,577.3,537.9,575.6,540.6L575.6,540.6z"/>
	<path d="M594.8,493.6c6.7,3,5.1,12.8,8.3,18.4c2.6,4.5,7,7.9,11.9,9.5c4.9,1.6,10.1,1.3,14.8-0.8c7.5-3.4,12.4-9.2,21.4-7.5
		c6.3,1.3,11.9,3,18.4,1.4c5.3-1.4,10.2-4.5,13.8-8.6c4.7-5.4,11.3-22.3-0.9-23.4c-0.8-0.1-1.8,0.5-2.2,1.2
		c-3.5,8.2-8.3,15.5-14.4,21.9c1.3,1,2.6,2,3.9,3c3.1-4.7,6.7-9,10.7-12.9c-1.3-1-2.6-2-3.9-3c-4.1,5.6-8.8,10.5-14.1,14.9
		c1.2,1.2,2.4,2.4,3.5,3.5c4.3-5.1,9.3-9.4,15.1-12.8c-1.1-1.1-2.3-2.3-3.4-3.4c-3.5,4.7-7,9.4-10.5,14.1c1.4,0.8,2.9,1.7,4.3,2.5
		c3.3-5,7.2-9.4,11.7-13.5c-1.2-1.2-2.4-2.4-3.5-3.5c-4.6,5.1-9.6,9.8-14.9,14.2c1.3,1,2.6,2,3.9,3c3-5.6,6-11.1,9-16.7
		c1.1-2.1-1.2-4.9-3.4-3.4c-6.2,4.2-12.3,8.4-18.5,12.6c1,1.3,2,2.6,3,3.9c3.9-4.5,7.8-9,11.7-13.6c1.7-2-0.6-5.7-3-3.9
		c-6.4,4.6-12.8,9.2-19.1,13.8c1,1.3,2,2.6,3,3.9c4.2-4.4,8.4-8.9,12.6-13.3c1.9-2-0.6-5.5-3-3.9c-8,5.2-16.1,10.3-24.1,15.5
		c1,1.3,2,2.6,3,3.9c6.8-5.4,13-11.3,18.9-17.7c1.8-2-0.6-5.7-3-3.9c-9,6.6-18,13.1-27,19.7c1,1.3,2,2.6,3,3.9
		c5.5-4.5,10.4-9.6,14.9-15.1c1.6-2.1-0.4-5.6-3-3.9c-6.5,4.2-13.1,8.3-19.6,12.5c1,1.3,2,2.6,3,3.9c3.3-3.8,6.6-7.5,10-11.3
		c1.5-1.7,0.1-5-2.4-4.2c-6.6,2.2-12.3,5.6-17.3,10.4c-2,1.9,0.7,5.7,3,3.9c3.8-2.9,5.8-6.5,6-11.3c0-2-2.1-3-3.8-2.2
		c-4.2,2.1-8.5,4-12.9,5.6c1.1,0.8,2.1,1.6,3.2,2.4c0-2.1,0-4.2,0-6.3c0-1.3-1.1-2.6-2.5-2.5c-7.8,0.3-12.9,8.4-8.9,15.5
		c4.4,7.8,14.4,7.3,20.2,1.6c-1.4-0.4-2.8-0.7-4.2-1.1c1.2,5.5,8,8.3,12.6,4.8c-1-1.3-2-2.6-3-3.9c-2.3,1.9-4.7,3.5-7.2,5
		c1.2,0.9,2.4,1.9,3.7,2.8c0.3-1.1,0.6-2.3,0.9-3.4c0.3-1.2-0.4-2.8-1.7-3.1c-1.2-0.2-2.2-0.3-3.4-0.3c-3,0.1-3.9,0.1-2.1-3.3
		c1.8-3.5,5.4-6.9,7.8-10c1.4-1.7,0.2-5.1-2.4-4.2c-1.9,0.6-3.4,1.4-4.9,2.7c-0.9,0.8-1.7,1.7-2.6,2.6c-0.2,0.2-5.8,4.9-5.1,0.6
		c0.2-1,6.5-2.1,7.5-2.3c3.4-0.8,6.9-1.4,10.4-1.8c-0.4-1.6-0.8-3.1-1.3-4.7c-4.4,2.7-8.5,5.9-12.2,9.5c-2,2,0.6,5.3,3,3.9
		c8.3-4.7,16.8-8.7,25.7-12.1c-0.8-1.4-1.6-2.8-2.4-4.2c-3.5,3.8-7.3,7.3-11.4,10.5c-2.4,1.9,0.7,5,3,3.9
		c6.3-2.9,12.3-6.3,18.1-10.2c-0.8-1.4-1.7-2.9-2.5-4.3c-4.1,3.1-7.8,6.5-11.1,10.5c-1.5,1.9-0.1,4.8,2.4,4.2
		c6.9-1.6,13.6-3.8,20.2-6.5c-0.9-1.2-1.9-2.4-2.8-3.7c-1.6,2.9-3.3,5.7-4.9,8.6c-1.3,2.2,1.2,4.6,3.4,3.4c2-1.5,4.2-1.5,6.7,0
		c-0.3,1.9,1.7,4.2,3.7,2.8c8-5.4,14.7-12,20.2-19.8c-1.5-0.2-3-0.4-4.6-0.6c1.5,4.7,0.8,9.4-2.4,13.3c1-0.1,2-0.3,3-0.4
		c-1.4-1-2.9-2-4.3-3c-2.6-1.9-5.1,2.5-2.5,4.3c1.4,1,2.9,2,4.3,3c0.8,0.6,2.4,0.4,3-0.4c4.3-5.2,5.8-11.6,3.7-18.1
		c-0.7-2.2-3.3-2.3-4.6-0.6c-5.1,7.1-11.2,13.1-18.5,18.1c1.2,0.9,2.4,1.9,3.7,2.8c0.5-3-0.4-5.6-3.2-7.1c-3.6-2.1-7.5-0.3-10.9,1.5
		c1.1,1.1,2.3,2.3,3.4,3.4c1.6-2.9,3.3-5.7,4.9-8.6c1-1.7-0.7-4.6-2.8-3.7c-6.6,2.7-13.3,4.9-20.2,6.5c0.8,1.4,1.6,2.8,2.4,4.2
		c3-3.6,6.3-6.9,10-9.7c2.5-1.9,0.2-6.2-2.5-4.3c-5.7,3.9-11.8,7.3-18.1,10.2c1,1.3,2,2.6,3,3.9c4.1-3.2,7.9-6.7,11.4-10.5
		c1.6-1.7,0.1-5.1-2.4-4.2c-9.3,3.5-18.3,7.6-26.9,12.6c1,1.3,2,2.6,3,3.9c3.4-3.3,7.1-6.2,11.1-8.7c1.9-1.2,1.3-4.9-1.3-4.7
		c-5.9,0.7-11.9,1.6-17.5,3.6c-3.2,1.1-6.7,3.2-6.2,7.1c0.4,3.4,4,5.6,7.2,5.4c5.6-0.4,7.7-6.4,12.6-8.1c-0.8-1.4-1.6-2.8-2.4-4.2
		c-2.8,3.6-5.6,7.2-8.4,10.7c-1.4,1.8-3.3,3.7-3.1,6.2c0.4,6.2,7.7,4.3,11.5,5c-0.6-1-1.2-2.1-1.7-3.1c-0.3,1.1-0.6,2.3-0.9,3.4
		c-0.5,2.1,1.8,3.9,3.7,2.8c3-1.7,5.6-3.6,8.2-5.8c2.1-1.8-0.8-5.7-3-3.9c-2,1.6-4.7,0.9-5.2-1.8c-0.4-1.9-2.9-2.4-4.2-1.1
		c-3.1,3-7.8,4.3-11.1,0.9c-3.3-3.4-1.9-9.2,3.4-9.4c-0.8-0.8-1.7-1.7-2.5-2.5c0,2.1,0,4.2,0,6.3c0,1.5,1.6,3,3.2,2.4
		c4.8-1.8,9.5-3.8,14.1-6.1c-1.3-0.7-2.5-1.4-3.8-2.2c-0.1,2.9-1.1,5.2-3.5,7c1,1.3,2,2.6,3,3.9c4.4-4.2,9.3-7.2,15.1-9.1
		c-0.8-1.4-1.6-2.8-2.4-4.2c-3.3,3.8-6.6,7.5-10,11.3c-1.8,2,0.5,5.5,3,3.9c6.5-4.2,13.1-8.3,19.6-12.5c-1-1.3-2-2.6-3-3.9
		c-4.5,5.5-9.4,10.6-14.9,15.1c-2.2,1.8,0.7,5.6,3,3.9c9-6.6,18-13.1,27-19.7c-1-1.3-2-2.6-3-3.9c-5.8,6.4-12.1,12.3-18.9,17.7
		c-2.2,1.8,0.7,5.4,3,3.9c8-5.2,16.1-10.3,24.1-15.5c-1-1.3-2-2.6-3-3.9c-4.2,4.4-8.4,8.9-12.6,13.3c-1.9,2,0.6,5.7,3,3.9
		c6.4-4.6,12.8-9.2,19.1-13.8c-1-1.3-2-2.6-3-3.9c-3.9,4.5-7.8,9-11.7,13.6c-1.7,2,0.5,5.6,3,3.9c6.2-4.2,12.3-8.4,18.5-12.6
		c-1.1-1.1-2.3-2.3-3.4-3.4c-3,5.6-6,11.1-9,16.7c-1.4,2.6,1.8,4.8,3.9,3c5.3-4.4,10.3-9.1,14.9-14.2c2.2-2.4-1.1-5.7-3.5-3.5
		c-4.8,4.3-8.9,9.1-12.5,14.5c-1.8,2.7,2.4,5,4.3,2.5c3.5-4.7,7-9.4,10.5-14.1c1.5-2.1-1.4-4.6-3.4-3.4c-6.1,3.7-11.5,8.2-16.1,13.6
		c-2.1,2.5,1.1,5.6,3.5,3.5c5.6-4.7,10.5-10,14.9-15.9c1.7-2.4-1.9-4.9-3.9-3c-4.4,4.2-8.2,8.8-11.5,13.9c-1.6,2.4,2,5.1,3.9,3
		c6.4-6.7,11.5-14.4,15.2-23c-0.7,0.4-1.4,0.8-2.2,1.2c3,0.3,1.8,6,1.4,7.6c-0.8,2.6-2.2,5.2-4,7.3c-3.3,3.9-7.9,6.7-12.9,7.6
		c-5.7,1.1-10.9-1.2-16.5-2.1c-4.8-0.7-9,0.2-13.2,2.5c-4.3,2.4-8.3,6-13.2,6.8c-5.1,0.9-10.6-1.2-14.2-4.8
		c-6.6-6.6-2.9-19-12.5-23.2C594.4,488,591.9,492.3,594.8,493.6L594.8,493.6z"/>
	<path d="M683.2,611.1c8.6-4.9,17.8-8.5,27.4-10.7c3.1-0.7,1.8-5.6-1.3-4.8c-10.1,2.4-19.6,6.1-28.6,11.2
		C677.9,608.4,680.4,612.7,683.2,611.1L683.2,611.1z"/>
	<path d="M684,626.6c5.8-0.7,11.4,0.1,16.7,2.6c2.9,1.4,5.4-3,2.5-4.3c-6.1-2.9-12.6-4-19.3-3.2C680.9,621.9,680.8,626.9,684,626.6
		L684,626.6z"/>
	<path d="M683.8,641c5.9,4.1,11,9,15.4,14.7c2,2.5,5.5-1,3.5-3.5c-4.7-6-10.2-11.2-16.4-15.5C683.7,634.9,681.2,639.2,683.8,641
		L683.8,641z"/>
	<path d="M600.4,604.4c-9.7-4.2-19.8-5.1-30.1-2.7c-3.1,0.7-1.8,5.6,1.3,4.8c8.9-2.1,17.8-1.4,26.2,2.2
		C600.8,610,603.4,605.7,600.4,604.4L600.4,604.4z"/>
	<path d="M596,621.5c-8.1-0.8-15.9,0.7-23.3,4.3c-2.9,1.4-0.4,5.7,2.5,4.3c6.6-3.2,13.5-4.3,20.7-3.6
		C599.2,626.8,599.2,621.8,596,621.5L596,621.5z"/>
	<path d="M594.4,636.2c-9.3,5.1-17.1,12.1-23.4,20.7c-1.9,2.6,2.4,5.1,4.3,2.5c5.7-7.9,13-14.2,21.6-18.9
		C599.7,638.9,597.2,634.6,594.4,636.2L594.4,636.2z"/>
	<path d="M757.9,583.3c-8.4-3.4-15,7.1-15.7,14.1c-0.5,4.4,0.9,7.7,2.6,11.6c1.8,4.2,0.8,6.3-2,9.6c-2,2.4-4.2,4.5-6.1,6.9
		c-5.1,6.2-9.1,15.6-3.6,22.9c7.2,9.4,24.6,4.2,28.7,17.2c1,3.1,5.8,1.7,4.8-1.3c-2.3-7.3-8.6-11.1-15.7-13.3
		c-4.6-1.4-12.1-1.9-14.6-6.7c-2.5-5,0.5-10.9,3.6-14.8c4-5.1,12.7-11.2,11.1-18.8c-0.8-3.8-3.7-6.5-3.9-10.6
		c-0.2-4.3,3.2-14.6,9.5-12C759.6,589.3,760.9,584.4,757.9,583.3L757.9,583.3z"/>
	<path d="M765.4,664.7c0.8-2.5,1.5-5.1,2.3-7.6c0.6-1.9-1.9-4.2-3.7-2.8c-1.3,1-2.2,1.9-3.1,3.3c1.6,0.4,3.1,0.8,4.7,1.3
		c0-4,0.7-7.7,2.3-11.3c1-2.3-1.9-5.4-3.9-3c-2.6,3.2-5.2,6.4-7.9,9.5c1.3,1,2.6,2,3.9,3c2.1-5,4-10.1,5.4-15.4
		c0.7-2.4-2.4-4.2-4.2-2.4c-2.6,2.5-5.2,5-7.8,7.6c1.3,1,2.6,2,3.9,3c2.8-5.2,5-10.5,6.9-16c0.8-2.5-2.4-4-4.2-2.4
		c-4.7,4.2-9.3,8.3-14,12.5c1.3,1,2.6,2,3.9,3c3.5-5.8,7-11.7,10.5-17.5c1.5-2.4-1.9-5-3.9-3c-5.1,5.1-10.2,10.1-15.3,15.2
		c1.3,1,2.6,2,3.9,3c4.6-6.8,9.1-13.6,13.7-20.3c1.7-2.5-1.9-4.8-3.9-3c-6.9,6.2-13.9,12.3-20.8,18.5c1.3,1,2.6,2,3.9,3
		c4.7-7,9.3-14.1,14-21.1c1.3-2-1.4-4.9-3.4-3.4c-5.8,4.1-10.6,9.1-14.5,15.1c-1.5,2.3,2.2,5.3,3.9,3c2.3-2.9,4.6-5.9,6.9-8.8
		c-1.4-0.8-2.8-1.6-4.2-2.4c-2.1,7-9.7,12.2-7.8,20.2c1.5,6.5,9.7,8.5,15.5,7.5c5.5-0.9,8.7-5.4,10.7-10.3c3.3-8.4,4.4-18,6.4-26.8
		c0.5-2.1-1.7-3.9-3.7-2.8c-2.7,1.5-5.4,2.9-8.2,4.2c1.3,0.7,2.5,1.4,3.8,2.2c0.1-3.1,1-5.6,2.9-8c-1.3-1-2.6-2-3.9-3
		c-1.7,2.8-3.7,5.3-6.1,7.6c1.3,1,2.6,2,3.9,3c2.8-6.6,4.9-13.2,6.3-20.2c0.4-1.9-1.8-4.3-3.7-2.8c-2.1,1.6-3.6,3.2-5,5.4
		c1.4,0.8,2.9,1.7,4.3,2.5c2.1-4,3.8-8.1,5.1-12.5c0.6-2.2-1.8-3.8-3.7-2.8c-3.6,1.9-6.5,4.4-9,7.5c1.4,0.8,2.8,1.6,4.2,2.4
		c1.4-3.8,2.8-7.7,4.1-11.5c1-2.8-3.1-4.2-4.6-1.9c-2.9,4.6-5.2,9.4-7,14.5c-0.3,1,0.2,2.4,1.1,2.8c1.7,0.9,2.4,1,4.4,1.2
		c3.2,0.2,3.2-4.8,0-5c-0.6-0.2-1.2-0.3-1.8-0.5c0.4,0.9,0.8,1.9,1.1,2.8c1.6-4.7,3.8-9.1,6.5-13.3c-1.5-0.6-3-1.3-4.6-1.9
		c-1.4,3.8-2.8,7.7-4.1,11.5c-0.8,2.3,2.6,4.4,4.2,2.4c2.3-2.8,4.8-5,8-6.7c-1.2-0.9-2.4-1.9-3.7-2.8c-1.2,3.9-2.7,7.6-4.6,11.3
		c-1.5,2.8,2.6,5.3,4.3,2.5c0.8-1.5,1.9-2.7,3.2-3.6c-1.2-0.9-2.4-1.9-3.7-2.8c-1.3,6.5-3.2,12.9-5.8,19c-1,2.5,1.7,5.2,3.9,3
		c2.7-2.6,4.9-5.5,6.9-8.7c1.4-2.4-2.1-5.3-3.9-3c-2.8,3.4-4.2,7-4.4,11.5c-0.1,2,2.1,2.9,3.8,2.2c2.8-1.3,5.5-2.7,8.2-4.2
		c-1.2-0.9-2.4-1.9-3.7-2.8c-1.3,5.9-2.6,11.8-3.9,17.7c-1,4.4-1.8,10-5,13.5c-4.6,5-16.2,2.2-13.5-5.8c1.7-4.9,5.8-8.4,7.3-13.4
		c0.7-2.2-2.6-4.5-4.2-2.4c-2.3,2.9-4.6,5.9-6.9,8.8c1.3,1,2.6,2,3.9,3c3.4-5.2,7.6-9.7,12.8-13.3c-1.1-1.1-2.3-2.3-3.4-3.4
		c-4.7,7-9.3,14.1-14,21.1c-1.6,2.5,1.9,4.8,3.9,3c6.9-6.2,13.9-12.3,20.8-18.5c-1.3-1-2.6-2-3.9-3c-4.6,6.8-9.1,13.6-13.7,20.3
		c-1.6,2.4,1.9,5,3.9,3c5.1-5.1,10.2-10.1,15.3-15.2c-1.3-1-2.6-2-3.9-3c-3.5,5.8-7,11.7-10.5,17.5c-1.5,2.5,1.9,4.9,3.9,3
		c4.7-4.2,9.3-8.3,14-12.5c-1.4-0.8-2.8-1.6-4.2-2.4c-1.7,5.1-3.8,10.1-6.4,14.8c-1.3,2.5,1.8,5.1,3.9,3c2.6-2.5,5.2-5,7.8-7.6
		c-1.4-0.8-2.8-1.6-4.2-2.4c-1.3,4.9-2.9,9.6-4.9,14.2c-1,2.3,1.9,5.4,3.9,3c2.6-3.2,5.2-6.4,7.9-9.5c-1.3-1-2.6-2-3.9-3
		c-1.9,4.5-2.9,9-3,13.9c0,2.5,3.4,3.4,4.7,1.3c0.4-0.5,0.8-1,1.3-1.5c-1.2-0.9-2.4-1.9-3.7-2.8c-0.8,2.5-1.5,5.1-2.3,7.6
		C759.7,666.4,764.5,667.7,765.4,664.7L765.4,664.7z"/>
	<path d="M515.4,597.5c2.9,4,6.9,6.1,11.1,8.6c2.9,1.7,5.7,3.7,6.7,7.1c1.1,3.6-0.1,7.4-1,10.9c-3.1,11.1-4.6,21.5,2.7,31.5
		c6,8.1,28.2,15.9,20.1,28.7c-4.2,6.7-12.8,7.6-20,7.1c-5-0.4-10.2-2.1-14.3,1.6c-2.4,2.2,1.2,5.7,3.5,3.5c2.5-2.3,9.5-0.2,12.5-0.1
		c3.1,0.1,6.2,0,9.3-0.7c5.3-1.2,10.3-4.2,13.3-8.9c7.3-11.8-3.6-21-12.5-27.1c-6.5-4.5-11.3-10.2-12.3-18.3
		c-1-7.5,2.7-14.2,3.8-21.4c0.8-5.3-0.1-10.5-4.1-14.4c-4.3-4.2-10.9-5.6-14.5-10.5C517.8,592.4,513.5,594.9,515.4,597.5
		L515.4,597.5z"/>
	<path d="M524.2,605.2c-3.2,3.4-4.9,7.2-5.5,11.9c-0.3,2.4,2.8,2.9,4.3,1.8c2.7-2.2,4.9-4.6,6.9-7.4c-1.4-0.8-2.9-1.7-4.3-2.5
		c-3.3,4.7-5.5,9.7-6.7,15.4c-0.5,2.5,2.3,4,4.2,2.4c3.2-2.6,6.4-5.2,9.6-7.9c-1.3-1-2.6-2-3.9-3c-3.7,7.3-6.9,14.7-9.6,22.4
		c-0.9,2.6,2.4,3.9,4.2,2.4c4.6-3.9,8.3-8.6,11.1-13.9c-1.5-0.6-3-1.3-4.6-1.9c-2.6,9.7-5.9,19.2-10.1,28.4
		c-1.3,2.9,2.9,5.4,4.3,2.5c2.2-4.6,4.9-8.7,8.3-12.5c-1.4-0.6-2.8-1.2-4.3-1.8c-1,8-3.3,15.7-6.6,23c-1.1,2.4,1.9,5.3,3.9,3
		c2.9-3.1,5.7-6.2,8.6-9.3c-1.4-0.8-2.8-1.6-4.2-2.4c-2.5,7.8-6,15-10.7,21.8c-1.6,2.3,2.1,5.2,3.9,3c4.3-5.1,8.5-10.2,12.8-15.2
		c-1.3-1-2.6-2-3.9-3c-3.3,6.5-6.5,12.9-9.8,19.4c-1.2,2.4,1.9,5.2,3.9,3c5.6-5.9,11.2-11.7,16.9-17.6c-1.3-1-2.6-2-3.9-3
		c-3.9,7.6-8.2,15-12.9,22.2c-1.5,2.3,2.1,5.3,3.9,3c5.9-7.4,12.2-14.5,18.9-21.2c-1.3-1-2.6-2-3.9-3c-4.7,7.4-9.4,14.8-14,22.3
		c-1.5,2.4,2,5.1,3.9,3c5.2-5.4,10.4-10.7,15.5-16.1c-1.4-0.8-2.8-1.6-4.2-2.4c-1.8,4.8-4.1,9.2-7.1,13.4c-1.6,2.3,2.2,5.3,3.9,3
		c4-5,8.4-9.5,13.3-13.5c-1.4-0.6-2.8-1.2-4.3-1.8c-0.4,4.3-2,8-4.7,11.4c-2,2.4,1.4,6,3.5,3.5c2.3-2.5,4.6-5.1,6.8-7.6
		c-1.4-0.8-2.8-1.6-4.2-2.4c-0.6,3.6-1.6,7.1-3.2,10.4c1.5,0.2,3,0.4,4.6,0.6c-0.6-1.8-1.3-3.6-1.9-5.4c-1-3-5.9-1.7-4.8,1.3
		c0.6,1.8,1.3,3.6,1.9,5.4c0.6,1.8,3.6,2.7,4.6,0.6c1.7-3.8,3-7.6,3.7-11.6c0.4-2.2-2.4-4.5-4.2-2.4c-2.3,2.5-4.6,5.1-6.8,7.6
		c1.2,1.2,2.4,2.4,3.5,3.5c3.6-4.4,5.6-9.2,6.2-14.9c0.2-2.4-2.8-3-4.3-1.8c-4.9,4-9.3,8.5-13.3,13.5c1.3,1,2.6,2,3.9,3
		c3.2-4.6,5.7-9.4,7.6-14.6c0.9-2.4-2.5-4.2-4.2-2.4c-5.2,5.4-10.4,10.7-15.5,16.1c1.3,1,2.6,2,3.9,3c4.7-7.4,9.4-14.8,14-22.3
		c1.5-2.4-1.9-5-3.9-3c-6.7,6.7-13,13.8-18.9,21.2c1.3,1,2.6,2,3.9,3c4.7-7.2,9-14.6,12.9-22.2c1.3-2.4-1.9-5.2-3.9-3
		c-5.6,5.9-11.2,11.7-16.9,17.6c1.3,1,2.6,2,3.9,3c3.3-6.5,6.5-12.9,9.8-19.4c1.2-2.4-2-5.3-3.9-3c-4.3,5.1-8.5,10.2-12.8,15.2
		c1.3,1,2.6,2,3.9,3c4.9-7.1,8.6-14.8,11.2-23c0.7-2.4-2.5-4.3-4.2-2.4c-2.9,3.1-5.7,6.2-8.6,9.3c1.3,1,2.6,2,3.9,3
		c3.8-8.2,6.2-16.6,7.3-25.6c0.3-2.2-2.9-3.3-4.3-1.8c-3.6,4.1-6.7,8.6-9.1,13.5c1.4,0.8,2.9,1.7,4.3,2.5
		c4.4-9.6,7.9-19.4,10.6-29.6c0.7-2.7-3.2-4.5-4.6-1.9c-2.6,5-6,9.3-10.4,12.9c1.4,0.8,2.8,1.6,4.2,2.4c2.6-7.3,5.6-14.3,9.1-21.2
		c1.3-2.6-1.7-4.8-3.9-3c-3.2,2.6-6.4,5.2-9.6,7.9c1.4,0.8,2.8,1.6,4.2,2.4c1.1-5.2,3.1-9.8,6.2-14.2c1.9-2.6-2.5-5.1-4.3-2.5
		c-1.8,2.5-3.8,4.5-6.1,6.4c1.4,0.6,2.8,1.2,4.3,1.8c0.4-3.3,1.8-6,4-8.4C529.9,606.4,526.4,602.8,524.2,605.2L524.2,605.2z"/>
	<path d="M543.5,657.3c-3.7,2.1-6.9,4.7-9.6,8c1.4,0.8,2.8,1.6,4.2,2.4c0.8-3.7,3.4-10.3-2-11.6c-4.5-1-6.7,3.1-7.3,6.8
		c-0.5,2.6,2.2,4,4.2,2.4c1.4-1.1,2.9-1.7,4.7-1.8c-1.1-0.8-2.1-1.6-3.2-2.4c-0.2,4.4-0.4,8.7-0.6,13.1c-0.1,3-1.2,7.4,0,10.3
		c2.1,5.3,10.1,1.8,13.9,1c-1-1-2.1-2.1-3.1-3.1c-1.3,4.3-5.4,6-9.7,6c-2,0-8.7-0.4-10-2.5c-0.5-0.8-0.1-4.9-0.1-5.8
		c0-1.6-0.1-3.2-0.1-4.9c-0.1-3.6-0.2-7.1-0.2-10.7c-0.3-14.3-0.6-28.5-0.9-42.8c-0.1-3.2-4.9-3.2-5,0c-0.1,3-0.1,6-0.2,9.1
		c-0.1,2.7,4.5,3.5,4.9,0.7c0.8-5.7,1.7-11.4,3.3-16.9c0.5-1.9,2-6.5,3-2.2c0.8,3.4,0.2,6.7-1.1,9.8c1.6,0,3.2,0,4.8,0
		c-1.3-6.7-4.1-12.4-8.3-17.7c-1.4-1.8-4.2-0.2-4.3,1.8c-0.1,3,0.5,5.5,2.1,8.1c1.7,2.7,6,0.2,4.3-2.5c-1.1-1.9-1.5-3.4-1.4-5.5
		c-1.4,0.6-2.8,1.2-4.3,1.8c3.6,4.6,5.9,9.8,7,15.5c0.5,2.7,4,2,4.8,0c1.9-4.5,3.5-19.5-5.2-18.5c-3.2,0.4-4.9,3.7-5.9,6.4
		c-2,5.9-3,12.5-3.8,18.8c1.6,0.2,3.3,0.4,4.9,0.7c0.1-3,0.1-6,0.2-9.1c-1.7,0-3.3,0-5,0c0.4,20.7,0.7,41.5,1.3,62.2
		c0.1,2.8,0,5.2,2.6,6.8c3,1.9,8,2.4,11.5,2.6c6.8,0.3,13.4-2.8,15.4-9.7c0.6-1.9-1.3-3.5-3.1-3.1c-2,0.4-4.3,1.3-6.3,1.3
		c-1.4,0-1,0.4-1.6-0.3c-0.5-0.6,0.2-4,0.2-4.7c0.3-5.3,0.5-10.6,0.8-15.9c0.1-1.8-1.7-2.6-3.2-2.4c-2.8,0.4-4.7,1.4-6.9,3.1
		c1.4,0.8,2.8,1.6,4.2,2.4c0.7-3.8-0.1,1.2-0.3,2.1c-0.5,2.2,2.5,4.5,4.2,2.4c2.4-3,5.1-5.3,8.5-7.2
		C548.8,660,546.3,655.7,543.5,657.3L543.5,657.3z"/>
	<path d="M1082.3,172.6c-19.8-4.7-38.7,8.6-50.3,23.7c-5.9,7.7-10.6,17.3-9.5,27.3c1,9.3,7.1,17.3,14.2,23
		c14.3,11.5,34.7,15.3,51.5,7.3c15.9-7.6,26.8-25,24.3-42.8c-2.8-19.7-20.1-35.1-39.1-39.1c-3.1-0.7-4.5,4.2-1.3,4.8
		c14.7,3.1,28.3,13.3,33.6,27.6c5.5,14.8-0.1,30.8-12.3,40.4c-13.2,10.4-31.4,10.6-46,2.9c-7-3.7-13.7-9.3-17.4-16.5
		c-4.5-8.7-2.6-18.2,2.2-26.4c9.4-16,29.2-32,48.8-27.4C1084.1,178.1,1085.4,173.3,1082.3,172.6L1082.3,172.6z"/>
	<path d="M951.5,172.6c-19.8-4.7-38.7,8.6-50.3,23.7c-5.9,7.7-10.6,17.3-9.5,27.3c1,9.3,7.1,17.3,14.2,23
		c14.3,11.5,34.7,15.3,51.5,7.3c15.9-7.6,26.8-25,24.3-42.8c-2.8-19.7-20.1-35.1-39.1-39.1c-3.1-0.7-4.5,4.2-1.3,4.8
		c14.7,3.1,28.3,13.3,33.6,27.6c5.5,14.8-0.1,30.8-12.3,40.4c-13.2,10.4-31.4,10.6-46,2.9c-7-3.7-13.7-9.3-17.4-16.5
		c-4.5-8.7-2.6-18.2,2.2-26.4c9.4-16,29.2-32,48.8-27.4C953.3,178.1,954.7,173.3,951.5,172.6L951.5,172.6z"/>
	<path d="M1061.7,203.1c-4.2,5.7-4.4,13.2-0.6,19.1c0.9,1.4,2.7,1.7,3.9,0.5c5.7-5.6,6-14.2,1.1-20.5c-1-1.3-3.2-0.8-3.9,0.5
		c-2.6,4.7-4.2,10.8-2.4,16.1c1.3,3.9,4.9,5.3,8.4,2.9c8.2-5.5,4.3-18.9-1.4-24.5c-0.9-0.9-2.6-1-3.5,0c-4,4.5-5.9,10.2-5.1,16.2
		c0.6,4.2,3,10.6,8.4,9.6c4.8-0.9,6.6-6.9,6.9-11.1c0.4-5.2-1-10.6-5.8-13.3c-0.9-0.5-2.3-0.5-3,0.4c-6,7.1-7.2,16.6-3,25
		c0.9,1.8,3.3,1.4,4.3,0c3.7-5.2,5.3-11.2,4.8-17.5c-0.1-1.6-1.5-2.9-3.2-2.4c-4.7,1.4-6.3,7.3-2.6,10.7c2.4,2.2,5.9-1.4,3.5-3.5
		c0.1-0.8,0.3-1.5,0.4-2.3c-1.1-0.8-2.1-1.6-3.2-2.4c0.4,5.5-1,10.4-4.1,15c1.4,0,2.9,0,4.3,0c-3.1-6.2-2.3-13.6,2.2-18.9
		c-1,0.1-2,0.3-3,0.4c2.7,1.5,3.3,4.2,3.4,7.1c0,1.5-0.3,7.8-2.6,8c-2.5,0.2-3-6.6-2.9-8c0.1-3.5,1.5-6.7,3.8-9.3
		c-1.2,0-2.4,0-3.5,0c3.4,3.3,5.3,8.2,4.2,12.9c-0.2,0.8-0.7,3-1.4,3.3c-1.8,0.8-1.8-1.6-1.8-2.6c-0.1-3.3,0.8-6.3,2.4-9.2
		c-1.3,0.2-2.6,0.3-3.9,0.5c3.2,4.1,2.5,9.8-1.1,13.4c1.3,0.2,2.6,0.3,3.9,0.5c-2.9-4.6-2.6-9.7,0.6-14.1
		C1067.9,203,1063.6,200.5,1061.7,203.1L1061.7,203.1z"/>
	<path d="M931.2,202.1c-1.6,6.8-2.2,13.7-1.7,20.7c0.2,2,2,2.9,3.8,2.2c10.4-4.4,11.1-19.8,2.1-25.8c-1.1-0.7-2.8-0.2-3.4,0.9
		c-2.8,4.9-6,12.8-3.9,18.4c1.5,4.2,6.5,4.6,9.6,1.8c2.2-2,2.7-5.1,3.1-7.9c0.5-3.3,1.4-6.9,1.2-10.3c-0.2-3.8-4.5-9.3-8.6-5.7
		c-2.1,1.9-2.8,6.2-3.9,8.9c-1.1,2.7-2,5.4-1.9,8.3c0.1,4.8,2.9,9.6,8,10.2c4.8,0.5,9.3-3,11.1-7.3c2.3-5.7,0.5-13.8-2.5-18.9
		c-3.2-5.4-8.4-4.5-10.8,0.9c-3.2,7-3.2,14.9-0.5,22.1c0.6,1.6,2.8,2.6,4.2,1.1c5-5.6,6-13.1,2.7-19.8c-0.8-1.7-3.5-1.6-4.3,0
		c-2.3,4.4-2.3,8.6-0.1,13c1.5,2.9,5.8,0.3,4.3-2.5c-1.3-2.6-1.3-5.3,0.1-7.9c-1.4,0-2.9,0-4.3,0c2.3,4.7,1.5,9.9-2,13.8
		c1.4,0.4,2.8,0.7,4.2,1.1c-1.8-4.9-2.3-10-1-15.1c0.3-1,0.6-2.6,1.2-3.4c0.2-1.5,0.7-1.6,1.6-0.2c0.8,0.4,1.2,1,1.4,1.8
		c1.2,2.3,2,6.4,1.9,8.9c-0.1,2.8-1.3,6-4.1,7.3c-3.5,1.6-5.8-1.6-6-4.7c-0.2-5,3.4-9.8,4.8-14.6c-0.6,0.6-1.2,1.2-1.7,1.7
		c2.1-0.9,0.8,7.1,0.7,7.9c-0.2,1.2-0.1,5.3-1,6.1c-4,3.8-2.1-4.2-1.8-5.3c0.6-2.5,1.7-4.7,2.9-6.9c-1.1,0.3-2.3,0.6-3.4,0.9
		c6.3,4.2,4.5,14.4-2.1,17.2c1.3,0.7,2.5,1.4,3.8,2.2c-0.5-6.6,0-12.9,1.5-19.3C936.7,200.3,931.9,198.9,931.2,202.1L931.2,202.1z"
		/>
	<path d="M1006.3,244.7c-3.3-6.8-11.7-0.1-14.4,3.6c-3.9,5.3-4.9,13.5,3,15.4c6.5,1.5,15.3-0.8,18.4-7c2.6-5.1,0.8-12.7-5.1-14.4
		c-6.6-1.9-14.2,3.8-16.5,9.8c-1,2.6-1.1,5.8,0.9,8c2.5,2.7,6.7,2.6,10,2.2c6.2-0.7,12.9-5.4,10.6-12.4c-2-6.5-11.6-6.1-15-1.1
		c-4,5.8,3.7,14.5,8.7,8.4c1.7-2.1,2.1-6.2-0.8-7.6c-3.2-1.6-7,1.9-8.6,4.3c-1,1.6,0.3,3.8,2.2,3.8c3.1-0.1,5.3-1.4,7-3.9
		c0.9-1.4-0.1-3.2-1.5-3.7c-3.7-1.2-7.4,1.6-7.3,5.5c0,1.2,0.8,2,1.8,2.4c2.7,1.1,5.1,0.4,7.4-1.4c2.5-2-1-5.5-3.5-3.5
		c-0.9,0.5-1.7,0.6-2.5,0.1c0.6,0.8,1.2,1.6,1.8,2.4c0.3-0.2,0.6-0.4,0.9-0.6c-0.5-1.2-1-2.4-1.5-3.7c-0.6,1-1.5,1.5-2.7,1.5
		c0.7,1.3,1.4,2.5,2.2,3.8c0.9-1.4,2-2,3.6-2.3c-0.8-0.2-1.6-0.4-2.4-0.6c-0.2,0.1-0.5,0.2-0.7,0.3c-0.4-0.6-0.5-1.2-0.1-1.7
		c0.3-0.9,0.9-1.3,1.8-1.6c1.8-0.8,4.3-0.6,4.6,1.6c0.6,4-4.7,5.2-7.6,5.4c-1.4,0.1-4.3,0.4-5-1.2c-0.6-1.3,0.8-3.4,1.5-4.5
		c1.9-2.5,6.7-6.3,10-4.4c2.5,1.4,2.4,5.3,1.1,7.5c-1.8,2.9-5.8,4-9,4.2c-1.7,0.1-4.8,0.2-5.8-1.5c-0.7-1.4,0.3-3.4,0.9-4.5
		c0.4-0.7,6.1-7.9,7.2-5.7C1003.4,250.1,1007.7,247.5,1006.3,244.7L1006.3,244.7z"/>
	<path d="M1001.6,258.1c-0.2,12.9,0.1,25.9-0.6,38.7c-0.7,11.9-4,24.7-15.4,30.6c-2.9,1.5-0.3,5.8,2.5,4.3
		c10.5-5.3,15.6-16.4,17.2-27.6c2.1-15.1,1.1-30.9,1.3-46.1C1006.6,254.9,1001.6,254.9,1001.6,258.1L1001.6,258.1z"/>
	<path d="M1001.6,314.1c3.9,9.9,11.9,17.4,22.2,20.3c3.1,0.9,4.4-3.9,1.3-4.8c-8.5-2.5-15.4-8.6-18.7-16.8
		C1005.3,309.8,1000.4,311.1,1001.6,314.1L1001.6,314.1z"/>
	<path d="M984.1,218.6c12-8.3,27.9-8,39.7,0.6c2.6,1.9,5.1-2.4,2.5-4.3c-13.1-9.6-31.4-9.8-44.7-0.6
		C978.9,216.1,981.4,220.4,984.1,218.6L984.1,218.6z"/>
	<path d="M1045,258.2c-17.9-9.7-27.1-30.5-22.8-50.4c4.2-19.7,20-36.3,40.1-39.9c20-3.6,37,8.8,45.8,26.1c8.4,16.5,12,41.8-3.3,55.6
		c-7.2,6.6-17,9.5-26.3,11.8c-6,1.5-12.2,3.1-18.4,2c-5.6-1.1-10.7-3.9-15.5-6.9c-9.2-5.8-17.7-12.9-19.9-24.1
		c-1.8-9.2-0.5-19.2,2.7-28c6.4-17.3,21.8-31.1,40.9-31.2c8.2,0,16.5,2.3,23.4,6.8c8.6,5.7,12.7,14.1,15.5,23.8
		c3,10.3,6.2,21.8,3.8,32.5c-2.8,12.3-13.9,17.6-25.2,20.2c-12.8,2.9-25.7,4.2-37.5-2.6c-9.7-5.6-17.2-14.4-24.4-22.8
		c-1.2,1.2-2.4,2.4-3.5,3.5c15,15.8,37.2,27.1,59.5,24c18.5-2.6,34.9-17.2,35.6-36.6c0.1-3.2-4.9-3.2-5,0
		c-0.6,18.4-17.7,31.1-35.1,32c-19.6,1-38.3-9.2-51.4-23c-2.3-2.4-5.6,1.1-3.5,3.5c7.6,9,15.7,18.2,26.1,24
		c11.7,6.5,24.1,6.1,36.9,3.5c10.5-2.1,21.8-5.5,28.2-14.7c6.2-8.9,5.9-20.3,4.1-30.5c-2-10.9-4.7-23.2-11.5-32.1
		c-5.7-7.6-14.3-12.7-23.4-15.1c-19.9-5.2-39.8,3.3-51.3,20c-11.7,17-16.1,44.2-0.8,60.4c7.8,8.2,19.8,16.2,31.1,18.1
		c11.3,1.9,25.1-2.6,35.5-7c10-4.3,18.3-11.2,22.2-21.6c3.9-10.3,3.4-22.1,0.8-32.7c-4.8-19.9-19-39.9-40.2-44
		c-25.3-4.8-49.7,12.7-58.3,35.9c-8.8,23.7,0.4,51.3,22.9,63.5C1045.3,264,1047.8,259.7,1045,258.2L1045,258.2z"/>
	<path d="M976.7,218.5c0.6,0.8,1.3,1.5,1.9,2.3c1.1,1.4,3.9,0.7,4.2-1.1c0.6-3.8,1.2-7.6,1.8-11.4c-1.6-0.2-3.3-0.4-4.9-0.7
		c1.3,13.8,1.3,27.4-8.7,38.2c-8,8.5-19.3,13.3-30.9,13.6c-22.8,0.6-45.4-15-49.3-38.2c-4.3-25.5,17.2-48.1,42.2-48.7
		c25.8-0.6,47,19.9,50.1,45c1.7,13.6-2.8,26.3-15.2,33.1c-12,6.6-26.3,5.9-39.5,4.4c-6.6-0.8-14.7-0.9-19.7-5.9
		c-4.6-4.6-6.4-11.7-8.3-17.8c-4.3-13.9-5.6-27.4,3.3-39.8c15-20.9,46.5-25.8,66.3-9c18.8,15.9,19.1,45.9,1,62.7
		c-20.4,19-54,14.3-68.9-9c-7-10.9-8.7-24.4-3.5-36.4c5.3-12.1,16.6-21.6,29.9-23.2c3.2-0.4,3.2-5.4,0-5
		c-26.4,3.1-44.2,31.2-35.8,56.4c8.7,26.2,37.9,40.2,63.8,31.4c25.9-8.9,40.3-38.6,29.1-64.2c-11.8-26.8-45.6-34.8-70-20.8
		c-11.9,6.8-21.6,18.7-23.5,32.5c-1.1,8.2,0.6,16.3,2.9,24.1c2,6.7,4,14,8.3,19.7c4.6,6,11.1,7.7,18.3,8.6
		c8.7,1.2,17.5,2.3,26.3,1.8c13.4-0.8,27.4-5.8,35.1-17.4c7.9-11.9,6.3-28.4,1.2-41.2c-5.1-12.6-14.6-23.7-26.9-29.6
		c-25.9-12.6-58.3-1.7-68.9,25.6c-10.4,26.8,7,54.6,33.1,63.2c24.2,7.9,55.7-2.6,62.5-29.3c2.1-8.1,1.4-16.5,0.6-24.7
		c-0.2-2.6-4.4-3.7-4.9-0.7c-0.6,3.8-1.2,7.6-1.8,11.4c1.4-0.4,2.8-0.7,4.2-1.1c-0.6-0.8-1.3-1.5-1.9-2.3
		C978.2,212.5,974.7,216,976.7,218.5L976.7,218.5z"/>
	<path d="M1130.7,198.7c-3.2-3-8.4-2.9-11.3,0.4c-1.2,1.3-0.9,3.8,1.1,4.2c4,0.8,7.8,0.3,11.4-1.3c-0.8-1.4-1.7-2.9-2.5-4.3
		c-2.2,1.7-4.5,2.5-7.3,2.4c-3.2-0.1-3.2,4.9,0,5c3.5,0.1,7-1,9.8-3.1c2.5-2,0.5-5.7-2.5-4.3c-2.4,1.1-5,1.3-7.6,0.8
		c0.4,1.4,0.7,2.8,1.1,4.2c1.1-1.2,3-1.6,4.3-0.4C1129.5,204.4,1133.1,200.9,1130.7,198.7L1130.7,198.7z"/>
	<path d="M874.7,201.1c5.2,0.7,10.4,1.9,15.4,3.6c0.2-1.6,0.4-3.3,0.7-4.9c-4.7-0.2-9.2-1-13.7-2.3c-0.2,1.6-0.4,3.3-0.7,4.9
		c3.7,0.3,7.5,0.7,11.2,1c2.8,0.3,3.4-4.3,0.7-4.9c-4.7-1-9.3-2.6-13.6-4.7c-0.6,1.5-1.3,3-1.9,4.6c1.4,0.2,2.9,0.5,4.3,0.7
		c3.1,0.5,4.5-4.3,1.3-4.8c-1.4-0.2-2.9-0.5-4.3-0.7c-2.6-0.4-4.7,3.2-1.9,4.6c4.7,2.3,9.6,4.1,14.8,5.2c0.2-1.6,0.4-3.3,0.7-4.9
		c-3.7-0.3-7.5-0.7-11.2-1c-2.9-0.3-3.3,4.1-0.7,4.9c4.9,1.5,9.9,2.3,15,2.5c2.9,0.1,3.2-4,0.7-4.9c-5.5-1.9-11-3.1-16.7-3.8
		C871.5,195.7,871.5,200.7,874.7,201.1L874.7,201.1z"/>
	<g>
		<path class="st0" d="M315.3,887.6c-0.8-8.4-3.5-16.6-7.9-23.7c-1.6-2.7-3.7-5.3-6.5-6.6c-6.2-2.8-13,1.8-18.2,6.1
			c-3.4,2.8-7,6-7.6,10.3c-0.7,5.7,4.2,10.5,9.2,13.5c6.4,3.8,13.6,6.4,21.1,7.4c2.5,0.3,5.2,0.5,7.5-0.6c2.3-1.1,4.1-3.7,3.4-6.1
			c5.3-5.2,15.3-4.2,19.3,1.9c4.1,6.2,0.8,15.9-6.3,18.1c-7.1,2.2-15.4-4.2-14.9-11.6c0.2,8.2,11.4,13,18.4,8.6
			c2-1.3,3.7-3.1,5.8-4.2c7.8-4.1,16.6,2.9,22.7,9.4c1.4,1.5,2.9,3.2,3.2,5.2c0.5,3.3-2.1,6.3-4.8,8.3c-6.3,4.7-15,7.5-22,4
			c-7-3.5-9.2-15.2-2.4-19.1"/>
		<path d="M317.8,887.6c-0.7-6.6-2.3-13-5.1-19.1c-2.5-5.4-5.9-11.9-11.9-13.9c-5.7-2-11.6,0.9-16.3,4.1c-4.4,3.1-9.5,6.9-11.3,12.2
			c-4.4,12.6,12,20.6,21.4,23.7c5.5,1.8,13.3,4.1,18.9,1.8c4.8-2,3.9-7.8,8.7-9c8.2-2.2,15.4,5.5,11.6,13.3
			c-4.2,8.7-16.9,4.9-16.9-4.4c-1.7,0-3.3,0-5,0c0.5,6.6,5.4,11.2,11.8,12.5c3,0.6,6.2,0.3,9-1c4.8-2.3,7.7-7,13.7-5.3
			c4.7,1.3,10.2,5.4,13.1,9.4c1.1,1.5,2.5,4.3,2,6.2c-0.3,1.3-2.4,2.8-3.4,3.6c-2.3,1.7-4.8,3.1-7.5,4c-5.2,1.7-11.9,1.5-15.2-3.5
			c-2.3-3.5-2.7-9,1.2-11.6c2.7-1.8,0.2-6.1-2.5-4.3c-7.7,5.2-6.5,16.9,0.5,22.2c8.9,6.8,24.5,1.9,30.5-6.7c3.5-4.9,1.7-9.4-2-13.5
			c-4.1-4.5-9.3-9-15.3-10.7c-5.7-1.6-10,0.4-14.4,3.8c-5.3,4.1-15.7,3.2-16.4-5.1c-0.3-3.2-5-3.3-5,0c0,9.7,10.5,17.6,19.7,13.3
			c8.2-3.8,10.9-15.7,5-22.6c-3-3.4-7.6-5.1-12.1-5c-3.7,0.1-9.4,1.7-10.8,5.5c-0.3,0.8,0.1,1.9-0.3,2.7c-0.8,1.5-3.7,2.1-5.1,2.1
			c-1.9,0-3.9-0.4-5.8-0.7c-3.9-0.8-7.6-2-11.2-3.5c-6.6-2.9-18-9.5-12-18c4.4-6.3,16.6-15.5,23.5-8.2c6.2,6.6,9,17.1,10,25.8
			C313.2,890.7,318.2,890.8,317.8,887.6L317.8,887.6z"/>
	</g>
	<g>
		<path d="M298.1,930.1c-13,1.1-25.6,3.6-38.6,9.1c-42,18-9.6,70.6,17.3,88.5c7.6,5.1,16.9,7.3,26,8.1c19.8,1.8,40.4-2.8,56.8-14
			c16.4-11.3,28.2-29.5,30.4-49.3c0.6-6,0.4-12.2-1.7-17.8c-4-11-14.6-18.7-25.8-22.1c-11.2-3.5-23.2-3.5-34.9-3.4
			C317.3,929.2,307.6,929.3,298.1,930.1z"/>
	</g>
	<g>
		<path d="M164.1,935.2c11.9,1,23.4,3.2,35.3,8.3c38.4,16.5,8.7,64.4-15.7,80.7c-7,4.6-15.4,6.6-23.7,7.4
			c-18.1,1.6-36.9-2.5-51.8-12.8c-15-10.3-25.8-26.9-27.7-44.9c-0.6-5.5-0.4-11.1,1.5-16.3c3.7-10.1,13.3-17,23.6-20.2
			c10.2-3.2,21.2-3.2,31.9-3.1C146.6,934.4,155.4,934.4,164.1,935.2z"/>
	</g>
	<path d="M235.9,1018.8c1.1-7.6-7.5-11.7-13.1-6.6c-5,4.5-5,12.7,1,16.3c6.9,4.1,15.9,0.2,18.8-6.9c3.1-7.8-0.7-16.5-8.4-19.8
		c-7.3-3.1-15.4-0.4-19.5,6.3c-3.8,6.2-3.4,14.6,2.7,19.2c5.4,4.1,14,4.3,19.1-0.5c5.3-5,5-14.6-0.9-19.1
		c-6.2-4.6-16.7-0.8-17.3,7.3c-0.6,7.6,8.9,13,15.1,8.6c1.1-0.8,1.6-2.1,0.9-3.4c-3.2-6.2-12.3-7.3-16.7-1.7
		c-1.1,1.4-0.9,2.9,0.5,3.9c4,3,10,4.6,13.4-0.2c2.2-3.2,1.3-7.6-2.6-8.9c-3.2-1-7.1,1-6.8,4.7c0.4,3.6,4.8,5.3,7.9,3.9
		c3.9-1.7,4-6.6,1.5-9.5c-3.3-3.9-8.7-3.1-12.6-0.6c-3.3,2.2-5.9,6.1-3.1,9.8c3.7,4.9,9.7,2.3,13.6-0.7c0.9-0.7,1.5-1.7,1.1-2.8
		c-2.3-7.4-10.6-10.8-17.5-7.2c-1.2,0.6-1.6,2.3-0.9,3.4c5.2,8.3,18.4,6.6,21.5-2.5c1.1-3-3.8-4.4-4.8-1.3
		c-1.7,5.1-9.6,5.8-12.4,1.3c-0.3,1.1-0.6,2.3-0.9,3.4c3.9-2.1,8.8,0,10.1,4.2c0.4-0.9,0.8-1.9,1.1-2.8c-0.8,0.6-1.5,1.2-2.4,1.7
		c-0.7,0.3-1.3,0.6-2,1c-2.2-1.5-2.4-2.6-0.8-3.3c0.6-0.6,1.4-0.9,2.3-1c1.9-1,2.1-0.2,0.6,2.3c0.2,2.6-0.4,3.3-1.8,2.2
		c-0.8-0.4-1.6-0.9-2.3-1.5c0.2,1.3,0.3,2.6,0.5,3.9c2.4-3.1,7-2.8,8.8,0.7c0.3-1.1,0.6-2.3,0.9-3.4c-4.8,3.4-10.5-3.8-5.4-7.4
		c5.4-3.8,10.9,1.9,9.6,7.6c-2.4,10.7-19.9,5.9-17.5-4.9c2.4-10.8,18.7-12.4,21.1-0.7c1.3,6-3.4,12.3-9.8,11.2
		c-2.8-0.5-5.1-2.5-4.6-5.6c0.2-1,0.7-2.1,1.4-2.8c0.7-0.8,6.4-4.6,5.5,1C230.6,1020.6,235.4,1021.9,235.9,1018.8L235.9,1018.8z"/>
	<path d="M222.8,1026.1c1,8.4,2.4,19.9-6.2,25.1c-8.9,5.4-14.4-5.3-16.7-12.2c-1-3-5.9-1.7-4.8,1.3c3.1,9,9.7,20.3,21.1,16.6
		c13-4.3,13-19.8,11.7-30.9C227.5,1023,222.5,1022.9,222.8,1026.1L222.8,1026.1z"/>
	<path d="M226,1030.4c0.2,10.2,3.7,22.9,14.4,26.6c8.2,2.8,18.6-0.8,20.8-9.7c0.8-3.1-4-4.5-4.8-1.3c-1.7,6.8-10.4,8.6-16.1,5.5
		c-7.3-4-9.2-13.6-9.3-21.2C231,1027.2,226,1027.2,226,1030.4L226,1030.4z"/>
	<path d="M208.8,973.8c11.1-9.2,27.4-9.2,38.8-0.8c2.6,1.9,5.1-2.4,2.5-4.3c-13.4-9.9-32.2-9-44.9,1.5
		C202.8,972.3,206.3,975.8,208.8,973.8L208.8,973.8z"/>
	<path d="M211.3,977.2c10.1-7,22.6-8.5,34-4.1c3,1.2,4.3-3.7,1.3-4.8c-12.6-4.8-26.8-3.1-37.9,4.6
		C206.2,974.7,208.7,979,211.3,977.2L211.3,977.2z"/>
	<path class="st0" d="M260.8,960.7c6.4-4.6,13.5-7.6,21.3-8.6c3.1-0.4,3.2-5.4,0-5c-8.7,1.1-16.7,4.1-23.8,9.3
		C255.7,958.3,258.2,962.6,260.8,960.7L260.8,960.7z"/>
	<path class="st0" d="M98.5,965.2c0.9-2.9,3.5-5.4,6.6-5.8c1.4-0.2,2.5-1,2.5-2.5c0-1.2-1.2-2.7-2.5-2.5c-5.4,0.7-9.8,4.2-11.4,9.4
		C92.7,967,97.6,968.3,98.5,965.2L98.5,965.2z"/>
	<path d="M1057.2,940.3c-12.6-5.2-21,11.8-21,21.9c0,11.3,9.1,22,21.1,20.3c12.4-1.7,18.2-17.9,16.2-28.8c-2-11.2-13.8-19.8-25-15.2
		c-2.9,1.2-1.7,6,1.3,4.8c8.1-3.3,16.5,2.1,18.5,10.2c2,7.9-1.5,21.1-10.2,23.7c-8.8,2.7-16.3-5.3-16.9-13.5
		c-0.6-7.3,4.7-22.8,14.6-18.6C1058.8,946.4,1060.1,941.5,1057.2,940.3L1057.2,940.3z"/>
	<path d="M1049.3,956.4c-0.4,4.1-0.1,8.1,0.8,12.1c0.5,2,2.8,2.2,4.2,1.1c5.9-4.9,6.3-14,1.2-19.6c-1.4-1.5-3.6-0.5-4.2,1.1
		c-1.8,4.8-6.2,21.2,4.5,19c3.1-0.6,5.6-3,6.2-6.2c0.8-4.5-2.2-8.5-5-11.6c-1.3-1.5-3.7-0.6-4.2,1.1c-1.6,5.3-0.9,10.7,1.9,15.5
		c1,1.7,3.3,1.5,4.3,0c2.9-4.1,5.7-10.6,0.7-14.5c-4.2-3.2-10.2,0.6-9,5.7c0.8,3.1,5.6,1.8,4.8-1.3c0.4-0.2,0.7-0.3,1.1-0.5
		c0.4,0.3,0.6,0.7,0.7,1.1c0.3,0.8,0.2,1.6,0,2.4c-0.4,1.7-1.6,3.2-2.6,4.5c1.4,0,2.9,0,4.3,0c-2.1-3.6-2.6-7.6-1.4-11.6
		c-1.4,0.4-2.8,0.7-4.2,1.1c1.4,1.6,3,3.5,3.5,5.6c0.3,1.3-0.2,4.3-2.4,3.8c-2.7-0.6,0.9-11,1.6-12.8c-1.4,0.4-2.8,0.7-4.2,1.1
		c3.3,3.7,2.5,9.5-1.2,12.6c1.4,0.4,2.8,0.7,4.2,1.1c-0.9-3.6-1-7.1-0.6-10.7C1054.7,953.2,1049.7,953.2,1049.3,956.4L1049.3,956.4z
		"/>
	<path d="M916.3,940.3c-12.6-5.2-21,11.8-21,21.9c0,11.3,9.1,22,21.1,20.3c12.4-1.7,18.2-17.9,16.2-28.8c-2-11.2-13.8-19.8-25-15.2
		c-2.9,1.2-1.7,6,1.3,4.8c8.1-3.3,16.5,2.1,18.5,10.2c2,7.9-1.5,21.1-10.2,23.7c-8.8,2.7-16.3-5.3-16.9-13.5
		c-0.6-7.3,4.7-22.8,14.6-18.6C918,946.4,919.2,941.5,916.3,940.3L916.3,940.3z"/>
	<path d="M908.4,956.4c-0.4,4.1-0.1,8.1,0.8,12.1c0.5,2,2.8,2.2,4.2,1.1c5.9-4.9,6.3-14,1.2-19.6c-1.4-1.5-3.6-0.5-4.2,1.1
		c-1.8,4.8-6.2,21.2,4.5,19c3.1-0.6,5.6-3,6.2-6.2c0.8-4.5-2.2-8.5-5-11.6c-1.3-1.5-3.7-0.6-4.2,1.1c-1.6,5.3-0.9,10.7,1.9,15.5
		c1,1.7,3.3,1.5,4.3,0c2.9-4.1,5.7-10.6,0.7-14.5c-4.2-3.2-10.2,0.6-9,5.7c0.8,3.1,5.6,1.8,4.8-1.3c0.4-0.2,0.7-0.3,1-0.5
		c0.4,0.3,0.6,0.7,0.7,1.1c0.3,0.8,0.2,1.6,0,2.4c-0.4,1.7-1.6,3.2-2.6,4.5c1.4,0,2.9,0,4.3,0c-2.1-3.6-2.6-7.6-1.4-11.6
		c-1.4,0.4-2.8,0.7-4.2,1.1c1.4,1.6,3,3.5,3.5,5.6c0.3,1.3-0.2,4.3-2.4,3.8c-2.7-0.6,0.9-11,1.6-12.8c-1.4,0.4-2.8,0.7-4.2,1.1
		c3.3,3.7,2.5,9.5-1.2,12.6c1.4,0.4,2.8,0.7,4.2,1.1c-0.9-3.6-1-7.1-0.6-10.7C913.8,953.2,908.8,953.2,908.4,956.4L908.4,956.4z"/>
	<path d="M986.2,994.8c-3.2-4.2-7.8-5.5-12.6-3.4c-0.8,0.4-1.2,1.3-1.2,2.2c-1.2,12,14.4,19.1,21.9,8.9c8.2-11.3-8.9-22.1-18.1-14.1
		c-8.4,7.4-1.1,22.7,10,17.7c10.3-4.6,2-21.5-7.1-15.3c-3.6,2.4-3.6,7.7-0.5,10.6c3.8,3.6,9.9,1.4,12.1-2.9c2-3.9-0.5-9.1-5.4-8
		c-4.7,1.1-5.2,7.3-1.9,10.2c8.3,7.3,17.9-5.8,13.1-13.7c-6.5-10.5-23.7-0.6-23.4,9.8c0.4,14,21.6,11.2,27.6,3.2
		c3.3-4.3,3.5-11.5-1.3-14.8c-4.5-3.1-10.9-0.8-12.3,4.4c-0.9,3.1,4,4.4,4.8,1.3c0.3-1.2,1.9-2.2,3.2-2.1c2.2,0.2,3.1,3,3,4.7
		c-0.2,2.6-2,4.6-4.2,6c-3.4,2.2-8.3,3.2-12.1,1.7c-7.1-2.8-2.1-10.5,2.8-12.6c5.1-2.1,11.2,1.9,7.2,7.3c-1.7,2.3-7.2,3.2-9.1,1.3
		c-1.8-0.8-1.8-1.3-0.1-1.7c0.8-0.9,1.5-0.9,2.1,0c1.2,0.7,1.9,2.5,1.5,3.9c-0.7,2.8-4.6,3.3-6.7,1.9c-3.2-2-2.3-6.6,0-8.8
		c2.3-2.2,5.6-2.3,8.5-1c4.4,2.1,4.3,7.5,0.3,9.9c-5.7,3.5-11.4-1.9-10.7-7.8c-0.4,0.7-0.8,1.4-1.2,2.2c2.1-0.9,4.5-0.2,5.8,1.6
		C983.8,999.8,988.1,997.4,986.2,994.8L986.2,994.8z"/>
	<path d="M957.2,1020.5c-2.1,12.5,11.7,20.6,22.4,15.3c13.7-6.7,14.1-23.3,11.7-36.3c-0.6-3.2-5.4-1.8-4.8,1.3
		c1.7,9.1,2.3,19.7-4.5,26.9c-2.9,3.1-7.2,5.5-11.6,4.7c-4.9-0.9-9.3-5.5-8.4-10.7C962.5,1018.7,957.7,1017.4,957.2,1020.5
		L957.2,1020.5z"/>
	<path d="M987.1,1007.1c1.4,10.1,6.3,27.9,18.3,30c10.5,1.9,15.7-9.9,18-18c0.9-3.1-3.9-4.4-4.8-1.3c-1.8,6.4-6.8,19-15.5,13
		c-7.3-5-10.1-16.8-11.2-25C991.4,1002.6,986.6,1003.9,987.1,1007.1L987.1,1007.1z"/>
	<path d="M905.9,908.6c-2.9-18.8,10.6-36.9,20.6-51.6c9.7-14.2,21.7-25.9,38.4-31.3c30.7-9.9,64.2,1.9,81.9,28.7
		c9.8,14.8,14.5,32.6,13.4,50.3c-0.2,3.2,4.8,3.2,5,0c2.2-33.7-16.6-68.5-48.3-81.7c-15.4-6.4-32.9-7.5-49.1-3.4
		c-17.3,4.5-31,15-41.6,29.2c-6.9,9.3-13.4,19.3-18.6,29.6c-5,9.9-8.1,20.3-6.4,31.4C901.6,913.1,906.4,911.7,905.9,908.6
		L905.9,908.6z"/>
	<path d="M901.2,907.6c22.4,24,50.4,51,86,48.1c15.8-1.3,30.2-8.6,42.9-17.7c6.4-4.6,12.6-9.7,18.5-15c5.5-4.9,10.5-10.2,12.4-17.4
		c0.8-3.1-4-4.4-4.8-1.3c-1.9,7.2-7.5,12.1-12.9,16.8c-5.7,5-11.5,9.8-17.7,14c-12.3,8.6-26.4,15.4-41.7,15.7
		c-33,0.7-58.2-24.5-79.1-46.9C902.5,901.7,899,905.2,901.2,907.6L901.2,907.6z"/>
	<path d="M955.8,904.6c-2.7-31.2,10.7-62.1,35.1-81.6c2.5-2-1-5.5-3.5-3.5c-25.3,20.2-39.3,52.8-36.6,85.1
		C951.1,907.8,956.1,907.8,955.8,904.6L955.8,904.6z"/>
	<path d="M987.8,823.8c22.1,19.6,40,51.6,35.9,82c-0.4,3.1,4.4,4.5,4.8,1.3c4.4-32.3-13.5-65.9-37.2-86.8
		C989,818.1,985.4,821.6,987.8,823.8L987.8,823.8z"/>
	<path d="M984.5,819c-0.5,1-1.5,1.1-2.4,0.6c-1.6-1-0.8-2.9,0.2-4c2.3-2.7,6.4-2.2,9.5-1.7c0.7,0.1,2.9,0.2,3.4,0.8
		c0.3,0.1,0.5,0.2,0.7,0.4c-0.5,0.5-1.1,0.9-1.8,1.3c-2.5,1.5-8.5,3.1-8.5-1.8c-0.4,0.7-0.8,1.4-1.2,2.2c3.9-1.8,8.1-1.8,12,0
		c-0.2-1.3-0.3-2.6-0.5-3.9c-1.9,1.5-3.9,2-6.3,1.9c-3.2-0.1-3.2,4.9,0,5c3.8,0.2,6.9-1,9.9-3.3c1.2-0.9,0.9-3.3-0.5-3.9
		c-5.7-2.6-11.4-2.6-17.1,0c-0.8,0.4-1.2,1.3-1.2,2.2c-0.1,9.2,10.6,9.8,16.6,5.8c2.4-1.6,4.8-3.9,3.5-7.1c-1.4-3.3-5.7-4-8.8-4.4
		c-6.5-1-16.8,1.5-15.5,10.2c0.9,5.8,9.8,8.3,12.5,2.4C990.1,818.7,985.8,816.1,984.5,819L984.5,819z"/>
	<path d="M988.3,826.4c-10.1,9.4-18.7,20.2-25.8,32c-1.6,2.6,1.8,4.7,3.9,3c9.1-7.4,17.7-15.2,26-23.5c-1.2-1.2-2.4-2.4-3.5-3.5
		c-10.3,13.1-20.5,26.2-30.8,39.3c-1.8,2.3,0.4,5.1,3,3.9c16-6.9,20.2-26.4,35-34.7c-1.1-1.1-2.3-2.3-3.4-3.4
		c-12.3,17.3-24.6,34.6-37,52c-1.6,2.3,2.1,5.2,3.9,3c14.2-17.4,28.3-34.9,42.5-52.3c-1.3-1-2.6-2-3.9-3
		c-11.1,15.6-22.3,31.1-33.4,46.7c1.4,0.8,2.9,1.7,4.3,2.5c9.1-12.9,19.6-24.6,31.4-35.2c-1.3-1-2.6-2-3.9-3
		c-7.5,12.4-15.6,24.4-24.4,35.9c-1.7,2.3,2,5.1,3.9,3c10.1-10.8,20.1-21.7,30.2-32.5c-1.3-1-2.6-2-3.9-3
		c-7.2,15.2-16.4,29.2-27.5,41.8c-2.1,2.4,1.3,5.9,3.5,3.5c10.9-11.6,21.8-23.2,32.7-34.7c-1.3-1-2.6-2-3.9-3
		c-8.2,12.2-16.4,24.5-24.5,36.7c-1.8,2.7,2.4,5,4.3,2.5c7.8-10.1,16.6-19.3,26.4-27.5c-1.4-0.8-2.8-1.6-4.2-2.4
		c-3.5,9.4-8.5,17.9-14.9,25.6c-2.1,2.5,1.1,5.7,3.5,3.5c5.7-5,11.4-10,17.1-15c-1.3-1-2.6-2-3.9-3c-2.3,4.8-4.7,9.6-7,14.3
		c-1,2,1.2,5,3.4,3.4c3.2-2.3,6.5-4.6,9.7-6.9c-1.2-0.9-2.4-1.9-3.7-2.8c-1.1,4-2.7,7.6-4.8,11.1c-1.1,1.8,0.7,4.3,2.8,3.7
		c2.4-0.7,4.4-1.7,6.4-3.2c-1.2-0.5-2.4-1-3.7-1.5c0.5,1.4,0.9,2.8,1.4,4.2c0.6,1.8,3.6,2.7,4.6,0.6c2.6-5.5,6-12.4,5.7-18.6
		c-0.2-3.8-2.3-8.1-6.6-7.6c0.7,1.3,1.4,2.5,2.2,3.8c3.8-7.1,0.3-15.2-5-20.6c-4.1-4.2-11.5-5.5-13.8,1.2c1.6,0.2,3.3,0.4,4.9,0.7
		c0.6-10.1-2.8-19.7-9.6-27.2c-1.9-2.1-5.7,0.8-3.9,3c9.4,12.2,15.5,26.5,17.4,41.8c1.6-0.2,3.3-0.4,4.9-0.7
		c-0.3-1.8-0.6-3.6-0.8-5.4c-0.2-1.2-1.4-1.7-2.4-1.8c-2.9-0.3-5.2,1-6.9,3.4c-2.9,4.3-1.5,8.5-7.2,11c-4.6,2-10.3,2.7-15.1,4
		c-5,1.3-10.1,2.7-15.1,4c0.8,1.4,1.6,2.8,2.4,4.2c5.7-5,11.5-10,17.2-15c-1.2-1.2-2.4-2.4-3.5-3.5c-9,9-20.2,14.8-32.7,17
		c-2,0.4-2.2,2.9-1.1,4.2c5.1,6.2,14,3.1,20.6,1.3c11-3,22-6,32.9-8.9c-0.6-1.5-1.3-3-1.9-4.6c-7.3,4.5-15,7.6-23.3,9.5
		c0.4,1.6,0.9,3.2,1.3,4.8c7.8-2.2,15.6-4.4,23.4-6.6c-1-1-2.1-2.1-3.1-3.1c-2.8,7-16.4,3.9-21.8,2.7c-4.2-1-8.6-2.6-11.1-6.3
		c-2.4-3.5-2.9-8.2,0.2-11.4c-1.4-0.8-2.8-1.6-4.2-2.4c-1,3.7-2,7.4-3,11.1c-0.5,1.7,0.8,3,2.4,3.2c4.8,0.4,9.2-0.7,13.2-3.4
		c2.6-1.8,0.3-6-2.5-4.3c-2.9,1.8-6.3,3.9-9.6,4.5c-2.6,0.5-5.2,0-4.8-3.1c0.2-1.5,0.6-2.9,0.9-4.3c1.1-5.4,2.3-10.7,3.9-16
		c3.4-11.4,8.7-23,18.4-30.4c1.7-1.3,4.9-3.1,7.1-2.3c1.3,0.4,2.6,2.6,3.5,3.7c2.2,2.8,4.3,5.8,6.2,8.9c3.5,5.6,6.3,11.6,8.5,17.9
		c4.4,12.5,6.2,25.6,5.3,38.8c-0.2,2.9,4,3.2,4.9,0.7c1.9-5.7,3-11.4,3.3-17.4c-1.6,0.2-3.3,0.4-4.9,0.7c0.8,3.9,0.8,7.6,0,11.5
		c-0.6,3.1,4.2,4.5,4.8,1.3c0.9-4.8,0.9-9.4,0-14.2c-0.6-2.9-4.8-2-4.9,0.7c-0.2,5.6-1.3,10.9-3.1,16.1c1.6,0.2,3.3,0.4,4.9,0.7
		c0.9-13.6-0.9-27.3-5.5-40.2c-2.3-6.4-5.1-12.6-8.6-18.4c-2.9-4.8-6.5-11.5-11.3-14.7c-9.5-6.4-20.9,8.9-25.2,15.8
		c-6.4,10.5-9.5,22.8-12,34.7c-1,4.6-3.5,12.2,2.3,14.8c5.5,2.4,13.9-2.6,18.4-5.4c-0.8-1.4-1.7-2.9-2.5-4.3
		c-3.3,2.2-6.7,3.1-10.7,2.7c0.8,1.1,1.6,2.1,2.4,3.2c1-3.7,2-7.4,3-11.1c0.7-2.4-2.4-4.2-4.2-2.4c-4,4-4.5,9.6-2.4,14.6
		c2.3,5.5,7.1,8.8,12.6,10.6c9.1,3,26.3,6,30.8-5.4c0.7-1.8-1.4-3.5-3.1-3.1c-7.8,2.2-15.6,4.4-23.4,6.6c-3.1,0.9-1.8,5.5,1.3,4.8
		c8.7-2,16.9-5.3,24.5-10c2.4-1.5,0.9-5.3-1.9-4.6c-8.5,2.3-16.9,4.6-25.4,6.9c-5.7,1.5-18.6,7.6-23.2,2c-0.4,1.4-0.7,2.8-1.1,4.2
		c13.3-2.4,25.4-8.8,34.9-18.3c2.3-2.3-1.1-5.6-3.5-3.5c-5.7,5-11.5,10-17.2,15c-1.9,1.7,0.1,4.8,2.4,4.2c9.4-2.5,18.9-5,28.3-7.5
		c2.9-0.8,6-1.4,8-3.9c1.9-2.3,2.6-11.2,6.6-10.8c-0.8-0.6-1.6-1.2-2.4-1.8c0.3,1.8,0.6,3.6,0.8,5.4c0.4,2.8,5.3,2.1,4.9-0.7
		c-2-16.2-8.1-31.4-18.1-44.3c-1.3,1-2.6,2-3.9,3c5.9,6.6,8.7,14.9,8.1,23.7c-0.2,2.9,4,3.2,4.9,0.7c1.5-4.3,7.5,3.4,8.2,4.7
		c2.1,3.3,3.4,7.2,1.4,10.9c-0.8,1.5,0.2,4,2.2,3.8c4.7-0.6-2.8,17.5-3.3,18.7c1.5,0.2,3,0.4,4.6,0.6c-0.5-1.4-0.9-2.8-1.4-4.2
		c-0.5-1.4-2.3-2.5-3.7-1.5c-1.7,1.3-3.1,2-5.2,2.7c0.9,1.2,1.9,2.4,2.8,3.7c2.3-3.9,4.1-7.9,5.3-12.3c0.5-2-1.8-4.1-3.7-2.8
		c-3.2,2.3-6.5,4.6-9.7,6.9c1.1,1.1,2.3,2.3,3.4,3.4c2.3-4.8,4.7-9.6,7-14.3c1.2-2.6-1.7-4.9-3.9-3c-5.7,5-11.4,10-17.1,15
		c1.2,1.2,2.4,2.4,3.5,3.5c7-8.4,12.4-17.6,16.2-27.8c1-2.6-2.5-3.9-4.2-2.4c-10.1,8.5-19.2,18-27.2,28.5c1.4,0.8,2.9,1.7,4.3,2.5
		c8.2-12.2,16.4-24.5,24.5-36.7c1.6-2.4-2-5.1-3.9-3c-10.9,11.6-21.8,23.2-32.7,34.7c1.2,1.2,2.4,2.4,3.5,3.5
		c11.4-12.9,20.9-27.2,28.3-42.8c1.1-2.4-1.9-5.2-3.9-3c-10.1,10.8-20.1,21.7-30.2,32.5c1.3,1,2.6,2,3.9,3
		c8.8-11.5,16.9-23.5,24.4-35.9c1.5-2.5-1.9-4.9-3.9-3c-12.1,10.8-22.8,23-32.1,36.2c-1.9,2.6,2.5,5.1,4.3,2.5
		c11.1-15.6,22.3-31.1,33.4-46.7c1.6-2.3-2.1-5.2-3.9-3c-14.2,17.4-28.3,34.9-42.5,52.3c1.3,1,2.6,2,3.9,3
		c12.3-17.3,24.6-34.6,37-52c1.5-2.1-1.4-4.6-3.4-3.4c-14.8,8.4-19.2,27.9-35,34.7c1,1.3,2,2.6,3,3.9c10.3-13.1,20.5-26.2,30.8-39.3
		c1.9-2.5-1.2-5.9-3.5-3.5c-8.3,8.3-16.9,16.1-26,23.5c1.3,1,2.6,2,3.9,3c6.9-11.5,15.3-21.8,25-31
		C994.2,827.7,990.6,824.2,988.3,826.4L988.3,826.4z"/>
	<path d="M1087.9,913.3c5.1-8.9,10.2-17.7,15.3-26.6c-1.4,0-2.9,0-4.3,0c4,8,7,16.4,9,25.1c0.8-1.1,1.6-2.1,2.4-3.2
		c-6.8,0.3-13.5,0-20.2-1c0.5,1.2,1,2.4,1.5,3.7c2.9-6.1,5.9-12.2,8.8-18.3c-1.6-0.4-3.1-0.8-4.7-1.3c-0.7,5.3-1.4,10.7-2.1,16
		c-0.3,2.3,2.8,3.1,4.3,1.8c4-3.6,6.1-8.1,6.6-13.4c0.3-2.8-4.5-3.5-4.9-0.7c-0.5,2.9-0.9,5.9-1.4,8.8c1.6,0,3.2,0,4.8,0
		c0-0.3-0.1-0.5-0.1-0.8c-0.2,0.8-0.4,1.6-0.6,2.4c-2.1,2.2,0.1,5.3,2.3,6.4c2.3,1.2,4.4-1.2,3.4-3.4c-2.7-6-5.4-12.1-8.1-18.1
		c-1.1-2.4-4.5-1-4.7,1.3c-0.4,7.6,1.5,14.7,5.6,21c0.5-1.2,1-2.4,1.5-3.7c-0.7-0.3-1.3-0.5-2-0.8c-0.8,1.1-1.6,2.1-2.4,3.2
		c1.8-0.1,3.7-0.2,5.5-0.2c3.2-0.1,3.2-5.1,0-5c-1.8,0.1-3.7,0.2-5.5,0.2c-1.5,0.1-3,1.6-2.4,3.2c1.3,3.5,4.4,5.4,8.1,4.3
		c1.5-0.4,2.4-2.3,1.5-3.7c-3.7-5.7-5.3-11.8-5-18.5c-1.6,0.4-3.1,0.8-4.7,1.3c2.7,6,5.4,12.1,8.1,18.1c1.1-1.1,2.3-2.3,3.4-3.4
		c-1-0.5-1.2-4.6-2.1-5.6c-0.8-0.9-1.8-1.5-3-1.5c-2.9,0-4.1,2.3-3.8,4.8c0.3,2.4,4.4,2.4,4.8,0c0.5-2.9,0.9-5.9,1.4-8.8
		c-1.6-0.2-3.3-0.4-4.9-0.7c-0.4,4-2.1,7.2-5.1,9.9c1.4,0.6,2.8,1.2,4.3,1.8c0.7-5.3,1.4-10.7,2.1-16c0.3-2.5-3.6-3.4-4.7-1.3
		c-2.9,6.1-5.9,12.2-8.8,18.3c-0.6,1.3-0.2,3.4,1.5,3.7c7.2,1.1,14.3,1.6,21.5,1.2c1.7-0.1,2.8-1.5,2.4-3.2
		c-2.1-9.2-5.3-17.9-9.5-26.3c-0.9-1.7-3.4-1.5-4.3,0c-5.1,8.9-10.2,17.7-15.3,26.6C1082,913.6,1086.3,916.1,1087.9,913.3
		L1087.9,913.3z"/>
	<path d="M869.9,909.7c0.9-6.5,1.8-13,2.7-19.5c-1.2,0.5-2.4,1-3.7,1.5c3.3,2.3,7,4.9,8.5,8.8c0.9,2.3,1.1,4.9-0.6,6.9
		c-1.3,1.5-3.7,2-5.3,0.6c-0.2,1.3-0.3,2.6-0.5,3.9c5.5-3.7,8.1-10,6.5-16.6c-0.6-2.7-5-2.2-4.9,0.7c0.2,3.4,1,6.4,2.8,9.3
		c1.2,1.9,5,1.3,4.7-1.3c-0.5-4-2.1-7.2-5.3-9.7c-1.5-1.2-4.5-0.6-4.3,1.8c0.3,2.7,1.1,4.7,3.2,6.5c2,1.7,5.7-0.6,3.9-3
		c-0.8-1.1-1.6-2.2-2.4-3.3c-1.4-1.9-4.6-1.4-4.7,1.3c-0.1,3.5-0.1,7-0.2,10.5c1.6-0.2,3.3-0.4,4.9-0.7c-0.5-1.2-0.1-2.1,1.1-2.7
		c3-1.1,1.7-6-1.3-4.8c-3.7,1.4-5.8,4.9-4.6,8.8c0.8,2.7,4.9,2.2,4.9-0.7c0.1-3.5,0.1-7,0.2-10.5c-1.6,0.4-3.1,0.8-4.7,1.3
		c0.8,1.1,1.6,2.2,2.4,3.3c1.3-1,2.6-2,3.9-3c-1-0.7-1.6-1.7-1.7-3c-1.4,0.6-2.8,1.2-4.3,1.8c2,1.6,3.4,3.6,3.8,6.2
		c1.6-0.4,3.1-0.8,4.7-1.3c-1.3-2.2-2-4.3-2.1-6.8c-1.6,0.2-3.3,0.4-4.9,0.7c1,4.2-0.6,8.5-4.2,10.9c-1.2,0.8-1.8,2.8-0.5,3.9
		c5,4.4,12.8,1.8,14.6-4.5c2.5-8.7-5-15.1-11.2-19.6c-1.2-0.9-3.5,0-3.7,1.5c-0.9,6.5-1.8,13-2.7,19.5
		C864.6,911.5,869.4,912.9,869.9,909.7L869.9,909.7z"/>
	<path d="M1073.9,1009.6c10-0.1,19.3,4.4,25.2,12.4c1.9,2.6,6.2,0.1,4.3-2.5c-7-9.5-17.7-15-29.5-14.9
		C1070.7,1004.6,1070.7,1009.6,1073.9,1009.6L1073.9,1009.6z"/>
	<path d="M1066.8,1029.3c7.3,3.5,13.5,8.3,18.6,14.5c2.1,2.5,5.6-1.1,3.5-3.5c-5.4-6.5-12-11.6-19.6-15.3
		C1066.4,1023.6,1063.9,1027.9,1066.8,1029.3L1066.8,1029.3z"/>
	<path d="M1063.2,1046c2.9,4.9,5.8,9.9,8.7,14.8c1.6,2.8,6,0.3,4.3-2.5c-2.9-4.9-5.8-9.9-8.7-14.8
		C1065.9,1040.7,1061.5,1043.2,1063.2,1046L1063.2,1046z"/>
	<path d="M905.5,1001.3c-13.6,1.1-26,7.1-35.3,17.1c-2.2,2.4,1.3,5.9,3.5,3.5c8.3-9,19.5-14.6,31.7-15.7
		C908.7,1006,908.7,1001,905.5,1001.3L905.5,1001.3z"/>
	<path d="M889.5,1043.8c5.2-9.2,12.4-16.7,21.4-22.4c2.7-1.7,0.2-6-2.5-4.3c-9.7,6.1-17.6,14.2-23.2,24.2
		C883.6,1044.1,887.9,1046.6,889.5,1043.8L889.5,1043.8z"/>
	<path d="M905,1054.5c2.6-6.3,6.4-11.8,11.2-16.6c2.3-2.3-1.2-5.8-3.5-3.5c-5.5,5.4-9.6,11.7-12.5,18.8
		C899,1056.1,903.8,1057.4,905,1054.5L905,1054.5z"/>
	<path d="M592.6,859.3c-3.6-0.9-4.9-4.2-5.6-7.6c-0.4-1.8-0.5-3.7-0.5-5.5c0-0.7,0-1.4,0.1-2.1c0.2-1.4,1.1-3.7,3.1-3.4
		c1.8,0.3,4.3,4,5.8,5.1c2.2,1.6,4.7,2.6,7.4,2c6.4-1.2,9-7.8,9.5-13.6c0.8-9.1,1.3-17.8,4.1-26.7c0.7-2.1,1.3-4.4,2.4-6.3
		c1.8-3.2,4.2-2.6,6.6-0.6c2.3,1.9,3.6,3.9,6.6,5c6.1,2.3,11.3,0.2,16.2-3.6c10.7-8.1,16.9,4.4,17.3,13.9c0.3,7.6-1.2,16.5,3.2,23.2
		c1.6,2.5,4.2,4.8,7.3,5.2c1.4,0.2,2.5-0.2,3.8-0.6c1.8-0.5,1.3-0.7,2.2,0.3c0.7,0.8,0.6,3.3,0.6,4.2c0.1,9-5.7,17.6-14,20.9
		c-2.9,1.2-1.7,6,1.3,4.8c7.3-2.9,12.9-8.4,15.8-15.8c1.9-5,4.3-17.3-2.5-20.1c-1.6-0.7-2.4-0.1-3.9,0.2c-4.2,1-6.2-0.3-7.6-4.5
		c-2-5.9-0.9-12.6-1.2-18.7c-0.4-8.1-3.2-17-11.6-20.1c-3.3-1.2-6.9-1.1-10,0.6c-4.6,2.4-7.5,6.9-13.3,5.8c-5.3-1-5.9-5.8-10-8
		c-3-1.6-6.3-0.4-8.6,1.9c-6.3,6.3-7.9,18.6-8.9,27c-0.6,5,0.2,11-1.5,15.8c-1.3,3.6-4.8,6-8.3,3.4c-1.7-1.3-3-3.1-4.7-4.4
		c-6.6-4.9-11.8,0.8-12,7.7c-0.3,7.3,1.6,17.1,9.8,19.1C594.4,864.9,595.7,860.1,592.6,859.3L592.6,859.3z"/>
	<path d="M606.3,846.5c12,1.8,24.1,2.9,36.3,2.9c9.8,0.1,22.5,1.2,30.8-5c2.5-1.9,0.1-6.3-2.5-4.3c-7.9,5.9-20.9,4.5-30.2,4.3
		c-11.1-0.2-22.1-1.1-33-2.8C604.5,841.2,603.1,846,606.3,846.5L606.3,846.5z"/>
	<path d="M609.4,830.2c19.1,6.6,39.4,7.8,59.1,3.5c3.1-0.7,1.8-5.5-1.3-4.8c-18.9,4-38.2,2.8-56.4-3.5
		C607.7,824.3,606.4,829.1,609.4,830.2L609.4,830.2z"/>
	<path d="M613.9,828.5c-1.4,3.7-2.6,7.4-3.4,11.3c-0.5,2.4,2.3,4.2,4.2,2.4c2.2-2.2,4.4-4.3,6.7-6.5c-1.2-1.2-2.4-2.4-3.5-3.5
		c-2.6,2.9-3.9,6-4,9.9c-0.1,2.1,2.9,3.4,4.3,1.8c2.3-2.6,4.6-5.3,6.8-7.9c-1.4-0.4-2.8-0.7-4.2-1.1c0.6,2.1,0.6,4.2,0,6.3
		c-0.7,2.4,2.4,4.2,4.2,2.4c2.5-2.5,4.5-5.1,6.3-8.2c-1.6-0.4-3.1-0.8-4.7-1.3c-0.3,2.5-0.5,4.9-0.8,7.4c-0.3,2.4,2.8,3,4.3,1.8
		c1.9-1.7,3.9-3.3,5.8-5c-1.4-0.6-2.8-1.2-4.3-1.8c-0.2,2.5-0.4,4.9-0.6,7.4c-0.2,2.4,2.8,3,4.3,1.8c2.5-2,4.6-4.2,6.6-6.8
		c-1.3-1-2.6-2-3.9-3c-1.1,2.6-1.8,5.1-2.2,7.9c-0.2,1.9,2.3,3.1,3.8,2.2c2.8-1.7,5.1-3.6,7.3-6c-1.4-0.6-2.8-1.2-4.3-1.8
		c-0.2,2.3-0.7,4-1.5,6.1c-0.9,2.4,2.5,4.2,4.2,2.4c2.5-2.6,5-5.2,7.4-7.8c-1.4-0.8-2.8-1.6-4.2-2.4c-0.4,2.3-0.8,4.6-1.2,6.9
		c-0.3,1.9,1.7,4.3,3.7,2.8c1.8-1.4,3.7-2.7,5.5-4.1c-1.3-0.7-2.5-1.4-3.8-2.2c-0.2,2,0.2,3.4,1,5.1c0.7,1.4,2.9,1.6,3.9,0.5
		c2.5-2.8,4.7-5.8,6.6-9.1c-1.6-0.4-3.1-0.8-4.7-1.3c0,1.3-0.1,2.7-0.1,4c-0.1,2.8,4.4,3.5,4.9,0.7c0.5-0.9,1-1.9,1.5-2.8
		c-1.4-0.4-2.8-0.7-4.2-1.1c0.5,3.2,1,6.3,1.6,9.5c0.3,2,2.9,2.2,4.2,1.1c2.1-1.8,2.9-3.7,2.8-6.4c0-1.8-1.6-2.7-3.2-2.4
		c-3.1,0.5-6.2,1-9.3,1.4c1,1,2.1,2.1,3.1,3.1c0.5-2.5,0.7-4.8,0.6-7.4c-0.1-1.5-1.6-3-3.2-2.4c-2.9,1.1-4.6,2.9-5.6,5.8
		c-0.7,2,1.3,3.3,3.1,3.1c2-0.3,4-0.6,6-0.9c1.8-0.3,2.5-3.1,1.1-4.2c-4.7-3.7-9.8-2.9-15.3-1.4c-9,2.5-17.5,3.2-26.6,1.2
		c-3.1-0.7-4.5,4.1-1.3,4.8c6.5,1.4,13,1.9,19.5,1c5.4-0.7,15.4-5.8,20.2-2c0.4-1.4,0.7-2.8,1.1-4.2c-2,0.3-4,0.6-6,0.9
		c1,1,2.1,2.1,3.1,3.1c0.7-0.8,1.4-1.6,2.1-2.3c-1.1-0.8-2.1-1.6-3.2-2.4c0.1,2.1,0,3.9-0.4,6c-0.4,2,1.2,3.4,3.1,3.1
		c3.1-0.5,6.2-1,9.3-1.4c-1.1-0.8-2.1-1.6-3.2-2.4c-0.5,0.9-0.9,1.9-1.4,2.8c1.4,0.4,2.8,0.7,4.2,1.1c-0.5-3.2-1-6.3-1.6-9.5
		c-0.3-1.9-2.9-2.3-4.2-1.1c-1.6,1.5-2.3,2.9-2.8,5c1.6,0.2,3.3,0.4,4.9,0.7c0-1.3,0.1-2.7,0.1-4c0.1-2.5-3.5-3.4-4.7-1.3
		c-1.7,2.9-3.5,5.6-5.8,8.1c1.3,0.2,2.6,0.3,3.9,0.5c-0.1-0.9-0.2-1.7-0.3-2.6c0.2-1.8-2.3-3.2-3.8-2.2c-1.8,1.4-3.7,2.7-5.5,4.1
		c1.2,0.9,2.4,1.9,3.7,2.8c0.4-2.3,0.8-4.6,1.2-6.9c0.4-2.3-2.3-4.4-4.2-2.4c-2.5,2.6-5,5.2-7.4,7.8c1.4,0.8,2.8,1.6,4.2,2.4
		c0.9-2.5,1.4-4.9,1.7-7.5c0.2-2.2-2.9-3.3-4.3-1.8c-1.9,2.1-3.9,3.8-6.3,5.2c1.3,0.7,2.5,1.4,3.8,2.2c0.2-1.9,0.7-3.7,1.5-5.4
		c1-2.3-2-5.5-3.9-3c-2,2.5-4.1,4.7-6.6,6.8c1.4,0.6,2.8,1.2,4.3,1.8c0.2-2.5,0.4-4.9,0.6-7.4c0.2-2.3-2.8-3-4.3-1.8
		c-1.9,1.7-3.9,3.3-5.8,5c1.4,0.6,2.8,1.2,4.3,1.8c0.3-2.5,0.5-4.9,0.8-7.4c0.3-2.5-3.5-3.3-4.7-1.3c-1.5,2.7-3.3,5-5.5,7.1
		c1.4,0.8,2.8,1.6,4.2,2.4c0.9-3.1,1-5.8,0-9c-0.5-1.7-2.9-2.6-4.2-1.1c-2.3,2.6-4.6,5.3-6.8,7.9c1.4,0.6,2.8,1.2,4.3,1.8
		c0.1-2.6,0.9-4.5,2.6-6.4c2.1-2.4-1.2-5.8-3.5-3.5c-2.2,2.2-4.4,4.3-6.7,6.5c1.4,0.8,2.8,1.6,4.2,2.4c0.9-3.9,2-7.6,3.4-11.3
		C619.9,826.8,615.1,825.5,613.9,828.5L613.9,828.5z"/>
	<path class="st0" d="M705.9,930.1c-11.1-2.9-19.2,8.4-20,18.3c-0.8,10.5,7.1,21.3,18.4,20.2c10.8-1.1,16.8-12.3,15.1-22.3
		c-1.7-9.8-11.4-19.5-21.4-13.2c-2.7,1.7-0.2,6,2.5,4.3c13.7-8.6,21.9,26,2.5,26.3c-18.1,0.3-13.9-32.8,1.7-28.8
		C707.7,935.7,709,930.9,705.9,930.1L705.9,930.1z"/>
	<path class="st0" d="M701.9,946.2c-4.1,2.4-2.1,9.9,2.8,9.3c1.2-0.1,2-0.7,2.4-1.8c1.2-3.6,0.2-7.3-2.2-10.1
		c-1.1-1.3-3.1-0.8-3.9,0.5c-0.7,1.2-1.5,2.5-2.2,3.7c-1.7,2.8,2.7,5.3,4.3,2.5c0.7-1.2,1.5-2.5,2.2-3.7c-1.3,0.2-2.6,0.3-3.9,0.5
		c1.3,1.5,1.5,3.4,0.9,5.2c0.8-0.6,1.6-1.2,2.4-1.8c-0.8,0.1-0.1,0-0.1,0.1c0,0.3,0.1-0.4,0-0.2c0.3-0.6-0.1,0.1-0.2,0.1
		C707.2,948.9,704.7,944.6,701.9,946.2L701.9,946.2z"/>
	<path class="st0" d="M564.7,930.1c-11.1-2.9-19.2,8.4-20,18.3c-0.8,10.5,7.1,21.3,18.4,20.2c10.8-1.1,16.8-12.3,15.1-22.3
		c-1.7-9.8-11.4-19.5-21.4-13.2c-2.7,1.7-0.2,6,2.5,4.3c13.7-8.6,21.9,26,2.5,26.3c-18.1,0.3-13.9-32.8,1.7-28.8
		C566.5,935.7,567.8,930.9,564.7,930.1L564.7,930.1z"/>
	<path class="st0" d="M560.7,946.2c-4.1,2.4-2.1,9.9,2.8,9.3c1.2-0.1,2-0.7,2.4-1.8c1.2-3.6,0.2-7.3-2.2-10.1
		c-1.1-1.3-3.1-0.8-3.9,0.5c-0.7,1.2-1.5,2.5-2.2,3.7c-1.7,2.8,2.7,5.3,4.3,2.5c0.7-1.2,1.5-2.5,2.2-3.7c-1.3,0.2-2.6,0.3-3.9,0.5
		c1.3,1.5,1.5,3.4,0.9,5.2c0.8-0.6,1.6-1.2,2.4-1.8c-0.8,0.1-0.1,0-0.1,0.1c0,0.3,0.1-0.4,0-0.2c0.3-0.6-0.1,0.1-0.2,0.1
		C566,948.9,563.5,944.6,560.7,946.2L560.7,946.2z"/>
	<path class="st0" d="M608.8,871.4c-1.3,6.7-1.9,13.5-1.3,20.4c0.4,4,0.4,9.9,3.9,12.6c8.3,6.6,13.8-10.9,14.2-16.2
		c0.6-6.7-2-17.7-10.7-17.5c-4.6,0.1-5.3,4.1-5.5,7.9c-0.3,6.8,0.7,13.6,2.3,20.2c0.6,2.3,4.4,2.5,4.8,0c1.4-7.5,1.9-15,1.2-22.7
		c-0.3-3.2-5.1-3.3-5,0c0.3,6.6,0.2,13.2-0.4,19.9c-0.3,3.2,4.7,3.2,5,0c0.6-6.6,0.7-13.2,0.4-19.9c-1.7,0-3.3,0-5,0
		c0.6,7.2,0.3,14.2-1.1,21.3c1.6,0,3.2,0,4.8,0c-0.8-3.3-1.5-6.6-1.8-9.9c-0.2-2.5-1.3-7.5-0.3-9.9c1.8-4,4.9,0.9,5.6,3.1
		c0.8,2.4,0.9,4.9,0.6,7.4c-0.3,3-1.1,6.2-2.6,8.8c-0.9,1.6-1.6,3.3-3.4,2.4c-1.5-0.7-1.4-2.1-1.6-3.6c-1.3-7.6-0.9-15.5,0.6-23.1
		C614.3,869.5,609.4,868.2,608.8,871.4L608.8,871.4z"/>
	<path class="st0" d="M621.5,878.3c0.2-0.5,0.4-1,0.6-1.4c-1,0.1-2,0.3-3,0.4c1.1,0.7,1.9,1.6,2.5,2.8c1.7,2.8,5.7,0.4,4.3-2.5
		c-0.9-2-2.2-3.3-4.1-4.4c-0.2,1.5-0.4,3-0.6,4.6c0.1,0-2.9,9.4-3.3,10.5c-1.4,3.7-2.8,7.4-4.2,11.1c-1.1,3,3.7,4.3,4.8,1.3
		c1.4-3.7,2.8-7.4,4.2-11.1c1.2-3.2,3.4-7.1,3.7-10.6c0.3-4-2.6-6.9-6.5-6c-2.1,0.4-2.4,3.5-0.6,4.6c1.2,0.6,2,1.4,2.3,2.6
		c1.4-0.8,2.9-1.7,4.3-2.5c-1.1-1.9-2.5-3.3-4.3-4.6c-0.9-0.6-2.3-0.4-3,0.4c-1.8,1.9-2.2,3.8-1.9,6.3
		C617.2,882.8,622,881.5,621.5,878.3L621.5,878.3z"/>
	<path class="st0" d="M640.6,878c-0.3,5.5-0.3,11.1,0.2,16.6c0.3,3.8,0.5,8.4,2,11.9c2.5,5.7,9.4,4.2,11.9-0.6
		c1.9-3.7,2.1-8.4,2.9-12.4c0.8-4,2-8.4,0.9-12.6c-1.4-5.5-7.6-9.3-12.7-6c-0.9,0.6-1.5,1.7-1.1,2.8c2.2,8.1,2.5,16.2,0.6,24.4
		c-0.7,3.1,4,4.5,4.8,1.3c1.9-7.6,3.3-15.2,4.3-22.9c-1.7,0-3.3,0-5,0c0.4,5.7,0,11.1-1.3,16.7c-0.8,3.1,4.1,4.5,4.8,1.3
		c1.4-5.9,2-11.9,1.5-18c-0.3-3.3-4.6-3.1-5,0c-1,7.3-2.4,14.4-4.2,21.6c1.6,0.4,3.2,0.9,4.8,1.3c2.1-9.1,1.9-18.1-0.6-27
		c-0.4,0.9-0.8,1.9-1.1,2.8c6.7-4.3,5.2,9,4.6,12c-0.5,2.5-0.7,9.7-2.4,11.6c-3.6,4.1-3.7-0.4-4-2.1c-0.5-3-0.8-6-1-9
		c-0.3-4.6-0.2-9.1,0-13.7C645.8,874.8,640.8,874.8,640.6,878L640.6,878z"/>
	<path class="st0" d="M644.5,882c0.2,4-0.4,7.7-1.9,11.3c-1.2,3,3.6,4.3,4.8,1.3c1.6-4,2.3-8.3,2.1-12.7
		C649.3,878.8,644.3,878.8,644.5,882L644.5,882z"/>
	<path class="st0" d="M774,974.5c-8.7,1.1-17,3.9-24.1,9c-4.6,3.3-12.4,9.2-5.4,14.3c6.8,4.8,16.9,5.8,24.7,3.5
		c2.8-0.8,5.1-1.8,5.8-4.8c1.1-4.7-0.5-10.8-0.8-15.6c-0.1-1.7-2.1-3.3-3.8-2.2c-6.2,4.4-12.5,8.8-18.7,13.3
		c-2.1,1.5-0.9,5.7,1.9,4.6c5.4-2.1,10.3-4.9,14.9-8.5c2.2-1.7-0.7-5.6-3-3.9c-2.8,2-5.2,4.2-7.4,6.9c-0.6,0.8-1.1,2.1-0.4,3
		c0.8,1,1.2,1.6,2.4,2c0.4,0.2,3.9,0.6,3.9,0.2c0.4-0.7,0.8-1.4,1.2-2.2c-0.2,0.1-0.4,0.3-0.6,0.4c1.2,0.9,2.4,1.9,3.7,2.8
		c0.4-1.6,1.2-2.9,2.6-3.8c-1-1.3-2-2.6-3-3.9c-0.9,0.9-11.3,9.1-10.8,3.8c0.3-3.2,7.8-6.2,10.3-7.1c3-1.1,1.8-5.6-1.3-4.8
		c-7.6,2-14.3,5.7-19.9,11.2c-2,1.9,0.1,4.5,2.4,4.2c5.7-0.9,10.6-3.3,14.9-7.2c2.4-2.2-1.2-5.7-3.5-3.5c-3.7,3.3-7.8,5.2-12.7,5.9
		c0.8,1.4,1.6,2.8,2.4,4.2c5-4.9,10.9-8.2,17.7-9.9c-0.4-1.6-0.9-3.2-1.3-4.8c-5.5,2-17.3,8.2-14,15.9c3.5,8.2,15.7-0.8,19.4-4.2
		c2-1.9-0.7-5.7-3-3.9c-2.5,1.9-4,3.9-4.9,6.8c-0.7,2.1,1.8,4,3.7,2.8c2-1.3,2.4-3.3,1.1-5.3c-0.5-0.8-1.4-1.5-2.3-1.8
		c-0.5-0.2-3.9-0.1-3.9-0.1c-0.1,1-0.3,2-0.4,3c1.9-2.3,4-4.4,6.4-6.1c-1-1.3-2-2.6-3-3.9c-3.9,3.1-8.1,5.5-12.7,7.2
		c0.6,1.5,1.3,3,1.9,4.6c6.2-4.4,12.5-8.8,18.7-13.3c-1.3-0.7-2.5-1.4-3.8-2.2c0.2,3.1,0.4,6.3,0.7,9.4c0.2,3.2,0.9,5.5-2.8,6.4
		c-5.4,1.3-13.4,1.3-18.1-2.1c-3-2.2-0.6-3.7,1.8-5.5c2-1.6,4.1-3,6.4-4.2c5.2-2.9,11-4.7,16.9-5.4
		C777.2,979.1,777.2,974.1,774,974.5L774,974.5z"/>
	<path class="st0" d="M768.6,1014.5c-0.6-4.6-12.3-3.2-15.2-2.4c-4.3,1.2-9.8,4.1-11.1,8.8c-1.3,5,2.9,9.4,6.4,12.3
		c4.5,3.7,9.7,6,15.5,7c1.1,0.2,2.3-0.1,2.8-1.1c3.8-7.1,5.6-14.7,5.3-22.8c-0.1-2-2.8-3.6-4.3-1.8c-2.9,3.5-5.8,7.1-8.7,10.6
		c1.4,0.8,2.8,1.6,4.2,2.4c0.9-2.5,1.9-5.1,2.8-7.6c0.8-2.2-1.9-3.8-3.7-2.8c-3.2,1.8-6.5,3.5-9.7,5.3c1,1.3,2,2.6,3,3.9
		c1.6-1.7,2.5-3.4,3.2-5.6c0.7-2.3-1.8-3.6-3.7-2.8c-1.6,0.7-3,0.6-4.4-0.1c-1.2-0.5-2.8,0.5-3.1,1.7c-0.8,3.3-1.5,7.1,0.6,10.2
		c2.3,3.6,5.1,2.4,8.6,3.2c2.8,0.7,5,2.8,7.6,0.1c2.8-2.8,1.9-8.5,1.5-11.8c-0.2-1.3-1-2.5-2.5-2.5c-2.7,0-4.5,1.8-4.8,4.5
		c-0.2,1.3,0.1,2.5,0.7,3.6c0.3,0.5,0.7,1,1.1,1.5c0.4,0.5,0.8,0.9,1.3,1.4c0.8,1.1,2,1.1,3.6,0c0.4,0.7,0.8,1.4,1.2,2.2
		c0-0.2,0-0.3,0-0.5c0.2-3.2-4.8-3.2-5,0c-0.2,2.7,3.2,4.4,5.3,2.5c1.1-1,1.2-2.8,0.8-4.2c-0.3-1.1-3.6-6-4.2-6
		c-0.8-0.8-1.7-1.7-2.5-2.5c0.2,1.8,0.4,3.7,0.3,5.6c-0.2,3.7-0.1,2-2,1.2c-0.9-0.4-2-0.2-2.9-0.4c-5.2-1.4-4.7-3-3.8-6.7
		c-1,0.6-2.1,1.2-3.1,1.7c2.9,1.2,5.4,0.9,8.3-0.4c-1.2-0.9-2.4-1.9-3.7-2.8c-0.3,1.3-0.9,2.5-1.9,3.4c-1.9,2.1,0.5,5.3,3,3.9
		c3.2-1.8,6.5-3.5,9.7-5.3c-1.2-0.9-2.4-1.9-3.7-2.8c-0.9,2.5-1.9,5.1-2.8,7.6c-0.8,2.3,2.6,4.3,4.2,2.4c2.9-3.5,5.8-7.1,8.7-10.6
		c-1.4-0.6-2.8-1.2-4.3-1.8c0.3,7.2-1.1,13.9-4.6,20.3c0.9-0.4,1.9-0.8,2.8-1.1c-5.1-0.8-9.9-2.7-13.8-6.2c-3-2.6-6.1-7.1-1.7-10.1
		c2.2-1.4,4.6-2.3,7.2-2.6c2.6-0.3,5.1-0.1,7.6,0.7c1.7,0.5,3.3,1.6,5.2,1.3c2.8-0.5,3.7-2.8,3.4-5.2
		C773,1010,768.1,1011.4,768.6,1014.5L768.6,1014.5z"/>
	<path class="st0" d="M481.6,985c-0.3,6.7-0.6,13.9,0.4,20.6c0.6,3.9,2.3,6.1,6.5,5.7c5.6-0.5,11.5-2.7,16.7-4.9
		c4.4-1.9,9.3-4.7,11-9.5c3.5-9.9-8.9-13.1-16-13.6c-4-0.3-9.8-0.5-12.7,2.8c-3.4,3.8-1.5,11.7-1.3,16.4c0.1,1.7,2.2,3.4,3.8,2.2
		c4.3-3.2,8-6.9,11.1-11.3c1.6-2.3-2.2-5.3-3.9-3c-2.1,2.7-3.5,5.4-4,8.8c-0.4,2.5,2.2,4.2,4.2,2.4c3.1-2.7,6.4-4.6,10.3-5.9
		c-0.9-1.2-1.9-2.4-2.8-3.7c-2.1,3-4.3,5.9-6.4,8.9c-1.5,2.1,1.4,4.7,3.4,3.4c3.9-2.4,13.2-5.6,10.3-11.8c-2.2-4.8-9.1-5.9-13.7-5.2
		c-5.1,0.7-10.5,3.9-12.8,8.7c-2.9,6.2,4.5,7.6,8.9,9.4c3,1.2,4.3-3.7,1.3-4.8c-2.5-1-6.5-1.5-4.1-4.5c1.7-2.1,4.8-3.3,7.4-3.7
		c2.1-0.3,6.7-0.5,7.4,2c0.5,1.9-1.1,2-2.6,2.9c-1.5,0.9-3.1,1.9-4.6,2.8c1.1,1.1,2.3,2.3,3.4,3.4c2.1-3,4.3-5.9,6.4-8.9
		c1.3-1.8-0.8-4.3-2.8-3.7c-4.7,1.6-8.7,3.9-12.5,7.2c1.4,0.8,2.8,1.6,4.2,2.4c0.4-2.5,1.1-4.6,2.7-6.6c-1.3-1-2.6-2-3.9-3
		c-2.6,3.7-5.7,6.8-9.3,9.5c1.3,0.7,2.5,1.4,3.8,2.2c-0.1-3.2-0.5-6.6-0.3-9.8c0.2-3,0.7-3.9,3.5-4.4c1.6-0.2,3.4-0.2,5-0.1
		c3,0.1,6.5,0.5,9.3,1.9c5.2,2.7,2,7.5-1.7,9.8c-2.6,1.7-5.7,2.7-8.7,3.7c-1.8,0.6-9.6,3.7-11.1,2.3c-1.2-1.1-0.6-8.1-0.7-9.8
		c-0.1-3.8,0-7.5,0.2-11.2C486.7,981.8,481.7,981.8,481.6,985L481.6,985z"/>
	<path class="st0" d="M487.7,1030.3c5.3-1.5,9.9-5,15.2-6.4c5.9-1.6,14.3,1.4,9.7,8.9c-3.1,5-8.9,8.7-13.8,11.7
		c-0.8,0.5-2.7,2.2-3.6,2.2c-1.8-0.1-1.5-1-2.2-2.2c-0.6-1.1-1-2.4-1.5-3.6c-0.4-0.8-0.7-1.7-1.1-2.5c-1.1-2-0.6-3.9,1.6-5.5
		c-0.6-1-1.2-2.1-1.7-3.1c-1.4,3.8-1.8,7.3-1.3,11.3c0.3,2.4,3.2,3.5,4.7,1.3c2.7-4.2,5.5-8.5,8.2-12.7c-1.4-0.8-2.9-1.7-4.3-2.5
		c-1.6,3.8-3.2,7.5-4.9,11.3c-1,2.4,1.8,5.3,3.9,3c3.8-4.1,7.6-8.2,11.4-12.3c-1.3-1-2.6-2-3.9-3c-2.6,5.1-5.6,9.8-9,14.3
		c-1.8,2.3,2,4.9,3.9,3c4.3-4.2,8.6-8.3,12.9-12.5c-1.4-0.8-2.8-1.6-4.2-2.4c-1.1,2.8-2.6,4.8-4.7,6.8c1.3,1,2.6,2,3.9,3
		c1.3-2.2,2.7-4.2,4.6-5.9c1.2-1.1,2.8-1.7,3.6-3.2c1.1-2.2,0.3-4.8-1.7-6.2c-6-4.2-14.4,3.7-18.4,7.6c-3.6,3.5-9.8,11.8-2.2,15.1
		c8.5,3.6,11.1-7.7,17.1-10c3-1.1,1.7-6-1.3-4.8c-2.9,1.1-4.7,2.8-6.7,5.3c-0.8,1-3.6,5.5-5.4,4.9c-4.3-1.6,1.6-6.5,2.6-7.4
		c1.7-1.6,3.4-3.2,5.4-4.4c1.1-0.7,2.2-1.3,3.5-1.8c2.4-0.7,3-0.6,1.8,0.1c-0.2,0.9-3.6,3.2-4.3,4.1c-1.1,1.3-2,2.7-2.8,4.2
		c-1.4,2.5,1.8,4.9,3.9,3c2.8-2.6,4.7-5.5,6-9c0.9-2.4-2.5-4.1-4.2-2.4c-4.3,4.2-8.6,8.3-12.9,12.5c1.3,1,2.6,2,3.9,3
		c3.5-4.5,6.5-9.3,9-14.3c1.2-2.4-1.9-5.2-3.9-3c-3.8,4.1-7.6,8.2-11.4,12.3c1.3,1,2.6,2,3.9,3c1.6-3.8,3.2-7.5,4.9-11.3
		c1.2-2.9-2.5-5.3-4.3-2.5c-2.7,4.2-5.5,8.5-8.2,12.7c1.6,0.4,3.1,0.8,4.7,1.3c-0.4-3.5-0.1-6.6,1.1-10c0.5-1.3-0.5-2.7-1.7-3.1
		c-3.4-1-6.6,0.6-8,3.9c-2.1,4.7,1.2,10.2,3.1,14.4c1.4,3.3,3.4,6.6,7.6,5.5c5-1.3,10.3-6.1,14.2-9.3c6.2-5.1,14-15.9,4.3-22
		c-9.6-6.1-19,2.5-28.1,5C483.2,1026.3,484.5,1031.2,487.7,1030.3L487.7,1030.3z"/>
	<path class="st0" d="M642.6,993.5c-2-4.6-7.5-8.3-12.5-5.7c-4.7,2.5-5.8,8.7-1.7,12.1c3.9,3.3,9.8,3.2,14.1,0.8
		c3.8-2,8.4-7.6,5.9-12.1c-1.2-2.2-4-2.8-6.2-3.4c-3.4-0.9-7.1-1.3-10.4,0c-4.4,1.8-7.5,6.9-5.3,11.5c4.1,8.6,24.4,3.5,18.3-5.3
		c-2.7-3.9-12.4-5.1-14.4,0.1c-0.9,2.4,0.4,5.1,2.4,6.4c3,2,6.5,0.6,9.4-0.9c1.1-0.6,1.6-2.4,0.9-3.4c-1.8-2.6-5.5-2.8-7.2,0.1
		c-1.6,2.8,2.7,5.3,4.3,2.5c-0.5,0-1-0.1-1.5-0.1c0.3-1.1,0.6-2.3,0.9-3.4c-0.9,0.5-1.8,0.9-2.8,1.2c-2-0.4-2.2-0.6-0.4-0.6
		c0.8-0.1,3.7-0.1,4,0.7c0.7,1.8-4.5,2.3-5.5,2.3c-2.5,0-5.2-1.2-3.8-4.2c1.6-3.3,6.2-2.8,9-2.2c0.6,0.1,3.1,0.4,3.5,1
		c0.7,1.2-0.8,3-1.5,3.8c-1.6,1.6-3.8,2.7-6.1,2.7c-2.4,0.1-7.5-1.8-4.5-4.7c2.6-2.5,5.6,1,6.5,3.3
		C639.6,999,643.9,996.5,642.6,993.5L642.6,993.5z"/>
	<path class="st0" d="M630.4,1001.5c3.8,5.9,4.5,13.3,0.6,19.4c-1.7,2.6-4,4.7-6.8,6.2c-3,1.6-12.3,3.4-11.2-3.2
		c0.5-3.1-4.3-4.5-4.8-1.3c-0.7,4.4,1.2,8.4,5.4,10.3c5.2,2.2,11.4,0.1,15.7-3.1c9.9-7.2,11.9-20.6,5.3-30.7
		C633,996.3,628.7,998.8,630.4,1001.5L630.4,1001.5z"/>
	<path class="st0" d="M634.9,1004.3c0.3,7.5,1.3,17.2,8.6,21.4c8.1,4.6,16.9-0.8,21.8-7.4c1.9-2.6-2.4-5.1-4.3-2.5
		c-3.9,5.2-11.9,9.7-17.2,3.7c-3.4-3.9-3.7-10.3-3.9-15.2C639.8,1001.1,634.8,1001.1,634.9,1004.3L634.9,1004.3z"/>
	<path class="st0" d="M680.6,996c9-2.6,17.9-2.5,26.8,0.2c3.1,0.9,4.4-3.9,1.3-4.8c-9.7-2.9-19.7-3-29.5-0.2
		C676.1,992.1,677.4,996.9,680.6,996L680.6,996z"/>
	<path class="st0" d="M686.7,1007.1c3.7,1.6,7.4,3.2,11.1,4.8c2.9,1.3,5.5-3,2.5-4.3c-3.7-1.6-7.4-3.2-11.1-4.8
		C686.3,1001.6,683.8,1005.9,686.7,1007.1L686.7,1007.1z"/>
	<path class="st0" d="M605.8,991c-6.4-1.9-12.9-2.2-19.5-1.3c-3.2,0.5-1.8,5.3,1.3,4.8c5.7-0.8,11.3-0.3,16.8,1.3
		C607.6,996.8,608.9,991.9,605.8,991L605.8,991z"/>
	<path class="st0" d="M600.9,998.2c-6,2.9-12.1,5.9-18.1,8.8c-2.9,1.4-0.4,5.7,2.5,4.3c6-2.9,12.1-5.9,18.1-8.8
		C606.3,1001.1,603.8,996.8,600.9,998.2L600.9,998.2z"/>
	<path class="st0" d="M313.6,577.3c13.1-0.7,26.2-0.4,39.2,1.1c-0.8-0.6-1.6-1.2-2.4-1.8c3.8,11.2-3.3,23.5-15.5,24.1
		c-13.2,0.6-19.5-11.7-21-23.1c-0.4-3.1-5.4-3.2-5,0c1.9,14.6,10.6,29.7,27.4,28c14.7-1.5,23.6-16.5,18.9-30.3
		c-0.4-1.1-1.2-1.7-2.4-1.8c-13-1.4-26.1-1.8-39.2-1.1C310.4,572.4,310.4,577.4,313.6,577.3L313.6,577.3z"/>
	<path class="st0" d="M151.6,576.6c12.6,0.7,25.2,1.5,37.8,2.2c-0.8-0.8-1.7-1.7-2.5-2.5c-0.6,11.5-9.8,22.9-21.9,23.2
		c-11.5,0.3-21.8-11.3-19.6-22.7c0.6-3.1-4.2-4.5-4.8-1.3c-2.8,14.1,8.6,28.3,23,29c15.4,0.7,27.5-13.6,28.3-28.1
		c0.1-1.4-1.2-2.4-2.5-2.5c-12.6-0.7-25.2-1.5-37.8-2.2C148.4,571.5,148.4,576.5,151.6,576.6L151.6,576.6z"/>
	<path class="st0" d="M140.5,576.7c4.5,0.6,9,1.3,13.4,1.9c3.1,0.5,4.5-4.4,1.3-4.8c-4.5-0.6-9-1.3-13.4-1.9
		C138.7,571.4,137.3,576.2,140.5,576.7L140.5,576.7z"/>
	<path class="st0" d="M156.7,575.9c-6,4.2-3.6,13.5,3.4,15.1c9,2,14.4-6.9,16.2-14.3c0.4-1.7-0.8-3-2.4-3.2
		c-4.7-0.6-11.5-0.4-13.1,5.1c-1.2,4,0.9,8.6,5.4,8.7c2.2,0,3.3-2.7,1.8-4.3c-2.3-2.4-5.8-1.8-7.6,0.8c-1.8,2.7,2.5,5.2,4.3,2.5
		c-0.1,0.1-0.2,0.1-0.2,0.2c0.6-1.4,1.2-2.8,1.8-4.3c-1.8,0-0.1-3,0.6-3.5c2.1-1.1,4.9-0.6,7.1-0.4c-0.8-1.1-1.6-2.1-2.4-3.2
		c-1,4.1-2.7,9.1-7.1,10.5c-1.7,0.5-4,0.6-5.3-0.9c-1-1.2-1.3-3.7,0.2-4.7C161.8,578.4,159.3,574,156.7,575.9L156.7,575.9z"/>
	<path class="st0" d="M325.6,576.2c-5.9,5-1.6,14.6,5.6,15.1c9.2,0.7,13.8-8.7,13.2-16.6c-1.7,0-3.3,0-5,0c0.3,3.2-1.2,6.3-4.4,7.6
		c1,0.6,2.1,1.2,3.1,1.7c-0.7-2.2-1.4-4.4-2.1-6.7c-0.4-1.3-1.7-2.1-3.1-1.7c-4.4,1.1-5.5,6.2-2.9,9.5c2,2.5,5.5-1,3.5-3.5
		c-0.4-0.5,0.4-1.1,0.7-1.2c-1-0.6-2.1-1.2-3.1-1.7c0.7,2.2,1.4,4.4,2.1,6.7c0.4,1.2,1.8,2.3,3.1,1.7c5.1-2,8.5-6.8,8-12.4
		c-0.3-3.2-5.3-3.2-5,0c0.4,4.5-0.7,10.2-5.8,11.5c-3.8,1-8.1-3.3-4.5-6.4C331.6,577.6,328,574.1,325.6,576.2L325.6,576.2z"/>
	<path class="st0" d="M245.2,611c-3.7-2.2-8.6-1-10.7,2.9c-2.5,4.6,0.5,10.2,4.9,12.3c9.5,4.6,23.3-5.5,17.2-15.8
		c-5.4-9.1-19-3.9-17.6,6.4c1.3,9.8,15.1,9.2,18.1,0.9c0.3-0.8,0-1.9-0.6-2.4c-4.6-4.4-12.6-2.2-14,4.2c-0.3,1.3,0.4,2.7,1.7,3.1
		c4.6,1.2,7.7-4.2,4.6-7.7c-1.4-1.6-4.4-0.4-4.3,1.8c1.1,16.4,2.9,32.9,2.2,49.4c-0.5,11.9-3.3,26-15.1,31.7c1,1.3,2,2.6,3,3.9
		c5.7-5.3,11.5-10.6,17.2-15.9c-1.4-0.4-2.8-0.7-4.2-1.1c1.8,6.5,5.3,12.1,10.6,16.4c2.5,2,6-1.5,3.5-3.5c-4.6-3.8-7.7-8.4-9.3-14.2
		c-0.5-1.9-2.8-2.4-4.2-1.1c-5.7,5.3-11.5,10.6-17.2,15.9c-2.2,2,0.6,5.1,3,3.9c11.5-5.6,15.8-18.4,17.1-30.3
		c2-18.1-0.6-36.9-1.8-55c-1.4,0.6-2.8,1.2-4.3,1.8c0.1-0.2,0.2-0.4,0.3-0.7c0.6,1,1.2,2.1,1.7,3.1c0.6-2.6,3.6-3.9,5.7-2
		c-0.2-0.8-0.4-1.6-0.6-2.4c-0.9,2.7-5.4,4-7.5,1.7c-3.3-3.7,2.6-9.6,6.4-6.4c3.8,3.2,1.7,7.5-2.1,9.4c-2.4,1.3-4.6,1.5-7.1,0.5
		c-2-0.4-3.1-1.7-3.3-3.9c0.7-2.5,2.1-3.2,4.1-2.2C245.4,617,248,612.7,245.2,611L245.2,611z"/>
	<path class="st0" d="M216.7,521.2c5.7-1.2,11.4-1.5,17.2-0.9c-0.8-0.8-1.7-1.7-2.5-2.5c0.4,5.1,0.3,10.2-0.5,15.3
		c-0.3,2.2-0.6,5-1.5,7c-0.1,2-1.4,3.2-3.6,3.5c-0.7-0.8-1.4-1.7-1.9-2.7c-2.4-4.1-5.6-9.2-7.1-13.7c-1.1-3.3-0.8-2.7,2.7-1.6
		c2.1,0.7,3.3,1.2,5.5,1c-0.8-0.8-1.7-1.7-2.5-2.5c-0.3,5.4-0.6,10.8-1,16.2c-0.1,2.4,3.6,3.5,4.7,1.3c2.8-5.8,3.6-11.6,2.7-17.9
		c-0.4-2.8-5-2.1-4.9,0.7c0.1,5.3-0.5,10.4-2,15.5c-0.8,2.6,3.4,4.6,4.6,1.9c2.5-5.9,3.9-11.8,3.9-18.2c0-1.8-2.2-3.2-3.8-2.2
		c-4.1,2.7-8.2,5.3-12.2,8c1,1.3,2,2.6,3,3.9c4.1-3.4,8.6-5.7,13.8-7.1c-1-1-2.1-2.1-3.1-3.1c-0.9,5.5-1.7,10.9-2.6,16.4
		c-0.5,3.1,4.3,4.5,4.8,1.3c0.9-5.5,1.7-10.9,2.6-16.4c0.3-1.8-1.1-3.6-3.1-3.1c-6,1.7-11.2,4.5-16,8.4c-2.2,1.8,0.7,5.5,3,3.9
		c4.1-2.7,8.2-5.3,12.2-8c-1.3-0.7-2.5-1.4-3.8-2.2c0,5.5-1.1,10.7-3.2,15.7c1.5,0.6,3,1.3,4.6,1.9c1.6-5.5,2.3-11.1,2.2-16.8
		c-1.6,0.2-3.3,0.4-4.9,0.7c0.7,4.9,0,9.6-2.2,14c1.6,0.4,3.1,0.8,4.7,1.3c0.3-5.4,0.6-10.8,1-16.2c0.1-1.3-1.2-2.6-2.5-2.5
		c-3.7,0.4-13.9-5.6-14.4,2.7c-0.2,3.6,3,7.6,4.6,10.6c1.9,3.7,3.5,8.1,6.2,11.3c3.9,4.7,9.6,4.1,11.9-1.7c3.3-8.1,3.7-18,3.1-26.6
		c-0.1-1.5-1.1-2.4-2.5-2.5c-6.3-0.6-12.4-0.3-18.5,1.1C212.2,517,213.6,521.9,216.7,521.2L216.7,521.2z"/>
	<path class="st0" d="M253.9,519.8c-3,8.4-7.9,33.2,6,35.4c15,2.4,16.4-22.1,18.4-31.4c0.3-1.4-0.4-2.6-1.7-3.1
		c-6.2-2-12.5-1.8-18.5,0.6c-2.3,0.9-2.4,3.9,0,4.8c3.2,1.2,6.3,1.8,9.8,1.9c-0.7-1.3-1.4-2.5-2.2-3.8c-5.5,7.5-9.4,15.9-11.9,24.8
		c-0.5,1.9,1.9,4.2,3.7,2.8c7.6-5.8,11.8-14.8,10.5-24.4c-0.2-1.9-2.7-3.6-4.3-1.8c-4.9,5.5-6.5,12.7-4.1,19.7
		c0.5,1.4,2.3,2.5,3.7,1.5c6.5-4.8,9.4-12.5,7.4-20.3c-0.4-1.4-1.8-2-3.1-1.7c-7.3,1.2-12.4,7.9-11.8,15.2c0.3,3.2,5.3,3.2,5,0
		c-0.5-5.3,2.9-9.5,8.1-10.4c-1-0.6-2.1-1.2-3.1-1.7c1.5,5.5-0.4,11.3-5.1,14.7c1.2,0.5,2.4,1,3.7,1.5c-1.8-5.3-0.9-10.6,2.8-14.8
		c-1.4-0.6-2.8-1.2-4.3-1.8c1,7.8-1.8,15.3-8.1,20.1c1.2,0.9,2.4,1.9,3.7,2.8c2.4-8.6,6.2-16.4,11.4-23.6c1.2-1.6-0.4-3.7-2.2-3.8
		c-3-0.1-5.7-0.7-8.4-1.7c0,1.6,0,3.2,0,4.8c5.3-2.1,10.5-2.4,15.9-0.6c-0.6-1-1.2-2.1-1.7-3.1c-1.1,5.2-2.2,10.4-3.4,15.6
		c-1,4.3-2.2,11.4-7.7,12.2c-11,1.6-5.4-24.2-3.6-29.1C259.8,518.1,255,516.8,253.9,519.8L253.9,519.8z"/>
	<path class="st1" d="M350.3,644.5c20.6-4.4,41.4-7.4,62.3-9.1c3.2-0.3,3.2-5.3,0-5c-21.4,1.7-42.6,4.8-63.6,9.3
		C345.8,640.4,347.1,645.2,350.3,644.5L350.3,644.5z"/>
	<path class="st1" d="M350.3,664.3c16.6-2.7,33.4-1.7,49.6,2.7c3.1,0.8,4.4-4,1.3-4.8c-17.1-4.7-34.8-5.5-52.3-2.7
		C345.8,660,347.2,664.8,350.3,664.3L350.3,664.3z"/>
	<path class="st1" d="M347.5,684.9c9.5,2.6,18.9,5.2,28.4,7.9c3.1,0.9,4.4-4,1.3-4.8c-9.5-2.6-18.9-5.2-28.4-7.9
		C345.7,679.2,344.4,684,347.5,684.9L347.5,684.9z"/>
	<path class="st1" d="M75.5,649.7c17.7-6.6,36.3-9.5,55.2-8.7c3.2,0.1,3.2-4.9,0-5c-19.3-0.8-38.4,2.2-56.5,8.9
		C71.1,645.9,72.4,650.8,75.5,649.7L75.5,649.7z"/>
	<path class="st1" d="M84.2,673.3c13-8.4,27.3-14.1,42.5-17.1c3.2-0.6,1.8-5.4-1.3-4.8c-15.6,3.1-30.3,9.1-43.7,17.6
		C79,670.7,81.5,675,84.2,673.3L84.2,673.3z"/>
	<path class="st1" d="M98.1,696.6c9.7-9,20.5-16.4,32.2-22.4c2.9-1.4,0.3-5.8-2.5-4.3c-12.2,6.1-23.3,13.9-33.3,23.1
		C92.2,695.3,95.8,698.8,98.1,696.6L98.1,696.6z"/>
	<path class="st1" d="M981.7,681.9c-6-15-28.9-2.6-28.9,10.1c0.1,15.6,27.9,15.8,36,7.3c11-11.5-3.9-27.3-17.1-21
		c-5.8,2.8-11.5,10-8.7,16.7c2.5,6.2,10.1,7.7,15.8,5.4c5-2,14.7-10.1,8.4-15.8c-6-5.4-15,1.6-17.6,7.1c-0.7,1.6-0.1,3.1,1.5,3.7
		c5.3,2,11.2-0.3,13.6-5.5c0.8-1.8-0.2-3.6-2.2-3.8c-4.8-0.3-8.8,1.2-12.5,4.1c-0.8,0.6-1,2.2-0.4,3c3.2,4.5,9.7,5.3,13.3,0.7
		c1.1-1.3,0.9-3.8-1.1-4.2c-7.1-1.3-14.2-2-21.5-2c-2.9,0-3.2,4-0.7,4.9c4.9,1.8,9.8,0.6,13.5-3.1c1.5-1.6,0.4-4.2-1.8-4.3
		c-6-0.1-11.3,3-13.9,8.5c-0.7,1.5-0.2,3.2,1.5,3.7c6.7,2,13.5,3.2,20.4,3.6c3.2,0.2,3.2-4.8,0-5c-6.5-0.4-12.8-1.5-19.1-3.4
		c0.5,1.2,1,2.4,1.5,3.7c1.9-4,5.1-6.1,9.6-6.1c-0.6-1.4-1.2-2.8-1.8-4.3c-2.5,2.5-5.4,3-8.6,1.8c-0.2,1.6-0.4,3.3-0.7,4.9
		c6.8,0,13.5,0.5,20.1,1.8c-0.4-1.4-0.7-2.8-1.1-4.2c-1.3,1.6-3.9,2.5-5.5,0.3c-0.1,1-0.3,2-0.4,3c2.7-2.1,5.6-2.8,8.9-2.6
		c-0.7-1.3-1.4-2.5-2.2-3.8c-1.5,3.2-4.6,4.5-8,3.2c0.5,1.2,1,2.4,1.5,3.7c1-2.1,2.2-3.8,4.2-5c1.1-0.7,2.4-1.2,3.7-1.3
		c1.4,2.3,1.2,4-0.5,5.1c-3.3,3.6-13.3,5.9-13.9-1.5c-0.5-5.4,6.3-9.8,11-9.9c5-0.2,9.9,4.2,9.3,9.4c-1.3,10.9-18.4,10.1-25.6,6.4
		c-13.9-7.2,10.7-24.8,14.9-14.3C978.1,686.2,982.9,684.9,981.7,681.9L981.7,681.9z"/>
	<path class="st1" d="M892.7,700.5c20.9-9.3,44.1-12.5,66.7-9.3c3.1,0.4,4.5-4.4,1.3-4.8c-24.1-3.4-48.3,0-70.6,9.8
		C887.2,697.5,889.8,701.8,892.7,700.5L892.7,700.5z"/>
	<path class="st1" d="M899.3,710.7c18.6-10.3,39.7-14.4,60.8-11.8c3.2,0.4,3.2-4.6,0-5c-21.9-2.6-44,1.8-63.3,12.5
		C893.9,708,896.5,712.3,899.3,710.7L899.3,710.7z"/>
	<path class="st1" d="M984,703.3c21.9-1.2,43.6,5.5,60.9,19.1c2.5,2,6.1-1.6,3.5-3.5c-18.4-14.4-41.1-21.8-64.4-20.5
		C980.8,698.4,980.8,703.4,984,703.3L984,703.3z"/>
	<path class="st1" d="M990.1,691.5c21.5,1.5,42,8.6,60,20.5c2.7,1.8,5.2-2.5,2.5-4.3c-18.7-12.4-40.1-19.6-62.5-21.2
		C986.9,686.3,986.9,691.3,990.1,691.5L990.1,691.5z"/>
	<path class="st1" d="M298.9,868c-1.8-6.7-11-5.9-14-0.6c-3.5,6.2,0.2,14.3,7.1,15.6c7.4,1.5,14.9-4.9,13.5-12.6
		c-1.2-6.5-9.9-10.2-14.8-4.9c-5.5,6,1.1,14.4,6.9,16.9c5.1,2.2,15,1.4,14.1-6.3c-0.8-6.7-10.2-7.8-13.9-3.1
		c-4,5.1-1.3,13.4,5.7,13.4c8,0,10-11.5,2.1-13.6c-7.7-2-10.1,9.6-3.2,12.1c3,1.1,4.3-3.7,1.3-4.8c-2.2-0.8,1.5-5.2,2-0.9
		c0.2,1.9-2,2.5-3.3,2c-4.1-1.6,0.2-8.6,3.5-5.7c3.5,3.1-3.9,3-5.1,2.6c-2.7-0.8-5.8-3.1-6.6-5.8c-1.3-4.4,4.1-5.9,6-2.5
		c2.2,3.8-1.5,8-5.3,8.3c-3.4,0.3-6.4-2.2-6.3-5.7c0-1.2,0.5-2.8,1.5-3.7c1-0.8,3.6-1.3,4.1,0.5C294.9,872.5,299.7,871.1,298.9,868
		L298.9,868z"/>
	<path class="st1" d="M323.5,893c-3-3.5-9.3-1.6-10.4,2.8c-1.4,5.2,4.3,9.4,9.1,8.4c3.5-0.7,10.9-7.6,5.7-10.7
		c-3.6-2.2-9.1,2.8-6.3,6.4c1.9,2.5,6.3,0,4.3-2.5c-0.3,0.8-0.3,1-0.1,0.6c0.5-0.2,0.2-0.4-0.9-0.5c-0.1-0.6-0.2-1.3-0.3-1.9
		c-0.8,2.2-3.4,5.1-5.9,3.3c-1.9-1.4,0-3.6,1.1-2.3C322.1,899,325.6,895.4,323.5,893L323.5,893z"/>
	<path class="st1" d="M341.4,900.1c-4.3,0.6-7.6,5.3-6.4,9.6c1.2,4.1,5.9,6,9.8,4.7c4.4-1.5,5.3-6.2,1.7-9.2
		c-4.6-3.8-8.2,0.4-8.6,5.1c-0.4,4.3,2.7,9.2,7.5,8.6c3.7-0.4,6.1-4.7,4.3-8.1c-2.2-3.9-7.4-2.6-9.1,1c-2.2,4.8,2.4,8.7,6.7,9.4
		c-0.5-1.2-1-2.4-1.5-3.7c-1,2.2-1.8,4.9,0.2,6.7c1.7,1.6,3.9,1.3,5.5-0.1c2.5-2.1-1.1-5.6-3.5-3.5c0.7-0.2,1.4-0.4,2.1-0.6
		c0.6-1.3,0.2-3.4-1.5-3.7c-0.8-0.1-1.6-0.3-2.3-0.6c-0.2-2.1-0.8-2.7-1.9-1.8c-2.3-2.1-1.7-3.9-0.3-6.4c-0.7,0.4-1.4,0.8-2.2,1.2
		c2.2,0.4,2.3,0.7,0.4,1c-1.1,0.1-1.9-0.4-2.5-1.5c-0.8-1.9,1.4-3.3,2.9-3.5C345.9,904.5,344.6,899.7,341.4,900.1L341.4,900.1z"/>
	<path class="st1" d="M362.3,962.8c1.7-3,3.8-5.7,6.6-7.8c-1.1-1.1-2.3-2.3-3.4-3.4c-1,1.4-2,2.8-3,4.2c-1.9,2.6,2.4,5.1,4.3,2.5
		c1-1.4,2-2.8,3-4.2c1.4-2-1.4-4.9-3.4-3.4c-3.5,2.6-6.3,5.7-8.4,9.5C356.4,963.1,360.7,965.7,362.3,962.8L362.3,962.8z"/>
	<path class="st1" d="M361.4,972.8c4-3,8-6,12-9c2.5-1.9,0.1-6.3-2.5-4.3c-4,3-8,6-12,9C356.4,970.4,358.8,974.7,361.4,972.8
		L361.4,972.8z"/>
	<path class="st1" d="M988.4,883.8c-2.8-2.9-4.9-6.1-6.2-10c-0.5-1.5-2.5-9.2-0.3-9.4c1.3-0.2,1.8,4,2.9,5.4
		c1.1,1.4,2.8,2.3,4.6,2.2c1.9-0.1,3.5-1.3,4.7-2.7c0.8-0.9,3.3-7.3,4.8-4.9c0.9,1.4-3.3,8.1-4.1,9.4c-2.1,3.5-4.6,6.4-7.5,9.2
		c1.4,0.4,2.8,0.7,4.2,1.1c-0.7-4.6-2.1-8.9-4-13.2c-0.6-1.4-3-1.7-3.9-0.5c-2.4,3.1-2.4,6.4,0,9.5c0.8,1,2.8,1,3.5,0
		c2.1-2.6,2.7-5.1,2-8.3c-0.4-1.7-3-2.5-4.2-1.1c-3.5,4.3-3.5,9.6,0.2,13.7c0.9,1.1,2.6,0.8,3.5,0c3.6-3.2,6.1-6.9,7.7-11.4
		c-1.6,0-3.2,0-4.8,0c0.8,2,0.9,3.5,0.3,5.7c-0.9,3.1,3.9,4.4,4.8,1.3c0.8-2.9,0.8-5.5-0.3-8.3c-0.9-2.3-4-2.4-4.8,0
		c-1.3,3.7-3.4,6.6-6.4,9.2c1.2,0,2.4,0,3.5,0c-1.7-1.9-1.9-4.6-0.2-6.6c-1.4-0.4-2.8-0.7-4.2-1.1c-0.3,1.1-0.5,2.3-0.8,3.4
		c1.2,0,2.4,0,3.5,0c-0.7-0.8-0.7-1.6,0-2.4c-1.3-0.2-2.6-0.3-3.9-0.5c1.7,3.9,2.8,7.8,3.5,12c0.3,1.9,2.9,2.3,4.2,1.1
		c3.8-3.6,7-7.7,9.4-12.3c1.8-3.5,4.5-8.4,3.9-12.5c-0.4-3-2.9-5.2-6-4.6c-1.6,0.3-3.1,1.5-4.2,2.7c-1.6,1.8-2,5.3-4.5,5.3
		c-2.4,0.1-1.8-2.6-2.9-4.6c-0.7-1.3-1.8-2.5-3.1-3.2c-3-1.4-5.9,0.6-6.9,3.6c-2.9,9,2,19.9,8.2,26.3
		C987.1,889.7,990.7,886.1,988.4,883.8L988.4,883.8z"/>
</g>
</svg>
